STARTFONT 2.1
COMMENT
COMMENT Converted from OpenType font "Q:\font stuff\winfont\neuropolitical.ttf" by "otf2bdf 3.0".
COMMENT
FONT -FreeType-Neuropolitical Rg-Medium-R-Normal--40-400-72-72-P-261-ISO10646-1
SIZE 40 72 72
FONTBOUNDINGBOX 61 49 -5 -9
STARTPROPERTIES 19
FOUNDRY "FreeType"
FAMILY_NAME "Neuropolitical Rg"
WEIGHT_NAME "Medium"
SLANT "R"
SETWIDTH_NAME "Normal"
ADD_STYLE_NAME ""
PIXEL_SIZE 30
POINT_SIZE 400
RESOLUTION_X 72
RESOLUTION_Y 72
SPACING "P"
AVERAGE_WIDTH 261
CHARSET_REGISTRY "ISO10646"
CHARSET_ENCODING "1"
FONT_ASCENT 39
FONT_DESCENT 6
COPYRIGHT "(c) 1999-2011 Typodermic Fonts. www.typodermic.com/license.html - Design: Ray Larabie Languages & kerning: Chikako Larabie"
_OTF_FONTFILE "Q:\font stuff\winfont\neuropolitical.ttf"
_OTF_PSNAME "NeuropoliticalRg-Regular"
ENDPROPERTIES
CHARS 385
STARTCHAR 0017
ENCODING 23
SWIDTH 400 0
DWIDTH 16 0
BBX 0 0 0 0
BITMAP
ENDCHAR
STARTCHAR 0020
ENCODING 32
SWIDTH 400 0
DWIDTH 16 0
BBX 0 0 0 0
BITMAP
ENDCHAR
STARTCHAR 0021
ENCODING 33
SWIDTH 300 0
DWIDTH 12 0
BBX 6 27 3 0
BITMAP
FC
FC
FC
FC
FC
FC
FC
FC
FC
FC
FC
FC
FC
FC
FC
FC
FC
FC
FC
00
00
FC
FC
FC
FC
FC
FC
ENDCHAR
STARTCHAR 0022
ENCODING 34
SWIDTH 425 0
DWIDTH 17 0
BBX 13 11 2 18
BITMAP
F8F8
F8F8
F8F8
F8F8
F8F8
F8F8
F8F8
F8F8
F8F8
F8F8
F0F0
ENDCHAR
STARTCHAR 0023
ENCODING 35
SWIDTH 650 0
DWIDTH 26 0
BBX 24 27 1 0
BITMAP
01E078
01E078
01E078
03C070
03C0F0
03C0F0
3FFFFF
3FFFFF
3FFFFF
7FFFFF
0380E0
0781E0
0781E0
0781E0
0781E0
0781E0
0781E0
FFFFFE
FFFFFE
FFFFFE
FFFFFC
0F03C0
0F03C0
0F03C0
0F03C0
0E0380
1E0780
ENDCHAR
STARTCHAR 0024
ENCODING 36
SWIDTH 850 0
DWIDTH 34 0
BBX 30 32 2 -3
BITMAP
00078000
00078000
0FFF8000
3FFF8000
7FFF8000
7FFF8000
FFFF8000
FE078000
FC078000
FC078000
FC078000
FC078000
FE078000
FFFFFFC0
7FFFFFF0
3FFFFFF8
0FFFFFF8
000781FC
000780FC
000780FC
000780FC
000780FC
000780FC
000781FC
FFFFFFFC
FFFFFFF8
FFFFFFF8
FFFFFFF0
FFFFFFC0
00078000
00078000
00078000
ENDCHAR
STARTCHAR 0025
ENCODING 37
SWIDTH 1050 0
DWIDTH 42 0
BBX 38 29 2 -1
BITMAP
3FFC000000
7FFE003E00
FFFF003C00
FFFF007800
F00F00F800
F00F01F000
F00F01E000
F00F03E000
F00F07C000
F00F078000
F00F0F8000
FFFF1F0000
FFFF3E0000
7FFE3C0000
3FFC7CFFF0
0000F9FFF8
0000F3FFFC
0001F3FFFC
0003E3C03C
0007C3C03C
000783C03C
000F83C03C
001F03C03C
001E03C03C
003E03C03C
007C03FFFC
00F803FFFC
00F001FFF8
000000FFF0
ENDCHAR
STARTCHAR 0026
ENCODING 38
SWIDTH 925 0
DWIDTH 37 0
BBX 35 27 2 0
BITMAP
03FFFC0000
0FFFFF0000
1FFFFF8000
1FFFFFC000
1F000FC000
1F000FC000
1F000FC000
1F000FC000
1F001FC000
1F80FFC000
0FEFFF8000
07FFFF0000
03FFFC0000
1FFF800000
7FFF003E00
7F1FC03E00
FC07E03E00
FC03F83E00
FC00FC3E00
FC007F7C00
FC001FFC00
FE000FFC00
FFFFFFF800
FFFFFFFC00
7FFFFFFF00
3FFFFFBF80
0FFFFC1FE0
ENDCHAR
STARTCHAR 0027
ENCODING 39
SWIDTH 225 0
DWIDTH 9 0
BBX 5 11 2 18
BITMAP
F8
F8
F8
F8
F8
F8
F8
F8
F8
F8
F0
ENDCHAR
STARTCHAR 0028
ENCODING 40
SWIDTH 350 0
DWIDTH 14 0
BBX 10 44 4 -9
BITMAP
07C0
1FC0
3FC0
7FC0
7C00
F800
F000
F000
F000
F000
F000
F000
F000
F000
F000
F000
F000
F000
F000
F000
F000
F000
F000
F000
F000
F000
F000
F000
F000
F000
F000
F000
F000
F000
F000
F000
F000
F000
F800
7C00
7FC0
3FC0
1FC0
07C0
ENDCHAR
STARTCHAR 0029
ENCODING 41
SWIDTH 350 0
DWIDTH 14 0
BBX 10 44 0 -9
BITMAP
F800
FE00
FF00
FF80
0F80
07C0
03C0
03C0
03C0
03C0
03C0
03C0
03C0
03C0
03C0
03C0
03C0
03C0
03C0
03C0
03C0
03C0
03C0
03C0
03C0
03C0
03C0
03C0
03C0
03C0
03C0
03C0
03C0
03C0
03C0
03C0
03C0
03C0
07C0
0F80
FF80
FF00
FE00
F800
ENDCHAR
STARTCHAR 002A
ENCODING 42
SWIDTH 575 0
DWIDTH 23 0
BBX 19 18 2 12
BITMAP
00E000
00E000
00E000
00E000
00E000
C0E0C0
F8E7E0
FFFFE0
7FFFC0
0FFC00
01F000
03F800
07BC00
0F3C00
1E1E00
1E0F00
1C0700
080400
ENDCHAR
STARTCHAR 002B
ENCODING 43
SWIDTH 600 0
DWIDTH 24 0
BBX 18 19 3 5
BITMAP
01E000
01E000
01E000
01E000
01E000
01E000
01E000
01E000
FFFFC0
FFFFC0
FFFFC0
FFFFC0
01E000
01E000
01E000
01E000
01E000
01E000
01E000
ENDCHAR
STARTCHAR 002C
ENCODING 44
SWIDTH 225 0
DWIDTH 9 0
BBX 6 10 2 -3
BITMAP
7C
FC
FC
FC
F8
F8
F8
F8
F0
F0
ENDCHAR
STARTCHAR 002D
ENCODING 45
SWIDTH 400 0
DWIDTH 16 0
BBX 14 5 1 10
BITMAP
FFFC
FFFC
FFFC
FFFC
FFFC
ENDCHAR
STARTCHAR 002E
ENCODING 46
SWIDTH 250 0
DWIDTH 10 0
BBX 6 6 2 0
BITMAP
FC
FC
FC
FC
FC
FC
ENDCHAR
STARTCHAR 002F
ENCODING 47
SWIDTH 500 0
DWIDTH 20 0
BBX 20 33 0 -4
BITMAP
0001F0
0001F0
0003E0
0003E0
0007C0
0007C0
000F80
000F80
000F00
001F00
001E00
003E00
003C00
007C00
007C00
00F800
00F800
01F000
01F000
03E000
03E000
07C000
07C000
078000
0F8000
0F0000
1F0000
1F0000
3E0000
3E0000
7C0000
7C0000
F80000
ENDCHAR
STARTCHAR 0030
ENCODING 48
SWIDTH 900 0
DWIDTH 36 0
BBX 32 27 2 0
BITMAP
07FFFFE0
1FFFFFF8
3FFFFFFC
7FFFFFFE
7FFFFFFE
FF0000FF
FC00007F
FC00003F
FC00003F
FC00003F
FC00003F
FC00003F
FC00003F
FC00003F
FC00003F
FC00003F
FC00003F
FC00003F
FC00003F
FC00003F
FC00007F
FE0000FF
7FFFFFFE
7FFFFFFE
3FFFFFFC
1FFFFFF8
07FFFFE0
ENDCHAR
STARTCHAR 0031
ENCODING 49
SWIDTH 250 0
DWIDTH 10 0
BBX 6 27 2 0
BITMAP
FC
FC
FC
FC
FC
FC
FC
FC
FC
FC
FC
FC
FC
FC
FC
FC
FC
FC
FC
FC
FC
FC
FC
FC
FC
FC
FC
ENDCHAR
STARTCHAR 0032
ENCODING 50
SWIDTH 925 0
DWIDTH 37 0
BBX 33 27 2 0
BITMAP
0003FFF800
0003FFFE00
0003FFFF00
0003FFFF00
0003FFFF80
0000003F80
0000001F80
0000001F80
0000001F80
0000001F80
0000003F80
0FFFFFFF80
3FFFFFFF00
7FFFFFFF00
7FFFFFFC00
FE00000000
FC00000000
FC00000000
FC00000000
FC00000000
FC00000000
FC00000000
FFFFFFFF80
FFFFFFFF80
FFFFFFFF80
FFFFFFFF80
FFFFFFFF80
ENDCHAR
STARTCHAR 0033
ENCODING 51
SWIDTH 900 0
DWIDTH 36 0
BBX 32 27 2 0
BITMAP
0003FFE0
0003FFFC
0003FFFE
0003FFFE
0003FFFF
0000007F
0000003F
0000003F
0000003F
0000003F
0000007E
FFFFFFFE
FFFFFFFC
FFFFFFFC
FFFFFFFE
0000003F
0000003F
0000003F
0000003F
0000003F
0000003F
0000003F
FFFFFFFF
FFFFFFFF
FFFFFFFE
FFFFFFFC
FFFFFFF0
ENDCHAR
STARTCHAR 0034
ENCODING 52
SWIDTH 975 0
DWIDTH 39 0
BBX 34 27 2 0
BITMAP
FC00000FC0
FC00000FC0
FC00000FC0
FC00000FC0
FC00000FC0
FC00000FC0
FC00000FC0
FC00000FC0
FC00000FC0
FC00000FC0
FC00000FC0
FC00000FC0
FC00000FC0
FC00000FC0
FFFFFFFFC0
FFFFFFFFC0
FFFFFFFFC0
FFFFFFFFC0
FFFFFFFFC0
0000000FC0
0000000FC0
0000000FC0
0000000FC0
0000000FC0
0000000FC0
0000000FC0
0000000FC0
ENDCHAR
STARTCHAR 0035
ENCODING 53
SWIDTH 950 0
DWIDTH 38 0
BBX 34 27 2 0
BITMAP
FFFFF00000
FFFFF00000
FFFFF00000
FFFFF00000
FFFFF00000
FC00000000
FC00000000
FC00000000
FC00000000
FC00000000
FFFFFFFC00
FFFFFFFF00
FFFFFFFF80
FFFFFFFF80
FFFFFFFFC0
0000001FC0
0000000FC0
0000000FC0
0000000FC0
0000000FC0
0000000FC0
0000001FC0
FFFFFFFFC0
FFFFFFFF80
FFFFFFFF80
FFFFFFFF00
FFFFFFFC00
ENDCHAR
STARTCHAR 0036
ENCODING 54
SWIDTH 950 0
DWIDTH 38 0
BBX 34 27 2 0
BITMAP
07FFE00000
1FFFE00000
3FFFE00000
7FFFE00000
7FFFE00000
FF00000000
FE00000000
FC00000000
FC00000000
FC00000000
FC00000000
FFFFFFFC00
FFFFFFFF00
FFFFFFFF80
FFFFFFFF80
FC00001FC0
FC00000FC0
FC00000FC0
FC00000FC0
FC00000FC0
FC00000FC0
FF00001FC0
7FFFFFFFC0
7FFFFFFF80
3FFFFFFF80
1FFFFFFF00
07FFFFFC00
ENDCHAR
STARTCHAR 0037
ENCODING 55
SWIDTH 900 0
DWIDTH 36 0
BBX 34 27 1 0
BITMAP
FFFFFFFF00
FFFFFFFF80
FFFFFFFFC0
FFFFFFFFC0
FFFFFFFF80
0000007F80
000000FF00
000001FE00
000001FC00
000003F800
000007F000
00000FF000
00001FE000
00003FC000
00007F8000
00007F0000
0000FE0000
0001FE0000
0003FC0000
0007F80000
000FF00000
000FE00000
001FE00000
003FC00000
007F800000
00FF000000
01FE000000
ENDCHAR
STARTCHAR 0038
ENCODING 56
SWIDTH 900 0
DWIDTH 36 0
BBX 32 27 2 0
BITMAP
0FFFFFE0
3FFFFFFC
7FFFFFFC
FFFFFFFE
FFFFFFFE
FE00007E
FC00003E
FC00003E
FC00003E
FC00003E
FE00007E
7FFFFFFE
3FFFFFF8
3FFFFFFC
7FFFFFFE
FE00007F
FC00003F
FC00003F
FC00003F
FC00003F
FC00003F
FE00007F
FFFFFFFF
FFFFFFFF
7FFFFFFE
3FFFFFFC
0FFFFFF0
ENDCHAR
STARTCHAR 0039
ENCODING 57
SWIDTH 925 0
DWIDTH 37 0
BBX 33 27 2 0
BITMAP
0FFFFFF000
3FFFFFFC00
7FFFFFFE00
7FFFFFFF00
FFFFFFFF00
FE00003F80
FC00001F80
FC00001F80
FC00001F80
FC00001F80
FC00001F80
FE00001F80
7FFFFFFF80
7FFFFFFF80
3FFFFFFF80
0FFFFFFF80
0000001F80
0000001F80
0000001F80
0000001F80
0000003F80
0000007F80
0003FFFF00
0003FFFF00
0003FFFE00
0003FFFC00
0003FFF000
ENDCHAR
STARTCHAR 003A
ENCODING 58
SWIDTH 250 0
DWIDTH 10 0
BBX 6 21 2 0
BITMAP
FC
FC
FC
FC
FC
FC
00
00
00
00
00
00
00
00
00
FC
FC
FC
FC
FC
FC
ENDCHAR
STARTCHAR 003B
ENCODING 59
SWIDTH 250 0
DWIDTH 10 0
BBX 7 24 1 -3
BITMAP
7E
7E
7E
7E
7E
7E
00
00
00
00
00
00
00
00
7E
7E
7C
7C
7C
FC
F8
F8
F8
F8
ENDCHAR
STARTCHAR 003C
ENCODING 60
SWIDTH 600 0
DWIDTH 24 0
BBX 19 24 2 1
BITMAP
000020
0000E0
0001E0
0007E0
001FE0
007F80
01FF00
03FC00
0FF000
3FC000
7F0000
FC0000
FC0000
7F0000
3FC000
0FF000
03FC00
01FF00
007F80
001FE0
0007E0
0001E0
000060
000020
ENDCHAR
STARTCHAR 003D
ENCODING 61
SWIDTH 600 0
DWIDTH 24 0
BBX 19 14 2 7
BITMAP
FFFFE0
FFFFE0
FFFFE0
FFFFE0
000000
000000
000000
000000
000000
000000
FFFFE0
FFFFE0
FFFFE0
FFFFE0
ENDCHAR
STARTCHAR 003E
ENCODING 62
SWIDTH 600 0
DWIDTH 24 0
BBX 19 24 2 1
BITMAP
800000
E00000
F80000
FE0000
FF8000
3FC000
0FF000
03FC00
00FF00
003FC0
000FE0
0007E0
0007E0
001FE0
003FC0
00FF00
03FC00
0FF000
3FC000
FF8000
FE0000
F80000
E00000
800000
ENDCHAR
STARTCHAR 003F
ENCODING 63
SWIDTH 600 0
DWIDTH 24 0
BBX 21 27 2 0
BITMAP
03FF80
03FFE0
03FFF0
03FFF0
03FFF8
0003F8
0001F8
0001F8
0001F8
0001F8
0001F8
0003F8
1FFFF8
7FFFF0
7FFFE0
FFFF80
FC0000
FC0000
FC0000
000000
000000
FC0000
FC0000
FC0000
FC0000
FC0000
FC0000
ENDCHAR
STARTCHAR 0040
ENCODING 64
SWIDTH 725 0
DWIDTH 29 0
BBX 24 33 3 -7
BITMAP
1FFFF8
7FFFFE
7FFFFE
FFFFFF
F8001F
F0000F
F0000F
F0000F
F0000F
F01FFF
F07FFF
F07FFF
F0FFFF
F0FC0F
F0F80F
F0F80F
F0F80F
F0F80F
F0F80F
F0FC1F
F0FFFF
F07FFE
F07FFE
F01FF8
F00000
F00000
F00000
F00000
F80000
FFF800
7FF800
7FF800
1FF800
ENDCHAR
STARTCHAR 0041
ENCODING 65
SWIDTH 1025 0
DWIDTH 41 0
BBX 40 28 1 0
BITMAP
00007C0000
0000FE0000
0001FF0000
0001FF8000
0003FF8000
0007FFC000
0007EFE000
000FEFE000
000FC7F000
001FC3F800
003F83F800
003F01FC00
007F01FC00
00FE00FE00
00FE007F00
01FC007F00
03F8003F80
03FFFFFFC0
07FFFFFFC0
07FFFFFFE0
0FFFFFFFE0
1FFFFFFFF0
1FC00007F8
3F800003F8
7F800001FC
7F000001FE
FE000000FE
FE0000007F
ENDCHAR
STARTCHAR 0042
ENCODING 66
SWIDTH 925 0
DWIDTH 37 0
BBX 33 27 2 0
BITMAP
FFFFFFF000
FFFFFFFE00
FFFFFFFF00
FFFFFFFF00
FFFFFFFF00
FC00007F00
FC00003F00
FC00003F00
FC00003F00
FC00003F00
FC00007F00
FFFFFFFF00
FFFFFFFC00
FFFFFFFE00
FFFFFFFF00
FC00003F80
FC00001F80
FC00001F80
FC00001F80
FC00001F80
FC00001F80
FC00003F80
FFFFFFFF80
FFFFFFFF80
FFFFFFFF00
FFFFFFFE00
FFFFFFF800
ENDCHAR
STARTCHAR 0043
ENCODING 67
SWIDTH 825 0
DWIDTH 33 0
BBX 29 27 2 0
BITMAP
07FFFFF8
1FFFFFF8
3FFFFFF8
7FFFFFF8
7FFFFFF8
FF000000
FE000000
FC000000
FC000000
FC000000
FC000000
FC000000
FC000000
FC000000
FC000000
FC000000
FC000000
FC000000
FC000000
FC000000
FC000000
FE000000
7FFFFFF8
7FFFFFF8
3FFFFFF8
1FFFFFF8
07FFFFF8
ENDCHAR
STARTCHAR 0044
ENCODING 68
SWIDTH 900 0
DWIDTH 36 0
BBX 32 27 2 0
BITMAP
FFFFFFE0
FFFFFFF8
FFFFFFFC
FFFFFFFE
FFFFFFFE
FC0000FF
FC00007F
FC00003F
FC00003F
FC00003F
FC00003F
FC00003F
FC00003F
FC00003F
FC00003F
FC00003F
FC00003F
FC00003F
FC00003F
FC00003F
FC00007F
FC0000FF
FFFFFFFE
FFFFFFFE
FFFFFFFC
FFFFFFF8
FFFFFFE0
ENDCHAR
STARTCHAR 0045
ENCODING 69
SWIDTH 825 0
DWIDTH 33 0
BBX 29 27 2 0
BITMAP
07FF8000
1FFF8000
3FFF8000
7FFF8000
7FFF8000
FE000000
FC000000
FC000000
FC000000
FC000000
FC000000
FFFFFFF8
FFFFFFF8
FFFFFFF8
FFFFFFF8
FFFFFFF8
FC000000
FC000000
FC000000
FC000000
FC000000
FE000000
7FFFFFF8
7FFFFFF8
3FFFFFF8
1FFFFFF8
07FFFFF8
ENDCHAR
STARTCHAR 0046
ENCODING 70
SWIDTH 800 0
DWIDTH 32 0
BBX 29 27 2 0
BITMAP
07FF8000
1FFF8000
3FFF8000
7FFF8000
7FFF8000
FF000000
FE000000
FC000000
FC000000
FC000000
FC000000
FC000000
FFFFFFF8
FFFFFFF8
FFFFFFF8
FFFFFFF8
FFFFFFF8
FC000000
FC000000
FC000000
FC000000
FC000000
FC000000
FC000000
FC000000
FC000000
FC000000
ENDCHAR
STARTCHAR 0047
ENCODING 71
SWIDTH 900 0
DWIDTH 36 0
BBX 32 27 2 0
BITMAP
07FF8000
1FFF8000
3FFF8000
7FFF8000
7FFF8000
FF000000
FE000000
FC000000
FC000000
FC000000
FC000000
FC00003F
FC00003F
FC00003F
FC00003F
FC00003F
FC00003F
FC00003F
FC00003F
FC00003F
FC00007F
FF0000FF
7FFFFFFE
7FFFFFFE
3FFFFFFC
1FFFFFF8
07FFFFE0
ENDCHAR
STARTCHAR 0048
ENCODING 72
SWIDTH 900 0
DWIDTH 36 0
BBX 32 27 2 0
BITMAP
FC00003F
FC00003F
FC00003F
FC00003F
FC00003F
FC00003F
FC00003F
FC00003F
FC00003F
FC00003F
FC00003F
FFFFFFFF
FFFFFFFF
FFFFFFFF
FFFFFFFF
FFFFFFFF
FC00003F
FC00003F
FC00003F
FC00003F
FC00003F
FC00003F
FC00003F
FC00003F
FC00003F
FC00003F
FC00003F
ENDCHAR
STARTCHAR 0049
ENCODING 73
SWIDTH 250 0
DWIDTH 10 0
BBX 6 27 2 0
BITMAP
FC
FC
FC
FC
FC
FC
FC
FC
FC
FC
FC
FC
FC
FC
FC
FC
FC
FC
FC
FC
FC
FC
FC
FC
FC
FC
FC
ENDCHAR
STARTCHAR 004A
ENCODING 74
SWIDTH 500 0
DWIDTH 20 0
BBX 17 27 1 0
BITMAP
001F80
001F80
001F80
001F80
001F80
001F80
001F80
001F80
001F80
001F80
001F80
001F80
001F80
001F80
001F80
001F80
001F80
001F80
001F80
001F80
003F80
007F80
FFFF00
FFFF00
FFFE00
FFFC00
FFF000
ENDCHAR
STARTCHAR 004B
ENCODING 75
SWIDTH 800 0
DWIDTH 32 0
BBX 29 27 2 0
BITMAP
FC000FF0
FC001FE0
FC003FC0
FC007F80
FC00FF00
FC01FE00
FC07F800
FC0FF000
FC1FE000
FC3FC000
FC7F8000
FCFE0000
FFFC0000
FFFC0000
FDFE0000
FCFF0000
FC7F8000
FC3FE000
FC1FF000
FC07F800
FC03FC00
FC01FE00
FC00FF00
FC007F80
FC003FE0
FC001FF0
FC0007F8
ENDCHAR
STARTCHAR 004C
ENCODING 76
SWIDTH 750 0
DWIDTH 30 0
BBX 27 27 2 0
BITMAP
FC000000
FC000000
FC000000
FC000000
FC000000
FC000000
FC000000
FC000000
FC000000
FC000000
FC000000
FC000000
FC000000
FC000000
FC000000
FC000000
FC000000
FC000000
FC000000
FC000000
FE000000
FF000000
7FFFFFE0
7FFFFFE0
3FFFFFE0
1FFFFFE0
07FFFFE0
ENDCHAR
STARTCHAR 004D
ENCODING 77
SWIDTH 1200 0
DWIDTH 48 0
BBX 44 29 2 -1
BITMAP
7800000001E0
FC00000003F0
FE00000007F0
FF0000000FF0
FF8000001FF0
FF8000001FF0
FFC000003FF0
FFE000007FF0
FFF00000FFF0
FFF00000FFF0
FFF80001FFF0
FDFC0003FBF0
FCFE0007F3F0
FC7F0007E3F0
FC7F000FE3F0
FC3F801FC3F0
FC1FC03F83F0
FC0FE03F03F0
FC0FE07F03F0
FC07F0FE03F0
FC03F9FC03F0
FC01FFF803F0
FC01FFF803F0
FC00FFF003F0
FC007FE003F0
FC003FC003F0
FC003FC003F0
FC001F8003F0
00000F000000
ENDCHAR
STARTCHAR 004E
ENCODING 78
SWIDTH 900 0
DWIDTH 36 0
BBX 32 29 2 -1
BITMAP
78000000
FE00003F
FF00003F
FF80003F
FFC0003F
FFE0003F
FFF0003F
FFF8003F
FFFC003F
FDFE003F
FCFF003F
FC7F803F
FC3FC03F
FC1FE03F
FC0FF03F
FC07F83F
FC03FC3F
FC01FE3F
FC00FF3F
FC007FBF
FC003FFF
FC001FFF
FC000FFF
FC0007FF
FC0003FF
FC0001FF
FC0000FF
FC00003F
0000001E
ENDCHAR
STARTCHAR 004F
ENCODING 79
SWIDTH 875 0
DWIDTH 35 0
BBX 31 27 2 0
BITMAP
07FFFFC0
1FFFFFF0
3FFFFFF8
7FFFFFFC
7FFFFFFC
FE0001FE
FC0000FE
FC00007E
FC00007E
FC00007E
FC00007E
FC00007E
FC00007E
FC00007E
FC00007E
FC00007E
FC00007E
FC00007E
FC00007E
FC00007E
FC0000FE
FE0001FE
7FFFFFFC
7FFFFFFC
3FFFFFF8
1FFFFFF0
07FFFFC0
ENDCHAR
STARTCHAR 0050
ENCODING 80
SWIDTH 875 0
DWIDTH 35 0
BBX 32 27 2 0
BITMAP
FFFFFFE0
FFFFFFF8
FFFFFFFC
FFFFFFFE
FFFFFFFE
FC00007F
FC00003F
FC00003F
FC00003F
FC00003F
FC00003F
FC00003F
FC00003F
FC00007F
FFFFFFFF
FFFFFFFE
FFFFFFFE
FFFFFFFC
FFFFFFE0
FC000000
FC000000
FC000000
FC000000
FC000000
FC000000
FC000000
FC000000
ENDCHAR
STARTCHAR 0051
ENCODING 81
SWIDTH 875 0
DWIDTH 35 0
BBX 33 31 2 -4
BITMAP
07FFFFC000
1FFFFFF000
3FFFFFF800
7FFFFFFC00
7FFFFFFC00
FE0001FE00
FC0000FE00
FC00007E00
FC00007E00
FC00007E00
FC00007E00
FC00007E00
FC00007E00
FC00007E00
FC00007E00
FC00007E00
FC00007E00
FC00007E00
FC00007E00
FC00007E00
FC0000FE00
FE0001FE00
7FFFFFFC00
7FFFFFFC00
3FFFFFF800
1FFFFFF000
07FFFFF800
000003FC00
000001FE00
000000FF00
0000007F80
ENDCHAR
STARTCHAR 0052
ENCODING 82
SWIDTH 900 0
DWIDTH 36 0
BBX 32 27 2 0
BITMAP
FFFFFFE0
FFFFFFF8
FFFFFFFE
FFFFFFFE
FFFFFFFF
FC00007F
FC00003F
FC00003F
FC00003F
FC00003F
FC00003F
FC00003F
FC00007F
FFFFFFFE
FFFFFFFE
FFFFFFF8
FFFFFFE0
FCFF8000
FC7FE000
FC1FF000
FC0FFC00
FC03FF00
FC01FF80
FC007FE0
FC003FF0
FC000FFC
FC0007FF
ENDCHAR
STARTCHAR 0053
ENCODING 83
SWIDTH 800 0
DWIDTH 32 0
BBX 29 27 2 0
BITMAP
0FFF8000
3FFF8000
7FFF8000
7FFF8000
FFFF8000
FE000000
FC000000
FC000000
FC000000
FC000000
FE000000
FFFFFF80
FFFFFFE0
7FFFFFF0
3FFFFFF0
0FFFFFF8
000003F8
000001F8
000001F8
000001F8
000001F8
000003F8
FFFFFFF8
FFFFFFF0
FFFFFFF0
FFFFFFE0
FFFFFF80
ENDCHAR
STARTCHAR 0054
ENCODING 84
SWIDTH 775 0
DWIDTH 31 0
BBX 28 27 1 0
BITMAP
FFFFFFF0
FFFFFFF0
FFFFFFF0
FFFFFFF0
FFFFFFF0
001F8000
001F8000
001F8000
001F8000
001F8000
001F8000
001F8000
001F8000
001F8000
001F8000
001F8000
001F8000
001F8000
001F8000
001F8000
001F8000
001F8000
001F8000
001F8000
001F8000
001F8000
001F8000
ENDCHAR
STARTCHAR 0055
ENCODING 85
SWIDTH 875 0
DWIDTH 35 0
BBX 31 27 2 0
BITMAP
FC00007E
FC00007E
FC00007E
FC00007E
FC00007E
FC00007E
FC00007E
FC00007E
FC00007E
FC00007E
FC00007E
FC00007E
FC00007E
FC00007E
FC00007E
FC00007E
FC00007E
FC00007E
FC00007E
FC00007E
FE0000FE
FF0001FE
7FFFFFFC
7FFFFFFC
3FFFFFF8
1FFFFFF0
07FFFFC0
ENDCHAR
STARTCHAR 0056
ENCODING 86
SWIDTH 1025 0
DWIDTH 41 0
BBX 39 28 1 -1
BITMAP
FE000000FE
FF000000FE
7F000001FC
7F800003FC
3F800003F8
1FC00007F0
1FE0000FF0
0FE0000FE0
07F0001FC0
07F0001FC0
03F8003F80
03FC007F80
01FC007F00
00FE00FE00
00FE00FE00
007F01FC00
007F83F800
003F83F800
001FC7F000
001FE7F000
000FEFE000
0007FFC000
0007FFC000
0003FF8000
0003FF0000
0001FF0000
0000FE0000
00007C0000
ENDCHAR
STARTCHAR 0057
ENCODING 87
SWIDTH 1350 0
DWIDTH 54 0
BBX 52 29 1 -1
BITMAP
000000F0000000
FC0001F80007F0
FE0003FC0007F0
FE0003FC0007E0
7F0007FC000FE0
7F0007FE000FC0
3F000FFE001FC0
3F800FFF001F80
1F800FFF001F80
1FC01FBF803F00
1FC01F9F803F00
0FC03F1F807F00
0FE03F0FC07E00
07E07F0FC0FE00
07F07E07E0FC00
07F0FE07E0FC00
03F0FC07F1F800
03F8FC03F1F800
01F9F803F3F800
01FDF801FBF000
00FFF001FBF000
00FFF000FFE000
00FFE000FFE000
007FE0007FC000
007FC0007FC000
003FC0007FC000
003F80003F8000
001F80003F8000
000F00000E0000
ENDCHAR
STARTCHAR 0058
ENCODING 88
SWIDTH 1000 0
DWIDTH 40 0
BBX 39 27 1 0
BITMAP
7F800003FC
3FE00007F8
1FF0001FF0
0FF8003FE0
07FC007F80
03FE00FF00
00FF01FE00
007F83FC00
003FC7F800
001FEFF000
000FFFE000
0007FF8000
0003FF0000
0003FF0000
0007FF8000
000FFFE000
001FFFF000
003FCFF800
007F87FC00
00FF03FE00
01FE01FF00
07FC00FF80
0FF8007FC0
1FF0003FE0
3FE0000FF0
7F800007F8
FF000003FE
ENDCHAR
STARTCHAR 0059
ENCODING 89
SWIDTH 975 0
DWIDTH 39 0
BBX 37 27 1 0
BITMAP
FF000007F8
7F80000FE0
3FC0003FC0
1FE0007F80
0FF000FF00
07F801FE00
03FE03FC00
01FF07F800
007F8FF000
003FFFC000
001FFF8000
000FFF0000
0007FE0000
0003FC0000
0001F80000
0001F80000
0001F80000
0001F80000
0001F80000
0001F80000
0001F80000
0001F80000
0001F80000
0001F80000
0001F80000
0001F80000
0001F80000
ENDCHAR
STARTCHAR 005A
ENCODING 90
SWIDTH 850 0
DWIDTH 34 0
BBX 31 27 1 0
BITMAP
7FFFFFF8
7FFFFFFC
7FFFFFFC
7FFFFFFC
7FFFFFFC
000007F8
00001FF0
00003FE0
00007FC0
0000FF80
0001FE00
0003FC00
000FF800
001FF000
003FE000
007FC000
00FF8000
01FE0000
07FC0000
0FF80000
1FF00000
3FE00000
7FFFFFFE
7FFFFFFE
FFFFFFFE
7FFFFFFE
7FFFFFFE
ENDCHAR
STARTCHAR 005B
ENCODING 91
SWIDTH 375 0
DWIDTH 15 0
BBX 10 44 4 -9
BITMAP
FFC0
FFC0
FFC0
FFC0
F000
F000
F000
F000
F000
F000
F000
F000
F000
F000
F000
F000
F000
F000
F000
F000
F000
F000
F000
F000
F000
F000
F000
F000
F000
F000
F000
F000
F000
F000
F000
F000
F000
F000
F000
F000
FFC0
FFC0
FFC0
FFC0
ENDCHAR
STARTCHAR 005C
ENCODING 92
SWIDTH 500 0
DWIDTH 20 0
BBX 20 33 0 -4
BITMAP
F80000
7C0000
7C0000
3E0000
3E0000
1E0000
1F0000
0F0000
0F8000
078000
07C000
07C000
03E000
03E000
01F000
01F000
00F800
00F800
007C00
007C00
003C00
003E00
001E00
001F00
001F00
000F80
000F80
0007C0
0007C0
0003E0
0003E0
0001F0
0001F0
ENDCHAR
STARTCHAR 005D
ENCODING 93
SWIDTH 375 0
DWIDTH 15 0
BBX 10 44 0 -9
BITMAP
FFC0
FFC0
FFC0
FFC0
03C0
03C0
03C0
03C0
03C0
03C0
03C0
03C0
03C0
03C0
03C0
03C0
03C0
03C0
03C0
03C0
03C0
03C0
03C0
03C0
03C0
03C0
03C0
03C0
03C0
03C0
03C0
03C0
03C0
03C0
03C0
03C0
03C0
03C0
03C0
03C0
FFC0
FFC0
FFC0
FFC0
ENDCHAR
STARTCHAR 005E
ENCODING 94
SWIDTH 625 0
DWIDTH 25 0
BBX 22 19 1 9
BITMAP
003800
007C00
00FC00
00FE00
01FE00
01FF00
03EF00
03EF80
07C780
07C7C0
0F83C0
0F83E0
1F01E0
1F01F0
3E00F0
3E00F8
7C0078
7C007C
F8003C
ENDCHAR
STARTCHAR 005F
ENCODING 95
SWIDTH 675 0
DWIDTH 27 0
BBX 27 4 0 -6
BITMAP
FFFFFFE0
FFFFFFE0
FFFFFFE0
FFFFFFE0
ENDCHAR
STARTCHAR 0060
ENCODING 96
SWIDTH 400 0
DWIDTH 16 0
BBX 10 8 3 25
BITMAP
FC00
7E00
7E00
3F00
1F00
0F80
07C0
07C0
ENDCHAR
STARTCHAR 0061
ENCODING 97
SWIDTH 825 0
DWIDTH 33 0
BBX 29 22 2 0
BITMAP
0007FF00
0007FFC0
0007FFE0
0007FFF0
000003F0
000001F8
000001F8
000001F8
1FFFFFF8
3FFFFFF8
7FFFFFF8
FFFFFFF8
FE0001F8
FC0001F8
FC0001F8
FC0001F8
FC0001F8
FE0003F8
FFFFFFF0
7FFFFFF0
3FFFFFE0
0FFFFF00
ENDCHAR
STARTCHAR 0062
ENCODING 98
SWIDTH 825 0
DWIDTH 33 0
BBX 29 29 2 0
BITMAP
FC000000
FC000000
FC000000
FC000000
FC000000
FC000000
FC000000
FFFFFE00
FFFFFFC0
FFFFFFE0
FFFFFFF0
FFFFFFF0
FC0007F8
FC0003F8
FC0001F8
FC0001F8
FC0001F8
FC0001F8
FC0001F8
FC0001F8
FC0001F8
FC0001F8
FE0003F8
FF0007F8
7FFFFFF0
7FFFFFF0
3FFFFFE0
1FFFFFC0
07FFFE00
ENDCHAR
STARTCHAR 0063
ENCODING 99
SWIDTH 750 0
DWIDTH 30 0
BBX 26 22 2 0
BITMAP
03FFFFC0
1FFFFFC0
3FFFFFC0
7FFFFFC0
7FFFFFC0
FF000000
FE000000
FC000000
FC000000
FC000000
FC000000
FC000000
FC000000
FC000000
FC000000
FE000000
FF000000
7FFFFFC0
7FFFFFC0
3FFFFFC0
1FFFFFC0
07FFFFC0
ENDCHAR
STARTCHAR 0064
ENCODING 100
SWIDTH 825 0
DWIDTH 33 0
BBX 29 29 2 0
BITMAP
000001F8
000001F8
000001F8
000001F8
000001F8
000001F8
000001F8
03FFFFF8
1FFFFFF8
3FFFFFF8
7FFFFFF8
7FFFFFF8
FF0001F8
FE0001F8
FC0001F8
FC0001F8
FC0001F8
FC0001F8
FC0001F8
FC0001F8
FC0001F8
FC0001F8
FC0003F8
FF0007F8
7FFFFFF0
7FFFFFF0
3FFFFFE0
1FFFFFC0
03FFFF00
ENDCHAR
STARTCHAR 0065
ENCODING 101
SWIDTH 800 0
DWIDTH 32 0
BBX 28 21 2 0
BITMAP
07FFFF00
3FFFFFC0
7FFFFFE0
7FFFFFF0
FE0003F0
FC0003F0
FC0003F0
FC0003F0
FFFFFFF0
FFFFFFF0
FFFFFFF0
FFFFFFF0
FC000000
FC000000
FC000000
FC000000
7E000000
7FFF8000
3FFF8000
1FFF8000
07FF8000
ENDCHAR
STARTCHAR 0066
ENCODING 102
SWIDTH 425 0
DWIDTH 17 0
BBX 14 29 2 0
BITMAP
1FFC
7FFC
7FFC
FFFC
FC00
FC00
FC00
FFFC
FFFC
FFFC
FFFC
FFFC
FC00
FC00
FC00
FC00
FC00
FC00
FC00
FC00
FC00
FC00
FC00
FC00
FC00
FC00
FC00
FC00
FC00
ENDCHAR
STARTCHAR 0067
ENCODING 103
SWIDTH 825 0
DWIDTH 33 0
BBX 29 29 2 -7
BITMAP
07FFFF00
3FFFFFC0
7FFFFFE0
7FFFFFF0
FFFFFFF0
FE0003F8
FC0001F8
FC0001F8
FC0001F8
FC0001F8
FC0001F8
FC0001F8
FC0001F8
FC0001F8
FE0001F8
7FFFFFF8
7FFFFFF8
3FFFFFF8
0FFFFFF8
000001F8
000001F8
000001F8
000001F8
000003F8
000FFFF8
000FFFF0
000FFFF0
000FFFE0
000FFF80
ENDCHAR
STARTCHAR 0068
ENCODING 104
SWIDTH 825 0
DWIDTH 33 0
BBX 29 29 2 0
BITMAP
FC000000
FC000000
FC000000
FC000000
FC000000
FC000000
FC000000
FFFFFE00
FFFFFFC0
FFFFFFE0
FFFFFFF0
FFFFFFF0
FC0007F8
FC0003F8
FC0001F8
FC0001F8
FC0001F8
FC0001F8
FC0001F8
FC0001F8
FC0001F8
FC0001F8
FC0001F8
FC0001F8
FC0001F8
FC0001F8
FC0001F8
FC0001F8
FC0001F8
ENDCHAR
STARTCHAR 0069
ENCODING 105
SWIDTH 250 0
DWIDTH 10 0
BBX 6 29 2 0
BITMAP
FC
FC
FC
FC
FC
FC
00
00
FC
FC
FC
FC
FC
FC
FC
FC
FC
FC
FC
FC
FC
FC
FC
FC
FC
FC
FC
FC
FC
ENDCHAR
STARTCHAR 006A
ENCODING 106
SWIDTH 275 0
DWIDTH 11 0
BBX 11 35 -2 -6
BITMAP
07E0
07E0
07E0
07E0
07E0
07E0
0000
07E0
07E0
07E0
07E0
07E0
07E0
07E0
07E0
07E0
07E0
07E0
07E0
07E0
07E0
07E0
07E0
07E0
07E0
07E0
07E0
07E0
07E0
0FE0
FFC0
FFC0
FF80
FF00
FC00
ENDCHAR
STARTCHAR 006B
ENCODING 107
SWIDTH 725 0
DWIDTH 29 0
BBX 26 29 2 0
BITMAP
FC000000
FC000000
FC000000
FC000000
FC000000
FC000000
FC000000
FC003FC0
FC007F00
FC00FE00
FC03FC00
FC07F800
FC0FE000
FC1FC000
FC7F8000
FCFF0000
FDFC0000
FFF80000
FFFC0000
FDFE0000
FCFF0000
FC7F8000
FC1FE000
FC0FF000
FC07F800
FC03FC00
FC00FF00
FC007F80
FC003FC0
ENDCHAR
STARTCHAR 006C
ENCODING 108
SWIDTH 250 0
DWIDTH 10 0
BBX 6 29 2 0
BITMAP
FC
FC
FC
FC
FC
FC
FC
FC
FC
FC
FC
FC
FC
FC
FC
FC
FC
FC
FC
FC
FC
FC
FC
FC
FC
FC
FC
FC
FC
ENDCHAR
STARTCHAR 006D
ENCODING 109
SWIDTH 1100 0
DWIDTH 44 0
BBX 40 22 2 0
BITMAP
0FFF80FFF0
3FFFE3FFFC
7FFFF7FFFE
7FFFF7FFFE
FFFFFFFFFF
FE007F007F
FC003E003F
FC003E003F
FC003E003F
FC003E003F
FC003E003F
FC003E003F
FC003E003F
FC003E003F
FC003E003F
FC003E003F
FC003E003F
FC003E003F
FC003E003F
FC003E003F
FC003E003F
FC003E003F
ENDCHAR
STARTCHAR 006E
ENCODING 110
SWIDTH 800 0
DWIDTH 32 0
BBX 28 22 2 0
BITMAP
07FFFE00
1FFFFF80
3FFFFFC0
7FFFFFE0
7FFFFFE0
FF000FF0
FE0007F0
FC0003F0
FC0003F0
FC0003F0
FC0003F0
FC0003F0
FC0003F0
FC0003F0
FC0003F0
FC0003F0
FC0003F0
FC0003F0
FC0003F0
FC0003F0
FC0003F0
FC0003F0
ENDCHAR
STARTCHAR 006F
ENCODING 111
SWIDTH 800 0
DWIDTH 32 0
BBX 28 22 2 0
BITMAP
07FFFE00
1FFFFF80
3FFFFFC0
7FFFFFE0
7FFFFFE0
FF000FF0
FE0007F0
FC0003F0
FC0003F0
FC0003F0
FC0003F0
FC0003F0
FC0003F0
FC0003F0
FC0003F0
FE0007F0
FF000FF0
7FFFFFE0
7FFFFFE0
3FFFFFC0
1FFFFF80
07FFFE00
ENDCHAR
STARTCHAR 0070
ENCODING 112
SWIDTH 825 0
DWIDTH 33 0
BBX 29 28 2 -6
BITMAP
07FFFE00
1FFFFFC0
3FFFFFE0
7FFFFFF0
7FFFFFF0
FF0007F8
FE0003F8
FC0001F8
FC0001F8
FC0001F8
FC0001F8
FC0001F8
FC0001F8
FC0001F8
FC0001F8
FC0003F8
FC0007F8
FFFFFFF0
FFFFFFF0
FFFFFFE0
FFFFFFC0
FFFFFE00
FC000000
FC000000
FC000000
FC000000
FC000000
FC000000
ENDCHAR
STARTCHAR 0071
ENCODING 113
SWIDTH 825 0
DWIDTH 33 0
BBX 29 28 2 -6
BITMAP
03FFFF00
1FFFFFC0
3FFFFFE0
7FFFFFF0
7FFFFFF0
FF0007F8
FE0003F8
FC0001F8
FC0001F8
FC0001F8
FC0001F8
FC0001F8
FC0001F8
FC0001F8
FC0001F8
FC0001F8
FF0001F8
7FFFFFF8
7FFFFFF8
3FFFFFF8
1FFFFFF8
03FFFFF8
000001F8
000001F8
000001F8
000001F8
000001F8
000001F8
ENDCHAR
STARTCHAR 0072
ENCODING 114
SWIDTH 450 0
DWIDTH 18 0
BBX 14 22 2 0
BITMAP
03FC
1FFC
3FFC
7FFC
7FFC
FF00
FE00
FC00
FC00
FC00
FC00
FC00
FC00
FC00
FC00
FC00
FC00
FC00
FC00
FC00
FC00
FC00
ENDCHAR
STARTCHAR 0073
ENCODING 115
SWIDTH 750 0
DWIDTH 30 0
BBX 26 21 2 0
BITMAP
3FFC0000
7FFC0000
FFFC0000
FFFC0000
FC000000
FC000000
FC000000
FC000000
FFFFFE00
FFFFFF80
7FFFFF80
1FFFFFC0
00000FC0
00000FC0
00000FC0
00000FC0
FFFFFFC0
FFFFFFC0
FFFFFFC0
FFFFFF80
FFFFFE00
ENDCHAR
STARTCHAR 0074
ENCODING 116
SWIDTH 425 0
DWIDTH 17 0
BBX 16 28 1 0
BITMAP
1F80
1F80
1F80
1F80
1F80
1F80
FFFF
FFFF
FFFF
FFFF
FFFF
1F80
1F80
1F80
1F80
1F80
1F80
1F80
1F80
1F80
1F80
1F80
1F80
1F80
1F80
1F80
1F80
1F80
ENDCHAR
STARTCHAR 0075
ENCODING 117
SWIDTH 800 0
DWIDTH 32 0
BBX 28 22 2 0
BITMAP
FC0003F0
FC0003F0
FC0003F0
FC0003F0
FC0003F0
FC0003F0
FC0003F0
FC0003F0
FC0003F0
FC0003F0
FC0003F0
FC0003F0
FC0003F0
FC0003F0
FC0003F0
FE0007F0
FF000FF0
7FFFFFE0
7FFFFFE0
3FFFFFC0
1FFFFF80
07FFFE00
ENDCHAR
STARTCHAR 0076
ENCODING 118
SWIDTH 925 0
DWIDTH 37 0
BBX 36 23 1 -1
BITMAP
FE000007F0
FE00000FE0
7F00001FC0
3F80001FC0
3F80003F80
1FC0007F00
0FE0007F00
0FE000FE00
07F001FC00
03F801FC00
01F803F800
01FC03F000
00FE07F000
007E0FE000
007F0FC000
003F9FC000
001FBF8000
001FFF0000
000FFF0000
0007FE0000
0007FC0000
0003F80000
0001F00000
ENDCHAR
STARTCHAR 0077
ENCODING 119
SWIDTH 1100 0
DWIDTH 44 0
BBX 42 23 1 -1
BITMAP
00001E000000
FC003F000FC0
FC003F800FC0
7E007F800F80
7E007F801F80
3F00FFC01F80
3F00FFC03F00
3F01FFE03F00
1F81FBE07E00
1F83F3F07E00
0FC3F3F0FC00
0FC7E1F8FC00
07C7E1F8F800
07E7C0F9F800
07EFC0FDF800
03FF807FF000
03FF807FF000
01FF003FE000
01FF003FE000
00FE001FC000
00FE001FC000
00FC000F8000
007800070000
ENDCHAR
STARTCHAR 0078
ENCODING 120
SWIDTH 750 0
DWIDTH 30 0
BBX 28 22 1 0
BITMAP
7F0007F0
3F800FE0
1FC01FC0
0FE03F80
07F07F00
03F0FE00
01F9FC00
01FFF800
00FFF000
007FE000
003FC000
003FE000
007FE000
00FFF000
01FFF800
03F9FC00
07F0FE00
0FE07F00
1FC03F80
3F801FC0
7F000FE0
FE0007F0
ENDCHAR
STARTCHAR 0079
ENCODING 121
SWIDTH 825 0
DWIDTH 33 0
BBX 29 29 2 -7
BITMAP
FC0001F8
FC0001F8
FC0001F8
FC0001F8
FC0001F8
FC0001F8
FC0001F8
FC0001F8
FC0001F8
FC0001F8
FC0001F8
FC0001F8
FC0001F8
FC0001F8
FE0001F8
FFFFFFF8
7FFFFFF8
3FFFFFF8
1FFFFFF8
07FFFFF8
000001F8
000001F8
000001F8
000003F8
000FFFF8
000FFFF0
000FFFF0
000FFFE0
000FFF80
ENDCHAR
STARTCHAR 007A
ENCODING 122
SWIDTH 700 0
DWIDTH 28 0
BBX 26 21 1 0
BITMAP
7FFFFF00
7FFFFF80
7FFFFF80
7FFFFF80
0000FF00
0001FE00
0003F800
0007F000
001FE000
003FC000
007F8000
00FF0000
01FC0000
07F80000
0FF00000
1FE00000
3FC00000
7FFFFFC0
FFFFFFC0
7FFFFFC0
7FFFFFC0
ENDCHAR
STARTCHAR 007B
ENCODING 123
SWIDTH 325 0
DWIDTH 13 0
BBX 12 44 1 -9
BITMAP
03F0
07F0
0FF0
0FF0
0F00
0F00
0F00
0F00
0F00
0F00
0F00
0F00
0F00
0F00
0F00
0F00
0F00
0F00
0F00
1F00
FF00
FE00
FE00
FF00
1F00
0F00
0F00
0F00
0F00
0F00
0F00
0F00
0F00
0F00
0F00
0F00
0F00
0F00
0F00
0F00
0FF0
0FF0
07F0
03F0
ENDCHAR
STARTCHAR 007C
ENCODING 124
SWIDTH 275 0
DWIDTH 11 0
BBX 4 43 3 -9
BITMAP
F0
F0
F0
F0
F0
F0
F0
F0
F0
F0
F0
F0
F0
F0
F0
F0
F0
F0
F0
F0
F0
F0
F0
F0
F0
F0
F0
F0
F0
F0
F0
F0
F0
F0
F0
F0
F0
F0
F0
F0
F0
F0
F0
ENDCHAR
STARTCHAR 007D
ENCODING 125
SWIDTH 325 0
DWIDTH 13 0
BBX 12 44 1 -9
BITMAP
FC00
FE00
FF00
FF00
0F00
0F00
0F00
0F00
0F00
0F00
0F00
0F00
0F00
0F00
0F00
0F00
0F00
0F00
0F00
0F80
0FF0
07F0
07F0
0FF0
0F80
0F00
0F00
0F00
0F00
0F00
0F00
0F00
0F00
0F00
0F00
0F00
0F00
0F00
0F00
0F00
FF00
FF00
FE00
FC00
ENDCHAR
STARTCHAR 007E
ENCODING 126
SWIDTH 600 0
DWIDTH 24 0
BBX 19 6 2 11
BITMAP
1F0000
FFC060
FFFBE0
FFFFE0
E07FE0
000F00
ENDCHAR
STARTCHAR 00A0
ENCODING 160
SWIDTH 400 0
DWIDTH 16 0
BBX 0 0 0 0
BITMAP
ENDCHAR
STARTCHAR 00A1
ENCODING 161
SWIDTH 275 0
DWIDTH 11 0
BBX 6 27 2 0
BITMAP
FC
FC
FC
FC
FC
FC
00
00
FC
FC
FC
FC
FC
FC
FC
FC
FC
FC
FC
FC
FC
FC
FC
FC
FC
FC
FC
ENDCHAR
STARTCHAR 00A2
ENCODING 162
SWIDTH 725 0
DWIDTH 29 0
BBX 26 27 2 0
BITMAP
00078000
00078000
00078000
07FFFF80
1FFFFF80
3FFFFF80
7FFFFF80
7FFFFF80
FE078000
FC078000
FC078000
FC078000
FC078000
FC078000
FC078000
FC078000
FC078000
FC078000
FE078000
7FFFFFC0
7FFFFFC0
3FFFFFC0
1FFFFFC0
07FFFFC0
00078000
00078000
00078000
ENDCHAR
STARTCHAR 00A3
ENCODING 163
SWIDTH 850 0
DWIDTH 34 0
BBX 31 27 1 0
BITMAP
007FF800
01FFF800
03FFF800
07FFF800
07FFF800
0FF00000
0FE00000
0FC00000
0FC00000
0FC00000
0FC00000
0FFFFFFE
0FFFFFFE
0FFFFFFE
0FFFFFFE
0FC00000
0FC00000
0FC00000
0FC00000
0FC00000
0FC00000
0FC00000
FFFFFFFE
FFFFFFFE
FFFFFFFE
FFFFFFFE
FFFFFFFE
ENDCHAR
STARTCHAR 00A4
ENCODING 164
SWIDTH 725 0
DWIDTH 29 0
BBX 27 27 1 0
BITMAP
20000080
700001C0
F80003E0
7C0007C0
3E000F80
1F001F00
0FFFFE00
07FFFC00
03FFF800
03FFF800
03C07800
03C07800
03C07800
03C07800
03C07800
03C07800
03C07800
03FFF800
03FFF800
07FFFC00
0FFFFE00
1F001F00
3E000F80
7C0007C0
F80003E0
700001C0
20000080
ENDCHAR
STARTCHAR 00A5
ENCODING 165
SWIDTH 875 0
DWIDTH 35 0
BBX 34 27 0 0
BITMAP
FF00001FC0
7F80003F80
3FC0007F00
1FE000FE00
0FF001FC00
03F803F800
01FC07F000
00FE1FC000
007F3F8000
003FFF0000
001FFE0000
000FFC0000
0007F80000
0FFFFFFC00
0FFFFFFC00
0FFFFFFC00
0FFFFFFC00
0003F00000
0003F00000
0FFFFFFC00
0FFFFFFC00
0FFFFFFC00
0FFFFFFC00
0003F00000
0003F00000
0003F00000
0003F00000
ENDCHAR
STARTCHAR 00A6
ENCODING 166
SWIDTH 275 0
DWIDTH 11 0
BBX 4 43 3 -9
BITMAP
F0
F0
F0
F0
F0
F0
F0
F0
F0
F0
F0
F0
F0
F0
F0
F0
F0
F0
00
00
00
00
00
00
00
F0
F0
F0
F0
F0
F0
F0
F0
F0
F0
F0
F0
F0
F0
F0
F0
F0
F0
ENDCHAR
STARTCHAR 00A7
ENCODING 167
SWIDTH 725 0
DWIDTH 29 0
BBX 24 36 2 -9
BITMAP
0FFF80
3FFF80
7FFF80
7FFF80
FC0000
F80000
F80000
F80000
F80000
F80000
F80000
FFFFF0
FFFFFC
FFFFFE
FFFFFE
F8003F
F8001F
F8001F
F8001F
F8001F
FC001F
7FFFFF
7FFFFF
3FFFFF
0FFFFF
00001F
00001F
00001F
00001F
00001F
00001F
00003F
FFFFFE
FFFFFE
FFFFFC
FFFFF0
ENDCHAR
STARTCHAR 00A8
ENCODING 168
SWIDTH 525 0
DWIDTH 21 0
BBX 17 6 2 23
BITMAP
FC1F80
FC1F80
FC1F80
FC1F80
FC1F80
FC1F80
ENDCHAR
STARTCHAR 00A9
ENCODING 169
SWIDTH 875 0
DWIDTH 35 0
BBX 31 27 2 0
BITMAP
07FFFF80
1FFFFFF0
3FFFFFF8
7C00007C
7000001C
F000001E
E000000E
E03FFC0E
E07FFC0E
E0E0000E
E0E0000E
E0E0000E
E0E0000E
E0E0000E
E0E0000E
E0E0000E
E0E0000E
E07FFC0E
E03FFC0E
E000000E
E000000E
F000001E
7000001C
7C00007C
3FFFFFF8
1FFFFFF0
07FFFF80
ENDCHAR
STARTCHAR 00AA
ENCODING 170
SWIDTH 525 0
DWIDTH 21 0
BBX 16 12 3 12
BITMAP
01FC
01FE
01FF
000F
000F
7FFF
FFFF
F00F
F00F
FFFF
FFFE
7FFC
ENDCHAR
STARTCHAR 00AB
ENCODING 171
SWIDTH 575 0
DWIDTH 23 0
BBX 21 16 1 5
BITMAP
018018
038038
0F80F8
1F81F8
3F83F8
7F07F0
FC0FC0
F80F80
F80F80
FC0FC0
7E07E0
3F83F8
1F81F8
0F80F8
038038
018018
ENDCHAR
STARTCHAR 00AC
ENCODING 172
SWIDTH 575 0
DWIDTH 23 0
BBX 19 17 2 0
BITMAP
FFFFE0
FFFFE0
FFFFE0
FFFFE0
0001E0
0001E0
0001E0
0001E0
0001E0
0001E0
0001E0
0001E0
0001E0
0001E0
0001E0
0001E0
0001E0
ENDCHAR
STARTCHAR 00AE
ENCODING 174
SWIDTH 875 0
DWIDTH 35 0
BBX 31 27 2 0
BITMAP
07FFFF80
1FFFFFF0
3FFFFFF8
7C00007C
7000001C
F000001E
E000000E
E0FFF80E
E0FFFE0E
E0E00E0E
E0E00E0E
E0E00E0E
E0E00E0E
E0FFFE0E
E0FFF80E
E0E7800E
E0E1E00E
E0E0F80E
E0E03E0E
E000000E
E000000E
F000001E
7000001C
7C00007C
3FFFFFF8
1FFFFFF0
07FFFF80
ENDCHAR
STARTCHAR 00AF
ENCODING 175
SWIDTH 650 0
DWIDTH 26 0
BBX 21 4 2 26
BITMAP
FFFFF8
FFFFF8
FFFFF8
FFFFF8
ENDCHAR
STARTCHAR 00B0
ENCODING 176
SWIDTH 450 0
DWIDTH 18 0
BBX 16 15 1 13
BITMAP
1FF8
7FFE
7FFE
FFFF
F00F
F00F
F00F
F00F
F00F
F00F
F01F
FFFF
7FFE
7FFE
1FF8
ENDCHAR
STARTCHAR 00B1
ENCODING 177
SWIDTH 600 0
DWIDTH 24 0
BBX 19 25 2 -1
BITMAP
00F000
00F000
00F000
00F000
00F000
00F000
00F000
00F000
7FFFE0
7FFFE0
7FFFE0
7FFFE0
00F000
00F000
00F000
00F000
00F000
00F000
00F000
000000
000000
FFFFE0
FFFFE0
FFFFE0
FFFFE0
ENDCHAR
STARTCHAR 00B2
ENCODING 178
SWIDTH 500 0
DWIDTH 20 0
BBX 16 15 2 13
BITMAP
01FC
01FF
01FF
01FF
0007
0007
7FFF
FFFF
FFFE
E000
E000
FFFF
FFFF
FFFF
FFFF
ENDCHAR
STARTCHAR 00B3
ENCODING 179
SWIDTH 475 0
DWIDTH 19 0
BBX 17 15 1 13
BITMAP
00FE00
00FF00
00FF80
00FF80
000780
000780
FFFF80
FFFF00
FFFF80
000780
000780
FFFF80
FFFF80
FFFF80
FFFE00
ENDCHAR
STARTCHAR 00B4
ENCODING 180
SWIDTH 400 0
DWIDTH 16 0
BBX 10 8 3 25
BITMAP
0FC0
1F80
1F80
3F00
3E00
7C00
F800
F800
ENDCHAR
STARTCHAR 00B6
ENCODING 182
SWIDTH 875 0
DWIDTH 35 0
BBX 32 34 1 -6
BITMAP
0FFFFFFF
3FFFFFFF
7FFFFFFF
7FFFFFFF
FC03E01F
F803E01F
F803E01F
F803E01F
F803E01F
F803E01F
F803E01F
F803E01F
FC03E01F
7FFFE01F
7FFFE01F
3FFFE01F
0FFFE01F
0003E01F
0003E01F
0003E01F
0003E01F
0003E01F
0003E01F
0003E01F
0003E01F
0003E01F
0003E01F
0003E01F
0003E01F
0003E01F
0003E01F
0003E01F
0003E01F
0003E01F
ENDCHAR
STARTCHAR 00B7
ENCODING 183
SWIDTH 250 0
DWIDTH 10 0
BBX 6 6 2 10
BITMAP
FC
FC
FC
FC
FC
FC
ENDCHAR
STARTCHAR 00B8
ENCODING 184
SWIDTH 275 0
DWIDTH 11 0
BBX 7 8 2 -9
BITMAP
7E
7C
7C
7C
78
78
78
F8
ENDCHAR
STARTCHAR 00B9
ENCODING 185
SWIDTH 200 0
DWIDTH 8 0
BBX 4 13 2 14
BITMAP
F0
F0
F0
F0
F0
F0
F0
F0
F0
F0
F0
F0
F0
ENDCHAR
STARTCHAR 00BA
ENCODING 186
SWIDTH 500 0
DWIDTH 20 0
BBX 16 12 2 12
BITMAP
3FFC
7FFE
FFFF
FFFF
F00F
F00F
F00F
F00F
FFFF
FFFF
7FFE
3FFC
ENDCHAR
STARTCHAR 00BB
ENCODING 187
SWIDTH 575 0
DWIDTH 23 0
BBX 21 16 1 5
BITMAP
C00C00
E00E00
F80F80
FC0FC0
FE0FE0
7F07F0
1F81F8
0F80F8
0F80F8
1F81F8
3F03F0
FE0FE0
FC0FC0
F80F80
E00E00
C00C00
ENDCHAR
STARTCHAR 00BC
ENCODING 188
SWIDTH 925 0
DWIDTH 37 0
BBX 33 27 3 0
BITMAP
78003E0000
78003C0000
7800780000
7800F80000
7801F00000
7801E00000
7803E00000
7807C00000
7807800000
780F800000
781F000000
783E000000
783C000000
007C000000
00F8F00780
00F0F00780
01F0F00780
03E0F00780
07C0F00780
0780F00780
0F80FFFF80
1F00FFFF80
1E00FFFF80
3E00FFFF80
7C00000780
F800000780
F000000780
ENDCHAR
STARTCHAR 00BD
ENCODING 189
SWIDTH 850 0
DWIDTH 34 0
BBX 28 28 3 -1
BITMAP
78003E00
78003C00
78007800
7800F800
7801F000
7801E000
7803E000
7807C000
78078000
780F8000
781F0000
783E0000
783C0000
007C1FC0
00F81FF0
00F01FF0
01F01FF0
03E00070
07C00070
0787FFF0
0F8FFFF0
1F0FFFE0
1E0E0000
3E0E0000
7C0FFFF0
F80FFFF0
F00FFFF0
000FFFF0
ENDCHAR
STARTCHAR 00BE
ENCODING 190
SWIDTH 1125 0
DWIDTH 45 0
BBX 41 28 2 0
BITMAP
00FE00000000
00FF003E0000
00FF803C0000
00FF80780000
000780F80000
000781F00000
FFFF81E00000
FFFF03E00000
FFFF87C00000
000787800000
00078F800000
FFFF9F000000
FFFFBE000000
FFFFBC000000
FFFE7C000000
0000F8F00780
0000F0F00780
0001F0F00780
0003E0F00780
0007C0F00780
000780F00780
000F80FFFF80
001F00FFFF80
001E00FFFF80
003E00FFFF80
007C00000780
00F800000780
00F000000780
ENDCHAR
STARTCHAR 00BF
ENCODING 191
SWIDTH 600 0
DWIDTH 24 0
BBX 21 27 1 0
BITMAP
0001F8
0001F8
0001F8
0001F8
0001F8
0001F8
000000
000000
0001F8
0001F8
0001F8
0FFFF8
3FFFF0
7FFFF0
FFFFC0
FE0000
FC0000
FC0000
FC0000
FC0000
FC0000
FE0000
FFFE00
7FFE00
7FFE00
3FFE00
0FFE00
ENDCHAR
STARTCHAR 00C0
ENCODING 192
SWIDTH 1025 0
DWIDTH 41 0
BBX 40 39 1 0
BITMAP
0007E00000
0003F00000
0003F00000
0001F80000
0000F80000
00007C0000
00003E0000
00003E0000
0000000000
0000000000
0000000000
00007C0000
0000FE0000
0001FF0000
0001FF8000
0003FF8000
0007FFC000
0007EFE000
000FEFE000
000FC7F000
001FC3F800
003F83F800
003F01FC00
007F01FC00
00FE00FE00
00FE007F00
01FC007F00
03F8003F80
03FFFFFFC0
07FFFFFFC0
07FFFFFFE0
0FFFFFFFE0
1FFFFFFFF0
1FC00007F8
3F800003F8
7F800001FC
7F000001FE
FE000000FE
FE0000007F
ENDCHAR
STARTCHAR 00C1
ENCODING 193
SWIDTH 1025 0
DWIDTH 41 0
BBX 40 39 1 0
BITMAP
000007E000
00000FC000
00000FC000
00001F8000
00001F0000
00003E0000
00007C0000
00007C0000
0000000000
0000000000
0000000000
00007C0000
0000FE0000
0001FF0000
0001FF8000
0003FF8000
0007FFC000
0007EFE000
000FEFE000
000FC7F000
001FC3F800
003F83F800
003F01FC00
007F01FC00
00FE00FE00
00FE007F00
01FC007F00
03F8003F80
03FFFFFFC0
07FFFFFFC0
07FFFFFFE0
0FFFFFFFE0
1FFFFFFFF0
1FC00007F8
3F800003F8
7F800001FC
7F000001FE
FE000000FE
FE0000007F
ENDCHAR
STARTCHAR 00C2
ENCODING 194
SWIDTH 1025 0
DWIDTH 41 0
BBX 40 40 1 0
BITMAP
00007C0000
0000FE0000
0000FF0000
0001FF0000
0003FF8000
0007EFC000
0007C7E000
000FC3E000
001F83F000
003F01F800
003F00FC00
0000000000
00007C0000
0000FE0000
0001FF0000
0001FF8000
0003FF8000
0007FFC000
0007EFE000
000FEFE000
000FC7F000
001FC3F800
003F83F800
003F01FC00
007F01FC00
00FE00FE00
00FE007F00
01FC007F00
03F8003F80
03FFFFFFC0
07FFFFFFC0
07FFFFFFE0
0FFFFFFFE0
1FFFFFFFF0
1FC00007F8
3F800003F8
7F800001FC
7F000001FE
FE000000FE
FE0000007F
ENDCHAR
STARTCHAR 00C3
ENCODING 195
SWIDTH 1025 0
DWIDTH 41 0
BBX 40 36 1 0
BITMAP
007FFFFC00
007FFFFC00
007FFFFC00
007FFFFC00
0000000000
0000000000
0000000000
0000000000
00007C0000
0000FE0000
0001FF0000
0001FF8000
0003FF8000
0007FFC000
0007EFE000
000FEFE000
000FC7F000
001FC3F800
003F83F800
003F01FC00
007F01FC00
00FE00FE00
00FE007F00
01FC007F00
03F8003F80
03FFFFFFC0
07FFFFFFC0
07FFFFFFE0
0FFFFFFFE0
1FFFFFFFF0
1FC00007F8
3F800003F8
7F800001FC
7F000001FE
FE000000FE
FE0000007F
ENDCHAR
STARTCHAR 00C4
ENCODING 196
SWIDTH 1025 0
DWIDTH 41 0
BBX 40 35 1 0
BITMAP
001F83F000
001F83F000
001F83F000
001F83F000
001F83F000
001F83F000
0000000000
00007C0000
0000FE0000
0001FF0000
0001FF8000
0003FF8000
0007FFC000
0007EFE000
000FEFE000
000FC7F000
001FC3F800
003F83F800
003F01FC00
007F01FC00
00FE00FE00
00FE007F00
01FC007F00
03F8003F80
03FFFFFFC0
07FFFFFFC0
07FFFFFFE0
0FFFFFFFE0
1FFFFFFFF0
1FC00007F8
3F800003F8
7F800001FC
7F000001FE
FE000000FE
FE0000007F
ENDCHAR
STARTCHAR 00C5
ENCODING 197
SWIDTH 1025 0
DWIDTH 41 0
BBX 40 40 1 0
BITMAP
0003FF0000
0007FF8000
000FFFC000
000E01C000
000E01C000
000E01C000
000E01C000
000E01C000
000E01C000
0007FF8000
0003FF0000
0000000000
00007C0000
0000FE0000
0001FF0000
0001FF8000
0003FF8000
0007FFC000
0007EFE000
000FEFE000
000FC7F000
001FC3F800
003F83F800
003F01FC00
007F01FC00
00FE00FE00
00FE007F00
01FC007F00
03F8003F80
03FFFFFFC0
07FFFFFFC0
07FFFFFFE0
0FFFFFFFE0
1FFFFFFFF0
1FC00007F8
3F800003F8
7F800001FC
7F000001FE
FE000000FE
FE0000007F
ENDCHAR
STARTCHAR 00C6
ENCODING 198
SWIDTH 1350 0
DWIDTH 54 0
BBX 52 27 1 0
BITMAP
00007FFFFF0000
0000FFFFFF0000
0001FFFFFF0000
0003FFFFFF0000
0003FFFFFF0000
0007F1F8000000
000FF1F8000000
000FE1F8000000
001FC1F8000000
001FC1F8000000
003F81F8000000
007F01FFFFFFF0
007F01FFFFFFF0
00FE01FFFFFFF0
01FE01FFFFFFF0
01FC01F8000000
03FFFFF8000000
07FFFFF8000000
07FFFFF8000000
0FFFFFF8000000
0FFFFFF8000000
1FC001FC000000
3FC001FFFFFFF0
3F8000FFFFFFF0
7F0000FFFFFFF0
FF00007FFFFFF0
FE00000FFFFFF0
ENDCHAR
STARTCHAR 00C7
ENCODING 199
SWIDTH 825 0
DWIDTH 33 0
BBX 29 36 2 -9
BITMAP
07FFFFF8
1FFFFFF8
3FFFFFF8
7FFFFFF8
7FFFFFF8
FF000000
FE000000
FC000000
FC000000
FC000000
FC000000
FC000000
FC000000
FC000000
FC000000
FC000000
FC000000
FC000000
FC000000
FC000000
FC000000
FE000000
7FFFFFF8
7FFFFFF8
3FFFFFF8
1FFFFFF8
07FFFFF8
00000000
0007E000
0007C000
0007C000
0007C000
00078000
00078000
00078000
000F8000
ENDCHAR
STARTCHAR 00C8
ENCODING 200
SWIDTH 825 0
DWIDTH 33 0
BBX 29 39 2 0
BITMAP
00FC0000
007E0000
007E0000
003F0000
001F0000
000F8000
0007C000
0007C000
00000000
00000000
00000000
00000000
07FF8000
1FFF8000
3FFF8000
7FFF8000
7FFF8000
FE000000
FC000000
FC000000
FC000000
FC000000
FC000000
FFFFFFF8
FFFFFFF8
FFFFFFF8
FFFFFFF8
FFFFFFF8
FC000000
FC000000
FC000000
FC000000
FC000000
FE000000
7FFFFFF8
7FFFFFF8
3FFFFFF8
1FFFFFF8
07FFFFF8
ENDCHAR
STARTCHAR 00C9
ENCODING 201
SWIDTH 825 0
DWIDTH 33 0
BBX 29 39 2 0
BITMAP
0000FC00
0001F800
0001F800
0003F000
0003E000
0007C000
000F8000
000F8000
00000000
00000000
00000000
00000000
07FF8000
1FFF8000
3FFF8000
7FFF8000
7FFF8000
FE000000
FC000000
FC000000
FC000000
FC000000
FC000000
FFFFFFF8
FFFFFFF8
FFFFFFF8
FFFFFFF8
FFFFFFF8
FC000000
FC000000
FC000000
FC000000
FC000000
FE000000
7FFFFFF8
7FFFFFF8
3FFFFFF8
1FFFFFF8
07FFFFF8
ENDCHAR
STARTCHAR 00CA
ENCODING 202
SWIDTH 825 0
DWIDTH 33 0
BBX 29 40 2 0
BITMAP
0007C000
000FE000
000FF000
001FF000
003FF800
007EFC00
007C7E00
00FC3E00
01F83F00
03F01F80
03F00FC0
00000000
00000000
07FF8000
1FFF8000
3FFF8000
7FFF8000
7FFF8000
FE000000
FC000000
FC000000
FC000000
FC000000
FC000000
FFFFFFF8
FFFFFFF8
FFFFFFF8
FFFFFFF8
FFFFFFF8
FC000000
FC000000
FC000000
FC000000
FC000000
FE000000
7FFFFFF8
7FFFFFF8
3FFFFFF8
1FFFFFF8
07FFFFF8
ENDCHAR
STARTCHAR 00CB
ENCODING 203
SWIDTH 825 0
DWIDTH 33 0
BBX 29 35 2 0
BITMAP
01F83F00
01F83F00
01F83F00
01F83F00
01F83F00
01F83F00
00000000
00000000
07FF8000
1FFF8000
3FFF8000
7FFF8000
7FFF8000
FE000000
FC000000
FC000000
FC000000
FC000000
FC000000
FFFFFFF8
FFFFFFF8
FFFFFFF8
FFFFFFF8
FFFFFFF8
FC000000
FC000000
FC000000
FC000000
FC000000
FE000000
7FFFFFF8
7FFFFFF8
3FFFFFF8
1FFFFFF8
07FFFFF8
ENDCHAR
STARTCHAR 00CC
ENCODING 204
SWIDTH 250 0
DWIDTH 10 0
BBX 10 39 -1 0
BITMAP
FC00
7E00
7E00
3F00
1F00
0F80
07C0
07C0
0000
0000
0000
0000
1F80
1F80
1F80
1F80
1F80
1F80
1F80
1F80
1F80
1F80
1F80
1F80
1F80
1F80
1F80
1F80
1F80
1F80
1F80
1F80
1F80
1F80
1F80
1F80
1F80
1F80
1F80
ENDCHAR
STARTCHAR 00CD
ENCODING 205
SWIDTH 250 0
DWIDTH 10 0
BBX 11 39 2 0
BITMAP
07E0
0FC0
0FC0
1F80
1F00
3E00
7C00
7C00
0000
0000
0000
0000
FC00
FC00
FC00
FC00
FC00
FC00
FC00
FC00
FC00
FC00
FC00
FC00
FC00
FC00
FC00
FC00
FC00
FC00
FC00
FC00
FC00
FC00
FC00
FC00
FC00
FC00
FC00
ENDCHAR
STARTCHAR 00CE
ENCODING 206
SWIDTH 250 0
DWIDTH 10 0
BBX 20 40 -4 0
BITMAP
01F000
03F800
03FC00
07FC00
0FFE00
1FBF00
1F1F80
3F0F80
7E0FC0
FC07E0
FC03F0
000000
000000
03F000
03F000
03F000
03F000
03F000
03F000
03F000
03F000
03F000
03F000
03F000
03F000
03F000
03F000
03F000
03F000
03F000
03F000
03F000
03F000
03F000
03F000
03F000
03F000
03F000
03F000
03F000
ENDCHAR
STARTCHAR 00CF
ENCODING 207
SWIDTH 250 0
DWIDTH 10 0
BBX 17 35 -3 0
BITMAP
FC1F80
FC1F80
FC1F80
FC1F80
FC1F80
FC1F80
000000
000000
07E000
07E000
07E000
07E000
07E000
07E000
07E000
07E000
07E000
07E000
07E000
07E000
07E000
07E000
07E000
07E000
07E000
07E000
07E000
07E000
07E000
07E000
07E000
07E000
07E000
07E000
07E000
ENDCHAR
STARTCHAR 00D0
ENCODING 208
SWIDTH 925 0
DWIDTH 37 0
BBX 35 27 0 0
BITMAP
1FFFFFFC00
1FFFFFFF00
1FFFFFFF80
1FFFFFFFC0
1FFFFFFFC0
1F80001FE0
1F80000FE0
1F800007E0
1F800007E0
1F800007E0
1F800007E0
FFFFF007E0
FFFFF007E0
FFFFF007E0
FFFFF007E0
1F800007E0
1F800007E0
1F800007E0
1F800007E0
1F800007E0
1F80000FE0
1F80001FE0
1FFFFFFFC0
1FFFFFFFC0
1FFFFFFF80
1FFFFFFF00
1FFFFFFC00
ENDCHAR
STARTCHAR 00D1
ENCODING 209
SWIDTH 900 0
DWIDTH 36 0
BBX 32 37 2 -1
BITMAP
07FFFFC0
07FFFFC0
07FFFFC0
07FFFFC0
00000000
00000000
00000000
00000000
78000000
FE00003F
FF00003F
FF80003F
FFC0003F
FFE0003F
FFF0003F
FFF8003F
FFFC003F
FDFE003F
FCFF003F
FC7F803F
FC3FC03F
FC1FE03F
FC0FF03F
FC07F83F
FC03FC3F
FC01FE3F
FC00FF3F
FC007FBF
FC003FFF
FC001FFF
FC000FFF
FC0007FF
FC0003FF
FC0001FF
FC0000FF
FC00003F
0000001E
ENDCHAR
STARTCHAR 00D2
ENCODING 210
SWIDTH 875 0
DWIDTH 35 0
BBX 31 39 2 0
BITMAP
007E0000
003F0000
003F0000
001F8000
000F8000
0007C000
0003E000
0003E000
00000000
00000000
00000000
00000000
07FFFFC0
1FFFFFF0
3FFFFFF8
7FFFFFFC
7FFFFFFC
FE0001FE
FC0000FE
FC00007E
FC00007E
FC00007E
FC00007E
FC00007E
FC00007E
FC00007E
FC00007E
FC00007E
FC00007E
FC00007E
FC00007E
FC00007E
FC0000FE
FE0001FE
7FFFFFFC
7FFFFFFC
3FFFFFF8
1FFFFFF0
07FFFFC0
ENDCHAR
STARTCHAR 00D3
ENCODING 211
SWIDTH 875 0
DWIDTH 35 0
BBX 31 39 2 0
BITMAP
00007E00
0000FC00
0000FC00
0001F800
0001F000
0003E000
0007C000
0007C000
00000000
00000000
00000000
00000000
07FFFFC0
1FFFFFF0
3FFFFFF8
7FFFFFFC
7FFFFFFC
FE0001FE
FC0000FE
FC00007E
FC00007E
FC00007E
FC00007E
FC00007E
FC00007E
FC00007E
FC00007E
FC00007E
FC00007E
FC00007E
FC00007E
FC00007E
FC0000FE
FE0001FE
7FFFFFFC
7FFFFFFC
3FFFFFF8
1FFFFFF0
07FFFFC0
ENDCHAR
STARTCHAR 00D4
ENCODING 212
SWIDTH 875 0
DWIDTH 35 0
BBX 31 40 2 0
BITMAP
0007C000
000FE000
000FF000
001FF000
003FF800
007EFC00
007C7E00
00FC3E00
01F83F00
03F01F80
03F00FC0
00000000
00000000
07FFFFC0
1FFFFFF0
3FFFFFF8
7FFFFFFC
7FFFFFFC
FE0001FE
FC0000FE
FC00007E
FC00007E
FC00007E
FC00007E
FC00007E
FC00007E
FC00007E
FC00007E
FC00007E
FC00007E
FC00007E
FC00007E
FC00007E
FC0000FE
FE0001FE
7FFFFFFC
7FFFFFFC
3FFFFFF8
1FFFFFF0
07FFFFC0
ENDCHAR
STARTCHAR 00D5
ENCODING 213
SWIDTH 875 0
DWIDTH 35 0
BBX 31 36 2 0
BITMAP
07FFFFC0
07FFFFC0
07FFFFC0
07FFFFC0
00000000
00000000
00000000
00000000
00000000
07FFFFC0
1FFFFFF0
3FFFFFF8
7FFFFFFC
7FFFFFFC
FE0001FE
FC0000FE
FC00007E
FC00007E
FC00007E
FC00007E
FC00007E
FC00007E
FC00007E
FC00007E
FC00007E
FC00007E
FC00007E
FC00007E
FC00007E
FC0000FE
FE0001FE
7FFFFFFC
7FFFFFFC
3FFFFFF8
1FFFFFF0
07FFFFC0
ENDCHAR
STARTCHAR 00D6
ENCODING 214
SWIDTH 875 0
DWIDTH 35 0
BBX 31 35 2 0
BITMAP
01F83F00
01F83F00
01F83F00
01F83F00
01F83F00
01F83F00
00000000
00000000
07FFFFC0
1FFFFFF0
3FFFFFF8
7FFFFFFC
7FFFFFFC
FE0001FE
FC0000FE
FC00007E
FC00007E
FC00007E
FC00007E
FC00007E
FC00007E
FC00007E
FC00007E
FC00007E
FC00007E
FC00007E
FC00007E
FC00007E
FC0000FE
FE0001FE
7FFFFFFC
7FFFFFFC
3FFFFFF8
1FFFFFF0
07FFFFC0
ENDCHAR
STARTCHAR 00D7
ENCODING 215
SWIDTH 600 0
DWIDTH 24 0
BBX 16 16 4 6
BITMAP
2004
700E
F81F
FC3E
7E7C
1FF8
0FF0
07E0
07E0
1FF0
3FF8
7E7C
FC3E
F81F
700E
2004
ENDCHAR
STARTCHAR 00D8
ENCODING 216
SWIDTH 875 0
DWIDTH 35 0
BBX 31 35 2 -4
BITMAP
0000007E
000000FC
000001F8
000001F0
07FFFFF0
1FFFFFF0
3FFFFFF8
7FFFFFFC
7FFFFFFC
FE003FFE
FC007FFE
FC007E7E
FC00FC7E
FC01F87E
FC01F87E
FC03F07E
FC07E07E
FC0FE07E
FC0FC07E
FC1F807E
FC3F007E
FC7F007E
FC7E007E
FCFC007E
FDFC00FE
FFF801FE
7FFFFFFC
7FFFFFFC
7FFFFFF8
3FFFFFF0
1FFFFFC0
1F000000
3F000000
7E000000
FC000000
ENDCHAR
STARTCHAR 00D9
ENCODING 217
SWIDTH 875 0
DWIDTH 35 0
BBX 31 39 2 0
BITMAP
007E0000
003F0000
003F0000
001F8000
000F8000
0007C000
0003E000
0003E000
00000000
00000000
00000000
00000000
FC00007E
FC00007E
FC00007E
FC00007E
FC00007E
FC00007E
FC00007E
FC00007E
FC00007E
FC00007E
FC00007E
FC00007E
FC00007E
FC00007E
FC00007E
FC00007E
FC00007E
FC00007E
FC00007E
FC00007E
FE0000FE
FF0001FE
7FFFFFFC
7FFFFFFC
3FFFFFF8
1FFFFFF0
07FFFFC0
ENDCHAR
STARTCHAR 00DA
ENCODING 218
SWIDTH 875 0
DWIDTH 35 0
BBX 31 39 2 0
BITMAP
00007E00
0000FC00
0000FC00
0001F800
0001F000
0003E000
0007C000
0007C000
00000000
00000000
00000000
00000000
FC00007E
FC00007E
FC00007E
FC00007E
FC00007E
FC00007E
FC00007E
FC00007E
FC00007E
FC00007E
FC00007E
FC00007E
FC00007E
FC00007E
FC00007E
FC00007E
FC00007E
FC00007E
FC00007E
FC00007E
FE0000FE
FF0001FE
7FFFFFFC
7FFFFFFC
3FFFFFF8
1FFFFFF0
07FFFFC0
ENDCHAR
STARTCHAR 00DB
ENCODING 219
SWIDTH 875 0
DWIDTH 35 0
BBX 31 40 2 0
BITMAP
0007C000
000FE000
000FF000
001FF000
003FF800
007EFC00
007C7E00
00FC3E00
01F83F00
03F01F80
03F00FC0
00000000
00000000
FC00007E
FC00007E
FC00007E
FC00007E
FC00007E
FC00007E
FC00007E
FC00007E
FC00007E
FC00007E
FC00007E
FC00007E
FC00007E
FC00007E
FC00007E
FC00007E
FC00007E
FC00007E
FC00007E
FC00007E
FE0000FE
FF0001FE
7FFFFFFC
7FFFFFFC
3FFFFFF8
1FFFFFF0
07FFFFC0
ENDCHAR
STARTCHAR 00DC
ENCODING 220
SWIDTH 875 0
DWIDTH 35 0
BBX 31 35 2 0
BITMAP
01F83F00
01F83F00
01F83F00
01F83F00
01F83F00
01F83F00
00000000
00000000
FC00007E
FC00007E
FC00007E
FC00007E
FC00007E
FC00007E
FC00007E
FC00007E
FC00007E
FC00007E
FC00007E
FC00007E
FC00007E
FC00007E
FC00007E
FC00007E
FC00007E
FC00007E
FC00007E
FC00007E
FE0000FE
FF0001FE
7FFFFFFC
7FFFFFFC
3FFFFFF8
1FFFFFF0
07FFFFC0
ENDCHAR
STARTCHAR 00DD
ENCODING 221
SWIDTH 975 0
DWIDTH 39 0
BBX 37 39 1 0
BITMAP
00001F8000
00003F0000
00003F0000
00007E0000
00007C0000
0000F80000
0001F00000
0001F00000
0000000000
0000000000
0000000000
0000000000
FF000007F8
7F80000FE0
3FC0003FC0
1FE0007F80
0FF000FF00
07F801FE00
03FE03FC00
01FF07F800
007F8FF000
003FFFC000
001FFF8000
000FFF0000
0007FE0000
0003FC0000
0001F80000
0001F80000
0001F80000
0001F80000
0001F80000
0001F80000
0001F80000
0001F80000
0001F80000
0001F80000
0001F80000
0001F80000
0001F80000
ENDCHAR
STARTCHAR 00DE
ENCODING 222
SWIDTH 875 0
DWIDTH 35 0
BBX 32 27 2 0
BITMAP
FC000000
FC000000
FC000000
FC000000
FFFFFFE0
FFFFFFF8
FFFFFFFE
FFFFFFFE
FFFFFFFF
FC00007F
FC00003F
FC00003F
FC00003F
FC00003F
FC00003F
FC00003F
FC00003F
FC00007F
FFFFFFFF
FFFFFFFE
FFFFFFFE
FFFFFFFC
FFFFFFE0
FC000000
FC000000
FC000000
FC000000
ENDCHAR
STARTCHAR 00DF
ENCODING 223
SWIDTH 950 0
DWIDTH 38 0
BBX 34 28 2 0
BITMAP
0FFFC00000
3FFFF00000
7FFFF00000
FFFFF80000
FC01F80000
FC01F80000
FC01F80000
FC01F80000
FC01F80000
FC01F80000
FC01FFFC00
FC01FFFF00
FC00FFFF80
FC007FFFC0
FC00001FC0
FC00000FC0
FC00000FC0
FC00000FC0
FC00000FC0
FC00000FC0
FC00000FC0
FC00000FC0
FC00001FC0
FC1FFFFF80
FC1FFFFF80
FC1FFFFF00
FC1FFFFE00
FC1FFFF800
ENDCHAR
STARTCHAR 00E0
ENCODING 224
SWIDTH 825 0
DWIDTH 33 0
BBX 29 33 2 0
BITMAP
007E0000
003F0000
003F0000
001F8000
000F8000
0007C000
0003E000
0003E000
00000000
00000000
00000000
0007FF00
0007FFC0
0007FFE0
0007FFF0
000003F0
000001F8
000001F8
000001F8
1FFFFFF8
3FFFFFF8
7FFFFFF8
FFFFFFF8
FE0001F8
FC0001F8
FC0001F8
FC0001F8
FC0001F8
FE0003F8
FFFFFFF0
7FFFFFF0
3FFFFFE0
0FFFFF00
ENDCHAR
STARTCHAR 00E1
ENCODING 225
SWIDTH 825 0
DWIDTH 33 0
BBX 29 33 2 0
BITMAP
00007E00
0000FC00
0000FC00
0001F800
0001F000
0003E000
0007C000
0007C000
00000000
00000000
00000000
0007FF00
0007FFC0
0007FFE0
0007FFF0
000003F0
000001F8
000001F8
000001F8
1FFFFFF8
3FFFFFF8
7FFFFFF8
FFFFFFF8
FE0001F8
FC0001F8
FC0001F8
FC0001F8
FC0001F8
FE0003F8
FFFFFFF0
7FFFFFF0
3FFFFFE0
0FFFFF00
ENDCHAR
STARTCHAR 00E2
ENCODING 226
SWIDTH 825 0
DWIDTH 33 0
BBX 29 34 2 0
BITMAP
0007C000
000FE000
000FF000
001FF000
003FF800
007EFC00
007C7E00
00FC3E00
01F83F00
03F01F80
03F00FC0
00000000
0007FF00
0007FFC0
0007FFE0
0007FFF0
000003F0
000001F8
000001F8
000001F8
1FFFFFF8
3FFFFFF8
7FFFFFF8
FFFFFFF8
FE0001F8
FC0001F8
FC0001F8
FC0001F8
FC0001F8
FE0003F8
FFFFFFF0
7FFFFFF0
3FFFFFE0
0FFFFF00
ENDCHAR
STARTCHAR 00E3
ENCODING 227
SWIDTH 825 0
DWIDTH 33 0
BBX 29 30 2 0
BITMAP
07FFFFC0
07FFFFC0
07FFFFC0
07FFFFC0
00000000
00000000
00000000
00000000
0007FF00
0007FFC0
0007FFE0
0007FFF0
000003F0
000001F8
000001F8
000001F8
1FFFFFF8
3FFFFFF8
7FFFFFF8
FFFFFFF8
FE0001F8
FC0001F8
FC0001F8
FC0001F8
FC0001F8
FE0003F8
FFFFFFF0
7FFFFFF0
3FFFFFE0
0FFFFF00
ENDCHAR
STARTCHAR 00E4
ENCODING 228
SWIDTH 825 0
DWIDTH 33 0
BBX 29 29 2 0
BITMAP
00FC1F80
00FC1F80
00FC1F80
00FC1F80
00FC1F80
00FC1F80
00000000
0007FF00
0007FFC0
0007FFE0
0007FFF0
000003F0
000001F8
000001F8
000001F8
1FFFFFF8
3FFFFFF8
7FFFFFF8
FFFFFFF8
FE0001F8
FC0001F8
FC0001F8
FC0001F8
FC0001F8
FE0003F8
FFFFFFF0
7FFFFFF0
3FFFFFE0
0FFFFF00
ENDCHAR
STARTCHAR 00E5
ENCODING 229
SWIDTH 825 0
DWIDTH 33 0
BBX 29 34 2 0
BITMAP
001FF800
003FFC00
007FFE00
00700E00
00700E00
00700E00
00700E00
00700E00
00700E00
003FFC00
001FF800
00000000
0007FF00
0007FFC0
0007FFE0
0007FFF0
000003F0
000001F8
000001F8
000001F8
1FFFFFF8
3FFFFFF8
7FFFFFF8
FFFFFFF8
FE0001F8
FC0001F8
FC0001F8
FC0001F8
FC0001F8
FE0003F8
FFFFFFF0
7FFFFFF0
3FFFFFE0
0FFFFF00
ENDCHAR
STARTCHAR 00E6
ENCODING 230
SWIDTH 1375 0
DWIDTH 55 0
BBX 51 21 2 0
BITMAP
0003FF0FFFFE00
0003FFFFFFFF80
0003FFFFFFFFC0
0003FFFFFFFFE0
000003FC0007E0
000001F80007E0
000001F80007E0
0FFFFFF80007E0
3FFFFFFFFFFFE0
7FFFFFFFFFFFE0
FFFFFFFFFFFFE0
FE0001FFFFFFE0
FC0001F8000000
FC0001F8000000
FC0001F8000000
FC0001FC000000
FE0003FFFE0000
FFFFFFFFFE0000
7FFFFFFFFE0000
3FFFFFFFFE0000
0FFFFF0FFE0000
ENDCHAR
STARTCHAR 00E7
ENCODING 231
SWIDTH 750 0
DWIDTH 30 0
BBX 26 31 2 -9
BITMAP
03FFFFC0
1FFFFFC0
3FFFFFC0
7FFFFFC0
7FFFFFC0
FF000000
FE000000
FC000000
FC000000
FC000000
FC000000
FC000000
FC000000
FC000000
FC000000
FE000000
FF000000
7FFFFFC0
7FFFFFC0
3FFFFFC0
1FFFFFC0
07FFFFC0
00000000
001F8000
001F0000
001F0000
001F0000
001E0000
001E0000
001E0000
003E0000
ENDCHAR
STARTCHAR 00E8
ENCODING 232
SWIDTH 800 0
DWIDTH 32 0
BBX 28 33 2 0
BITMAP
01F80000
00FC0000
00FC0000
007E0000
003E0000
001F0000
000F8000
000F8000
00000000
00000000
00000000
00000000
07FFFF00
3FFFFFC0
7FFFFFE0
7FFFFFF0
FE0003F0
FC0003F0
FC0003F0
FC0003F0
FFFFFFF0
FFFFFFF0
FFFFFFF0
FFFFFFF0
FC000000
FC000000
FC000000
FC000000
7E000000
7FFF8000
3FFF8000
1FFF8000
07FF8000
ENDCHAR
STARTCHAR 00E9
ENCODING 233
SWIDTH 800 0
DWIDTH 32 0
BBX 28 33 2 0
BITMAP
0001F800
0003F000
0003F000
0007E000
0007C000
000F8000
001F0000
001F0000
00000000
00000000
00000000
00000000
07FFFF00
3FFFFFC0
7FFFFFE0
7FFFFFF0
FE0003F0
FC0003F0
FC0003F0
FC0003F0
FFFFFFF0
FFFFFFF0
FFFFFFF0
FFFFFFF0
FC000000
FC000000
FC000000
FC000000
7E000000
7FFF8000
3FFF8000
1FFF8000
07FF8000
ENDCHAR
STARTCHAR 00EA
ENCODING 234
SWIDTH 800 0
DWIDTH 32 0
BBX 28 34 2 0
BITMAP
000F8000
001FC000
001FE000
003FE000
007FF000
00FDF800
00F8FC00
01F87C00
03F07E00
07E03F00
07E01F80
00000000
00000000
07FFFF00
3FFFFFC0
7FFFFFE0
7FFFFFF0
FE0003F0
FC0003F0
FC0003F0
FC0003F0
FFFFFFF0
FFFFFFF0
FFFFFFF0
FFFFFFF0
FC000000
FC000000
FC000000
FC000000
7E000000
7FFF8000
3FFF8000
1FFF8000
07FF8000
ENDCHAR
STARTCHAR 00EB
ENCODING 235
SWIDTH 800 0
DWIDTH 32 0
BBX 28 29 2 0
BITMAP
03F07E00
03F07E00
03F07E00
03F07E00
03F07E00
03F07E00
00000000
00000000
07FFFF00
3FFFFFC0
7FFFFFE0
7FFFFFF0
FE0003F0
FC0003F0
FC0003F0
FC0003F0
FFFFFFF0
FFFFFFF0
FFFFFFF0
FFFFFFF0
FC000000
FC000000
FC000000
FC000000
7E000000
7FFF8000
3FFF8000
1FFF8000
07FF8000
ENDCHAR
STARTCHAR 00EC
ENCODING 236
SWIDTH 250 0
DWIDTH 10 0
BBX 10 33 -2 0
BITMAP
FC00
7E00
7E00
3F00
1F00
0F80
07C0
07C0
0000
0000
0000
0000
0FC0
0FC0
0FC0
0FC0
0FC0
0FC0
0FC0
0FC0
0FC0
0FC0
0FC0
0FC0
0FC0
0FC0
0FC0
0FC0
0FC0
0FC0
0FC0
0FC0
0FC0
ENDCHAR
STARTCHAR 00ED
ENCODING 237
SWIDTH 250 0
DWIDTH 10 0
BBX 10 33 2 0
BITMAP
0FC0
1F80
1F80
3F00
3E00
7C00
F800
F800
0000
0000
0000
0000
FC00
FC00
FC00
FC00
FC00
FC00
FC00
FC00
FC00
FC00
FC00
FC00
FC00
FC00
FC00
FC00
FC00
FC00
FC00
FC00
FC00
ENDCHAR
STARTCHAR 00EE
ENCODING 238
SWIDTH 400 0
DWIDTH 16 0
BBX 20 34 -1 0
BITMAP
01F000
03F800
03FC00
07FC00
0FFE00
1FBF00
1F1F80
3F0F80
7E0FC0
FC07E0
FC03F0
000000
000000
03F000
03F000
03F000
03F000
03F000
03F000
03F000
03F000
03F000
03F000
03F000
03F000
03F000
03F000
03F000
03F000
03F000
03F000
03F000
03F000
03F000
ENDCHAR
STARTCHAR 00EF
ENCODING 239
SWIDTH 325 0
DWIDTH 13 0
BBX 17 29 -2 0
BITMAP
FC1F80
FC1F80
FC1F80
FC1F80
FC1F80
FC1F80
000000
000000
07E000
07E000
07E000
07E000
07E000
07E000
07E000
07E000
07E000
07E000
07E000
07E000
07E000
07E000
07E000
07E000
07E000
07E000
07E000
07E000
07E000
ENDCHAR
STARTCHAR 00F0
ENCODING 240
SWIDTH 825 0
DWIDTH 33 0
BBX 33 32 2 0
BITMAP
0000001F80
0000003F00
0000003E00
0000007C00
00FFFFFC00
00FFFFF800
00FFFFF800
00FFFFF800
000001F800
000001F800
000001F800
000001F800
000001F800
07FFFFF800
1FFFFFF800
3FFFFFF800
7FFFFFF800
7FFFFFF800
FF0001F800
FC0001F800
FC0001F800
FC0001F800
FC0001F800
FC0001F800
FC0001F800
FC0003F800
FE0007F800
7FFFFFF000
7FFFFFF000
3FFFFFE000
1FFFFFC000
07FFFE0000
ENDCHAR
STARTCHAR 00F1
ENCODING 241
SWIDTH 800 0
DWIDTH 32 0
BBX 28 30 2 0
BITMAP
1FFFFF00
1FFFFF00
1FFFFF00
1FFFFF00
00000000
00000000
00000000
00000000
07FFFE00
1FFFFF80
3FFFFFC0
7FFFFFE0
7FFFFFE0
FF000FF0
FE0007F0
FC0003F0
FC0003F0
FC0003F0
FC0003F0
FC0003F0
FC0003F0
FC0003F0
FC0003F0
FC0003F0
FC0003F0
FC0003F0
FC0003F0
FC0003F0
FC0003F0
FC0003F0
ENDCHAR
STARTCHAR 00F2
ENCODING 242
SWIDTH 800 0
DWIDTH 32 0
BBX 28 33 2 0
BITMAP
01F80000
00FC0000
00FC0000
007E0000
003E0000
001F0000
000F8000
000F8000
00000000
00000000
00000000
07FFFE00
1FFFFF80
3FFFFFC0
7FFFFFE0
7FFFFFE0
FF000FF0
FE0007F0
FC0003F0
FC0003F0
FC0003F0
FC0003F0
FC0003F0
FC0003F0
FC0003F0
FC0003F0
FE0007F0
FF000FF0
7FFFFFE0
7FFFFFE0
3FFFFFC0
1FFFFF80
07FFFE00
ENDCHAR
STARTCHAR 00F3
ENCODING 243
SWIDTH 800 0
DWIDTH 32 0
BBX 28 33 2 0
BITMAP
0001F800
0003F000
0003F000
0007E000
0007C000
000F8000
001F0000
001F0000
00000000
00000000
00000000
07FFFE00
1FFFFF80
3FFFFFC0
7FFFFFE0
7FFFFFE0
FF000FF0
FE0007F0
FC0003F0
FC0003F0
FC0003F0
FC0003F0
FC0003F0
FC0003F0
FC0003F0
FC0003F0
FE0007F0
FF000FF0
7FFFFFE0
7FFFFFE0
3FFFFFC0
1FFFFF80
07FFFE00
ENDCHAR
STARTCHAR 00F4
ENCODING 244
SWIDTH 800 0
DWIDTH 32 0
BBX 28 34 2 0
BITMAP
000F8000
001FC000
001FE000
003FE000
007FF000
00FDF800
00F8FC00
01F87C00
03F07E00
07E03F00
07E01F80
00000000
07FFFE00
1FFFFF80
3FFFFFC0
7FFFFFE0
7FFFFFE0
FF000FF0
FE0007F0
FC0003F0
FC0003F0
FC0003F0
FC0003F0
FC0003F0
FC0003F0
FC0003F0
FC0003F0
FE0007F0
FF000FF0
7FFFFFE0
7FFFFFE0
3FFFFFC0
1FFFFF80
07FFFE00
ENDCHAR
STARTCHAR 00F5
ENCODING 245
SWIDTH 800 0
DWIDTH 32 0
BBX 28 30 2 0
BITMAP
1FFFFF00
1FFFFF00
1FFFFF00
1FFFFF00
00000000
00000000
00000000
00000000
07FFFE00
1FFFFF80
3FFFFFC0
7FFFFFE0
7FFFFFE0
FF000FF0
FE0007F0
FC0003F0
FC0003F0
FC0003F0
FC0003F0
FC0003F0
FC0003F0
FC0003F0
FC0003F0
FE0007F0
FF000FF0
7FFFFFE0
7FFFFFE0
3FFFFFC0
1FFFFF80
07FFFE00
ENDCHAR
STARTCHAR 00F6
ENCODING 246
SWIDTH 800 0
DWIDTH 32 0
BBX 28 29 2 0
BITMAP
03F07E00
03F07E00
03F07E00
03F07E00
03F07E00
03F07E00
00000000
07FFFE00
1FFFFF80
3FFFFFC0
7FFFFFE0
7FFFFFE0
FF000FF0
FE0007F0
FC0003F0
FC0003F0
FC0003F0
FC0003F0
FC0003F0
FC0003F0
FC0003F0
FC0003F0
FE0007F0
FF000FF0
7FFFFFE0
7FFFFFE0
3FFFFFC0
1FFFFF80
07FFFE00
ENDCHAR
STARTCHAR 00F7
ENCODING 247
SWIDTH 600 0
DWIDTH 24 0
BBX 19 21 2 3
BITMAP
03F000
03F000
03F000
03F000
03F000
03F000
000000
000000
FFFFE0
FFFFE0
FFFFE0
FFFFE0
000000
000000
000000
03F000
03F000
03F000
03F000
03F000
03F000
ENDCHAR
STARTCHAR 00F8
ENCODING 248
SWIDTH 800 0
DWIDTH 32 0
BBX 28 29 2 -4
BITMAP
000003F0
000007E0
00000FC0
07FFFF80
1FFFFF80
3FFFFFC0
7FFFFFE0
7FFFFFE0
FF01FFE0
FE03FFF0
FC07F3F0
FC07E3F0
FC0FC3F0
FC1FC3F0
FC3F83F0
FC3F03F0
FC7E03F0
FCFE03F0
FFFC07F0
FFF80FF0
7FFFFFE0
7FFFFFE0
3FFFFFC0
1FFFFF80
1FFFFE00
1F000000
3F000000
7E000000
FC000000
ENDCHAR
STARTCHAR 00F9
ENCODING 249
SWIDTH 800 0
DWIDTH 32 0
BBX 28 33 2 0
BITMAP
01F80000
00FC0000
00FC0000
007E0000
003E0000
001F0000
000F8000
000F8000
00000000
00000000
00000000
FC0003F0
FC0003F0
FC0003F0
FC0003F0
FC0003F0
FC0003F0
FC0003F0
FC0003F0
FC0003F0
FC0003F0
FC0003F0
FC0003F0
FC0003F0
FC0003F0
FC0003F0
FE0007F0
FF000FF0
7FFFFFE0
7FFFFFE0
3FFFFFC0
1FFFFF80
07FFFE00
ENDCHAR
STARTCHAR 00FA
ENCODING 250
SWIDTH 800 0
DWIDTH 32 0
BBX 28 33 2 0
BITMAP
0001F800
0003F000
0003F000
0007E000
0007C000
000F8000
001F0000
001F0000
00000000
00000000
00000000
FC0003F0
FC0003F0
FC0003F0
FC0003F0
FC0003F0
FC0003F0
FC0003F0
FC0003F0
FC0003F0
FC0003F0
FC0003F0
FC0003F0
FC0003F0
FC0003F0
FC0003F0
FE0007F0
FF000FF0
7FFFFFE0
7FFFFFE0
3FFFFFC0
1FFFFF80
07FFFE00
ENDCHAR
STARTCHAR 00FB
ENCODING 251
SWIDTH 800 0
DWIDTH 32 0
BBX 28 34 2 0
BITMAP
000F8000
001FC000
001FE000
003FE000
007FF000
00FDF800
00F8FC00
01F87C00
03F07E00
07E03F00
07E01F80
00000000
FC0003F0
FC0003F0
FC0003F0
FC0003F0
FC0003F0
FC0003F0
FC0003F0
FC0003F0
FC0003F0
FC0003F0
FC0003F0
FC0003F0
FC0003F0
FC0003F0
FC0003F0
FE0007F0
FF000FF0
7FFFFFE0
7FFFFFE0
3FFFFFC0
1FFFFF80
07FFFE00
ENDCHAR
STARTCHAR 00FC
ENCODING 252
SWIDTH 800 0
DWIDTH 32 0
BBX 28 29 2 0
BITMAP
03F07E00
03F07E00
03F07E00
03F07E00
03F07E00
03F07E00
00000000
FC0003F0
FC0003F0
FC0003F0
FC0003F0
FC0003F0
FC0003F0
FC0003F0
FC0003F0
FC0003F0
FC0003F0
FC0003F0
FC0003F0
FC0003F0
FC0003F0
FC0003F0
FE0007F0
FF000FF0
7FFFFFE0
7FFFFFE0
3FFFFFC0
1FFFFF80
07FFFE00
ENDCHAR
STARTCHAR 00FD
ENCODING 253
SWIDTH 825 0
DWIDTH 33 0
BBX 29 40 2 -7
BITMAP
0000FC00
0001F800
0001F800
0003F000
0003E000
0007C000
000F8000
000F8000
00000000
00000000
00000000
FC0001F8
FC0001F8
FC0001F8
FC0001F8
FC0001F8
FC0001F8
FC0001F8
FC0001F8
FC0001F8
FC0001F8
FC0001F8
FC0001F8
FC0001F8
FC0001F8
FE0001F8
FFFFFFF8
7FFFFFF8
3FFFFFF8
1FFFFFF8
07FFFFF8
000001F8
000001F8
000001F8
000003F8
000FFFF8
000FFFF0
000FFFF0
000FFFE0
000FFF80
ENDCHAR
STARTCHAR 00FE
ENCODING 254
SWIDTH 825 0
DWIDTH 33 0
BBX 29 35 2 -6
BITMAP
FC000000
FC000000
FC000000
FC000000
FC000000
FC000000
FC000000
FFFFFE00
FFFFFFC0
FFFFFFE0
FFFFFFF0
FFFFFFF0
FC0007F8
FC0003F8
FC0001F8
FC0001F8
FC0001F8
FC0001F8
FC0001F8
FC0001F8
FC0001F8
FC0001F8
FC0003F8
FC0007F8
FFFFFFF0
FFFFFFF0
FFFFFFE0
FFFFFFC0
FFFFFE00
FC000000
FC000000
FC000000
FC000000
FC000000
FC000000
ENDCHAR
STARTCHAR 00FF
ENCODING 255
SWIDTH 825 0
DWIDTH 33 0
BBX 29 36 2 -7
BITMAP
03F07E00
03F07E00
03F07E00
03F07E00
03F07E00
03F07E00
00000000
FC0001F8
FC0001F8
FC0001F8
FC0001F8
FC0001F8
FC0001F8
FC0001F8
FC0001F8
FC0001F8
FC0001F8
FC0001F8
FC0001F8
FC0001F8
FC0001F8
FE0001F8
FFFFFFF8
7FFFFFF8
3FFFFFF8
1FFFFFF8
07FFFFF8
000001F8
000001F8
000001F8
000003F8
000FFFF8
000FFFF0
000FFFF0
000FFFE0
000FFF80
ENDCHAR
STARTCHAR 0100
ENCODING 256
SWIDTH 1025 0
DWIDTH 41 0
BBX 40 36 1 0
BITMAP
007FFFFC00
007FFFFC00
007FFFFC00
007FFFFC00
0000000000
0000000000
0000000000
0000000000
00007C0000
0000FE0000
0001FF0000
0001FF8000
0003FF8000
0007FFC000
0007EFE000
000FEFE000
000FC7F000
001FC3F800
003F83F800
003F01FC00
007F01FC00
00FE00FE00
00FE007F00
01FC007F00
03F8003F80
03FFFFFFC0
07FFFFFFC0
07FFFFFFE0
0FFFFFFFE0
1FFFFFFFF0
1FC00007F8
3F800003F8
7F800001FC
7F000001FE
FE000000FE
FE0000007F
ENDCHAR
STARTCHAR 0101
ENCODING 257
SWIDTH 825 0
DWIDTH 33 0
BBX 29 30 2 0
BITMAP
07FFFFC0
07FFFFC0
07FFFFC0
07FFFFC0
00000000
00000000
00000000
00000000
0007FF00
0007FFC0
0007FFE0
0007FFF0
000003F0
000001F8
000001F8
000001F8
1FFFFFF8
3FFFFFF8
7FFFFFF8
FFFFFFF8
FE0001F8
FC0001F8
FC0001F8
FC0001F8
FC0001F8
FE0003F8
FFFFFFF0
7FFFFFF0
3FFFFFE0
0FFFFF00
ENDCHAR
STARTCHAR 0102
ENCODING 258
SWIDTH 1025 0
DWIDTH 41 0
BBX 40 40 1 0
BITMAP
001E00F000
001E00F000
001E00F000
001E00F000
001F01F000
001FFFF000
000FFFE000
000FFFE000
0003FF8000
0000000000
0000000000
0000000000
00007C0000
0000FE0000
0001FF0000
0001FF8000
0003FF8000
0007FFC000
0007EFE000
000FEFE000
000FC7F000
001FC3F800
003F83F800
003F01FC00
007F01FC00
00FE00FE00
00FE007F00
01FC007F00
03F8003F80
03FFFFFFC0
07FFFFFFC0
07FFFFFFE0
0FFFFFFFE0
1FFFFFFFF0
1FC00007F8
3F800003F8
7F800001FC
7F000001FE
FE000000FE
FE0000007F
ENDCHAR
STARTCHAR 0103
ENCODING 259
SWIDTH 825 0
DWIDTH 33 0
BBX 29 34 2 0
BITMAP
01E00F00
01E00F00
01E00F00
01E00F00
01F01F00
01FFFF00
00FFFE00
00FFFE00
003FF800
00000000
00000000
00000000
0007FF00
0007FFC0
0007FFE0
0007FFF0
000003F0
000001F8
000001F8
000001F8
1FFFFFF8
3FFFFFF8
7FFFFFF8
FFFFFFF8
FE0001F8
FC0001F8
FC0001F8
FC0001F8
FC0001F8
FE0003F8
FFFFFFF0
7FFFFFF0
3FFFFFE0
0FFFFF00
ENDCHAR
STARTCHAR 0104
ENCODING 260
SWIDTH 1025 0
DWIDTH 41 0
BBX 42 37 0 -9
BITMAP
00003E000000
00007F000000
0000FF800000
0001FFC00000
0001FFC00000
0003FFE00000
0003F7F00000
0007F7F00000
000FE3F80000
000FE1F80000
001FC1FC0000
003F80FE0000
003F80FE0000
007F007F0000
007F003F0000
00FE003F8000
01FC001FC000
01FFFFFFC000
03FFFFFFE000
07FFFFFFF000
07FFFFFFF000
0FFFFFFFF800
0FE00003F800
1FC00001FC00
3F800000FE00
3F800000FE00
7F0000007F00
FF0000003F80
000000003E00
00000000F800
00000001F000
00000001F000
00000001F000
00000001FFC0
00000001FFC0
00000001FFC0
00000000FFC0
ENDCHAR
STARTCHAR 0105
ENCODING 261
SWIDTH 825 0
DWIDTH 33 0
BBX 29 31 2 -9
BITMAP
0007FF00
0007FFC0
0007FFE0
0007FFF0
000003F0
000001F8
000001F8
000001F8
1FFFFFF8
3FFFFFF8
7FFFFFF8
FFFFFFF8
FE0001F8
FC0001F8
FC0001F8
FC0001F8
FC0001F8
FE0003F8
FFFFFFF0
7FFFFFE0
3FFFFFC0
0FFFFE00
00078000
001F0000
003E0000
003E0000
003E0000
003FF800
003FF800
003FF800
001FF800
ENDCHAR
STARTCHAR 0106
ENCODING 262
SWIDTH 825 0
DWIDTH 33 0
BBX 29 39 2 0
BITMAP
0000FC00
0001F800
0001F800
0003F000
0003E000
0007C000
000F8000
000F8000
00000000
00000000
00000000
00000000
07FFFFF8
1FFFFFF8
3FFFFFF8
7FFFFFF8
7FFFFFF8
FF000000
FE000000
FC000000
FC000000
FC000000
FC000000
FC000000
FC000000
FC000000
FC000000
FC000000
FC000000
FC000000
FC000000
FC000000
FC000000
FE000000
7FFFFFF8
7FFFFFF8
3FFFFFF8
1FFFFFF8
07FFFFF8
ENDCHAR
STARTCHAR 0107
ENCODING 263
SWIDTH 750 0
DWIDTH 30 0
BBX 26 33 2 0
BITMAP
0003F000
0007E000
0007E000
000FC000
000F8000
001F0000
003E0000
003E0000
00000000
00000000
00000000
03FFFFC0
1FFFFFC0
3FFFFFC0
7FFFFFC0
7FFFFFC0
FF000000
FE000000
FC000000
FC000000
FC000000
FC000000
FC000000
FC000000
FC000000
FC000000
FE000000
FF000000
7FFFFFC0
7FFFFFC0
3FFFFFC0
1FFFFFC0
07FFFFC0
ENDCHAR
STARTCHAR 010A
ENCODING 266
SWIDTH 825 0
DWIDTH 33 0
BBX 29 35 2 0
BITMAP
0007E000
0007E000
0007E000
0007E000
0007E000
0007E000
00000000
00000000
07FFFFF8
1FFFFFF8
3FFFFFF8
7FFFFFF8
7FFFFFF8
FF000000
FE000000
FC000000
FC000000
FC000000
FC000000
FC000000
FC000000
FC000000
FC000000
FC000000
FC000000
FC000000
FC000000
FC000000
FC000000
FE000000
7FFFFFF8
7FFFFFF8
3FFFFFF8
1FFFFFF8
07FFFFF8
ENDCHAR
STARTCHAR 010B
ENCODING 267
SWIDTH 750 0
DWIDTH 30 0
BBX 26 29 2 0
BITMAP
001F8000
001F8000
001F8000
001F8000
001F8000
001F8000
00000000
03FFFFC0
1FFFFFC0
3FFFFFC0
7FFFFFC0
7FFFFFC0
FF000000
FE000000
FC000000
FC000000
FC000000
FC000000
FC000000
FC000000
FC000000
FC000000
FE000000
FF000000
7FFFFFC0
7FFFFFC0
3FFFFFC0
1FFFFFC0
07FFFFC0
ENDCHAR
STARTCHAR 010C
ENCODING 268
SWIDTH 825 0
DWIDTH 33 0
BBX 29 40 2 0
BITMAP
03F00FC0
03F01F80
01F83F00
00FC3E00
007C7E00
007EFC00
003FF800
001FF800
000FF000
000FE000
0007C000
00000000
00000000
07FFFFF8
1FFFFFF8
3FFFFFF8
7FFFFFF8
7FFFFFF8
FF000000
FE000000
FC000000
FC000000
FC000000
FC000000
FC000000
FC000000
FC000000
FC000000
FC000000
FC000000
FC000000
FC000000
FC000000
FC000000
FE000000
7FFFFFF8
7FFFFFF8
3FFFFFF8
1FFFFFF8
07FFFFF8
ENDCHAR
STARTCHAR 010D
ENCODING 269
SWIDTH 750 0
DWIDTH 30 0
BBX 26 34 2 0
BITMAP
07E01F80
07E03F00
03F07E00
01F87C00
00F8FC00
00FDF800
007FF000
003FF000
001FE000
001FC000
000F8000
00000000
03FFFFC0
1FFFFFC0
3FFFFFC0
7FFFFFC0
7FFFFFC0
FF000000
FE000000
FC000000
FC000000
FC000000
FC000000
FC000000
FC000000
FC000000
FC000000
FE000000
FF000000
7FFFFFC0
7FFFFFC0
3FFFFFC0
1FFFFFC0
07FFFFC0
ENDCHAR
STARTCHAR 010E
ENCODING 270
SWIDTH 900 0
DWIDTH 36 0
BBX 32 40 2 0
BITMAP
03F00FC0
03F01F80
01F83F00
00FC3E00
007C7E00
007EFC00
003FF800
001FF800
000FF000
000FE000
0007C000
00000000
00000000
FFFFFFE0
FFFFFFF8
FFFFFFFC
FFFFFFFE
FFFFFFFE
FC0000FF
FC00007F
FC00003F
FC00003F
FC00003F
FC00003F
FC00003F
FC00003F
FC00003F
FC00003F
FC00003F
FC00003F
FC00003F
FC00003F
FC00003F
FC00007F
FC0000FF
FFFFFFFE
FFFFFFFE
FFFFFFFC
FFFFFFF8
FFFFFFE0
ENDCHAR
STARTCHAR 010F
ENCODING 271
SWIDTH 975 0
DWIDTH 39 0
BBX 37 29 2 0
BITMAP
000001F9F8
000001F9F8
000001F9F8
000001F9F0
000001F9F0
000001F9F0
000001F9F0
03FFFFF9E0
1FFFFFF9E0
3FFFFFF9E0
7FFFFFF800
7FFFFFF800
FF0001F800
FE0001F800
FC0001F800
FC0001F800
FC0001F800
FC0001F800
FC0001F800
FC0001F800
FC0001F800
FC0001F800
FC0003F800
FF0007F800
7FFFFFF000
7FFFFFF000
3FFFFFE000
1FFFFFC000
03FFFF0000
ENDCHAR
STARTCHAR 0110
ENCODING 272
SWIDTH 925 0
DWIDTH 37 0
BBX 35 27 0 0
BITMAP
1FFFFFFC00
1FFFFFFF00
1FFFFFFF80
1FFFFFFFC0
1FFFFFFFC0
1F80001FE0
1F80000FE0
1F800007E0
1F800007E0
1F800007E0
1F800007E0
FFFFF007E0
FFFFF007E0
FFFFF007E0
FFFFF007E0
1F800007E0
1F800007E0
1F800007E0
1F800007E0
1F800007E0
1F80000FE0
1F80001FE0
1FFFFFFFC0
1FFFFFFFC0
1FFFFFFF80
1FFFFFFF00
1FFFFFFC00
ENDCHAR
STARTCHAR 0111
ENCODING 273
SWIDTH 825 0
DWIDTH 33 0
BBX 31 29 2 0
BITMAP
000001F8
000001F8
003FFFFE
003FFFFE
003FFFFE
003FFFFE
000001F8
03FFFFF8
1FFFFFF8
3FFFFFF8
7FFFFFF8
7FFFFFF8
FF0001F8
FE0001F8
FC0001F8
FC0001F8
FC0001F8
FC0001F8
FC0001F8
FC0001F8
FC0001F8
FC0001F8
FC0003F8
FF0007F8
7FFFFFF0
7FFFFFF0
3FFFFFE0
1FFFFFC0
03FFFF00
ENDCHAR
STARTCHAR 0112
ENCODING 274
SWIDTH 825 0
DWIDTH 33 0
BBX 29 36 2 0
BITMAP
07FFFFC0
07FFFFC0
07FFFFC0
07FFFFC0
00000000
00000000
00000000
00000000
00000000
07FF8000
1FFF8000
3FFF8000
7FFF8000
7FFF8000
FE000000
FC000000
FC000000
FC000000
FC000000
FC000000
FFFFFFF8
FFFFFFF8
FFFFFFF8
FFFFFFF8
FFFFFFF8
FC000000
FC000000
FC000000
FC000000
FC000000
FE000000
7FFFFFF8
7FFFFFF8
3FFFFFF8
1FFFFFF8
07FFFFF8
ENDCHAR
STARTCHAR 0113
ENCODING 275
SWIDTH 800 0
DWIDTH 32 0
BBX 28 30 2 0
BITMAP
1FFFFF00
1FFFFF00
1FFFFF00
1FFFFF00
00000000
00000000
00000000
00000000
00000000
07FFFF00
3FFFFFC0
7FFFFFE0
7FFFFFF0
FE0003F0
FC0003F0
FC0003F0
FC0003F0
FFFFFFF0
FFFFFFF0
FFFFFFF0
FFFFFFF0
FC000000
FC000000
FC000000
FC000000
7E000000
7FFF8000
3FFF8000
1FFF8000
07FF8000
ENDCHAR
STARTCHAR 0114
ENCODING 276
SWIDTH 825 0
DWIDTH 33 0
BBX 29 40 2 0
BITMAP
01E00F00
01E00F00
01E00F00
01E00F00
01F01F00
01FFFF00
00FFFE00
00FFFE00
003FF800
00000000
00000000
00000000
00000000
07FF8000
1FFF8000
3FFF8000
7FFF8000
7FFF8000
FE000000
FC000000
FC000000
FC000000
FC000000
FC000000
FFFFFFF8
FFFFFFF8
FFFFFFF8
FFFFFFF8
FFFFFFF8
FC000000
FC000000
FC000000
FC000000
FC000000
FE000000
7FFFFFF8
7FFFFFF8
3FFFFFF8
1FFFFFF8
07FFFFF8
ENDCHAR
STARTCHAR 0115
ENCODING 277
SWIDTH 800 0
DWIDTH 32 0
BBX 28 34 2 0
BITMAP
07803C00
07803C00
07803C00
07803C00
07C07C00
07FFFC00
03FFF800
03FFF800
00FFE000
00000000
00000000
00000000
00000000
07FFFF00
3FFFFFC0
7FFFFFE0
7FFFFFF0
FE0003F0
FC0003F0
FC0003F0
FC0003F0
FFFFFFF0
FFFFFFF0
FFFFFFF0
FFFFFFF0
FC000000
FC000000
FC000000
FC000000
7E000000
7FFF8000
3FFF8000
1FFF8000
07FF8000
ENDCHAR
STARTCHAR 0116
ENCODING 278
SWIDTH 825 0
DWIDTH 33 0
BBX 29 35 2 0
BITMAP
0007E000
0007E000
0007E000
0007E000
0007E000
0007E000
00000000
00000000
07FF8000
1FFF8000
3FFF8000
7FFF8000
7FFF8000
FE000000
FC000000
FC000000
FC000000
FC000000
FC000000
FFFFFFF8
FFFFFFF8
FFFFFFF8
FFFFFFF8
FFFFFFF8
FC000000
FC000000
FC000000
FC000000
FC000000
FE000000
7FFFFFF8
7FFFFFF8
3FFFFFF8
1FFFFFF8
07FFFFF8
ENDCHAR
STARTCHAR 0117
ENCODING 279
SWIDTH 800 0
DWIDTH 32 0
BBX 28 29 2 0
BITMAP
001F8000
001F8000
001F8000
001F8000
001F8000
001F8000
00000000
00000000
07FFFF00
3FFFFFC0
7FFFFFE0
7FFFFFF0
FE0003F0
FC0003F0
FC0003F0
FC0003F0
FFFFFFF0
FFFFFFF0
FFFFFFF0
FFFFFFF0
FC000000
FC000000
FC000000
FC000000
7E000000
7FFF8000
3FFF8000
1FFF8000
07FF8000
ENDCHAR
STARTCHAR 0118
ENCODING 280
SWIDTH 825 0
DWIDTH 33 0
BBX 31 36 2 -9
BITMAP
07FF8000
1FFF8000
3FFF8000
7FFF8000
7FFF8000
FE000000
FC000000
FC000000
FC000000
FC000000
FC000000
FFFFFFF8
FFFFFFF8
FFFFFFF8
FFFFFFF8
FFFFFFF8
FC000000
FC000000
FC000000
FC000000
FC000000
FE000000
7FFFFFFC
7FFFFFFC
3FFFFFFC
1FFFFFFC
07FFFFFC
000001F0
000007C0
00000F80
00000F80
00000F80
00000FFE
00000FFE
00000FFE
000007FE
ENDCHAR
STARTCHAR 0119
ENCODING 281
SWIDTH 800 0
DWIDTH 32 0
BBX 28 30 2 -9
BITMAP
07FFFF00
3FFFFFC0
7FFFFFE0
7FFFFFF0
FE0003F0
FC0003F0
FC0003F0
FC0003F0
FFFFFFF0
FFFFFFF0
FFFFFFF0
FFFFFFF0
FC000000
FC000000
FC000000
FC000000
FE000000
7FFF8000
3FFF8000
1FFF8000
07FF8000
003F8000
00F80000
01F00000
01F00000
01F00000
01FFC000
01FFC000
01FFC000
00FFC000
ENDCHAR
STARTCHAR 011A
ENCODING 282
SWIDTH 825 0
DWIDTH 33 0
BBX 29 40 2 0
BITMAP
03F00FC0
03F01F80
01F83F00
00FC3E00
007C7E00
007EFC00
003FF800
001FF800
000FF000
000FE000
0007C000
00000000
00000000
07FF8000
1FFF8000
3FFF8000
7FFF8000
7FFF8000
FE000000
FC000000
FC000000
FC000000
FC000000
FC000000
FFFFFFF8
FFFFFFF8
FFFFFFF8
FFFFFFF8
FFFFFFF8
FC000000
FC000000
FC000000
FC000000
FC000000
FE000000
7FFFFFF8
7FFFFFF8
3FFFFFF8
1FFFFFF8
07FFFFF8
ENDCHAR
STARTCHAR 011B
ENCODING 283
SWIDTH 800 0
DWIDTH 32 0
BBX 28 34 2 0
BITMAP
07E01F80
07E03F00
03F07E00
01F87C00
00F8FC00
00FDF800
007FF000
003FF000
001FE000
001FC000
000F8000
00000000
00000000
07FFFF00
3FFFFFC0
7FFFFFE0
7FFFFFF0
FE0003F0
FC0003F0
FC0003F0
FC0003F0
FFFFFFF0
FFFFFFF0
FFFFFFF0
FFFFFFF0
FC000000
FC000000
FC000000
FC000000
7E000000
7FFF8000
3FFF8000
1FFF8000
07FF8000
ENDCHAR
STARTCHAR 011E
ENCODING 286
SWIDTH 900 0
DWIDTH 36 0
BBX 32 40 2 0
BITMAP
01E00F00
01E00F00
01E00F00
01E00F00
01F01F00
01FFFF00
00FFFE00
00FFFE00
003FF800
00000000
00000000
00000000
00000000
07FF8000
1FFF8000
3FFF8000
7FFF8000
7FFF8000
FF000000
FE000000
FC000000
FC000000
FC000000
FC000000
FC00003F
FC00003F
FC00003F
FC00003F
FC00003F
FC00003F
FC00003F
FC00003F
FC00003F
FC00007F
FF0000FF
7FFFFFFE
7FFFFFFE
3FFFFFFC
1FFFFFF8
07FFFFE0
ENDCHAR
STARTCHAR 011F
ENCODING 287
SWIDTH 825 0
DWIDTH 33 0
BBX 29 41 2 -7
BITMAP
07803C00
07803C00
07803C00
07803C00
07C07C00
07FFFC00
03FFF800
03FFF800
00FFE000
00000000
00000000
00000000
07FFFF00
3FFFFFC0
7FFFFFE0
7FFFFFF0
FFFFFFF0
FE0003F8
FC0001F8
FC0001F8
FC0001F8
FC0001F8
FC0001F8
FC0001F8
FC0001F8
FC0001F8
FE0001F8
7FFFFFF8
7FFFFFF8
3FFFFFF8
0FFFFFF8
000001F8
000001F8
000001F8
000001F8
000003F8
000FFFF8
000FFFF0
000FFFF0
000FFFE0
000FFF80
ENDCHAR
STARTCHAR 0120
ENCODING 288
SWIDTH 900 0
DWIDTH 36 0
BBX 32 35 2 0
BITMAP
0007E000
0007E000
0007E000
0007E000
0007E000
0007E000
00000000
00000000
07FF8000
1FFF8000
3FFF8000
7FFF8000
7FFF8000
FF000000
FE000000
FC000000
FC000000
FC000000
FC000000
FC00003F
FC00003F
FC00003F
FC00003F
FC00003F
FC00003F
FC00003F
FC00003F
FC00003F
FC00007F
FF0000FF
7FFFFFFE
7FFFFFFE
3FFFFFFC
1FFFFFF8
07FFFFE0
ENDCHAR
STARTCHAR 0121
ENCODING 289
SWIDTH 825 0
DWIDTH 33 0
BBX 29 36 2 -7
BITMAP
001F8000
001F8000
001F8000
001F8000
001F8000
001F8000
00000000
07FFFF00
3FFFFFC0
7FFFFFE0
7FFFFFF0
FFFFFFF0
FE0003F8
FC0001F8
FC0001F8
FC0001F8
FC0001F8
FC0001F8
FC0001F8
FC0001F8
FC0001F8
FE0001F8
7FFFFFF8
7FFFFFF8
3FFFFFF8
0FFFFFF8
000001F8
000001F8
000001F8
000001F8
000003F8
000FFFF8
000FFFF0
000FFFF0
000FFFE0
000FFF80
ENDCHAR
STARTCHAR 0122
ENCODING 290
SWIDTH 900 0
DWIDTH 36 0
BBX 32 36 2 -9
BITMAP
07FF8000
1FFF8000
3FFF8000
7FFF8000
7FFF8000
FF000000
FE000000
FC000000
FC000000
FC000000
FC000000
FC00003F
FC00003F
FC00003F
FC00003F
FC00003F
FC00003F
FC00003F
FC00003F
FC00003F
FC00007F
FF0000FF
7FFFFFFE
7FFFFFFE
3FFFFFFC
1FFFFFF8
07FFFFE0
00000000
0007E000
0007C000
0007C000
0007C000
00078000
00078000
00078000
000F8000
ENDCHAR
STARTCHAR 0123
ENCODING 291
SWIDTH 825 0
DWIDTH 33 0
BBX 29 39 2 -7
BITMAP
0007C000
00078000
00078000
00078000
000F8000
000F8000
000F8000
001F8000
00000000
00000000
07FFFF00
3FFFFFC0
7FFFFFE0
7FFFFFF0
FFFFFFF0
FE0003F8
FC0001F8
FC0001F8
FC0001F8
FC0001F8
FC0001F8
FC0001F8
FC0001F8
FC0001F8
FE0001F8
7FFFFFF8
7FFFFFF8
3FFFFFF8
0FFFFFF8
000001F8
000001F8
000001F8
000001F8
000003F8
000FFFF8
000FFFF0
000FFFF0
000FFFE0
000FFF80
ENDCHAR
STARTCHAR 0126
ENCODING 294
SWIDTH 900 0
DWIDTH 36 0
BBX 32 27 2 0
BITMAP
FC00003F
FC00003F
FC00003F
FFFFFFFF
FFFFFFFF
FFFFFFFF
FFFFFFFF
FC00003F
FC00003F
FC00003F
FC00003F
FFFFFFFF
FFFFFFFF
FFFFFFFF
FFFFFFFF
FFFFFFFF
FC00003F
FC00003F
FC00003F
FC00003F
FC00003F
FC00003F
FC00003F
FC00003F
FC00003F
FC00003F
FC00003F
ENDCHAR
STARTCHAR 0127
ENCODING 295
SWIDTH 825 0
DWIDTH 33 0
BBX 31 29 0 0
BITMAP
3F000000
3F000000
FFFFF800
FFFFF800
FFFFF800
FFFFF800
3F000000
3FFFFF80
3FFFFFF0
3FFFFFF8
3FFFFFFC
3FFFFFFC
3F0001FE
3F0000FE
3F00007E
3F00007E
3F00007E
3F00007E
3F00007E
3F00007E
3F00007E
3F00007E
3F00007E
3F00007E
3F00007E
3F00007E
3F00007E
3F00007E
3F00007E
ENDCHAR
STARTCHAR 012A
ENCODING 298
SWIDTH 250 0
DWIDTH 10 0
BBX 21 36 -5 0
BITMAP
FFFFF8
FFFFF8
FFFFF8
FFFFF8
000000
000000
000000
000000
000000
01F800
01F800
01F800
01F800
01F800
01F800
01F800
01F800
01F800
01F800
01F800
01F800
01F800
01F800
01F800
01F800
01F800
01F800
01F800
01F800
01F800
01F800
01F800
01F800
01F800
01F800
01F800
ENDCHAR
STARTCHAR 012B
ENCODING 299
SWIDTH 425 0
DWIDTH 17 0
BBX 21 30 -2 0
BITMAP
FFFFF8
FFFFF8
FFFFF8
FFFFF8
000000
000000
000000
000000
000000
01F800
01F800
01F800
01F800
01F800
01F800
01F800
01F800
01F800
01F800
01F800
01F800
01F800
01F800
01F800
01F800
01F800
01F800
01F800
01F800
01F800
ENDCHAR
STARTCHAR 012C
ENCODING 300
SWIDTH 250 0
DWIDTH 10 0
BBX 17 40 -3 0
BITMAP
F00780
F00780
F00780
F00780
F80F80
FFFF80
7FFF00
7FFF00
1FFC00
000000
000000
000000
000000
07E000
07E000
07E000
07E000
07E000
07E000
07E000
07E000
07E000
07E000
07E000
07E000
07E000
07E000
07E000
07E000
07E000
07E000
07E000
07E000
07E000
07E000
07E000
07E000
07E000
07E000
07E000
ENDCHAR
STARTCHAR 012D
ENCODING 301
SWIDTH 300 0
DWIDTH 12 0
BBX 17 34 -3 0
BITMAP
F00780
F00780
F00780
F00780
F80F80
FFFF80
7FFF00
7FFF00
1FFC00
000000
000000
000000
000000
07E000
07E000
07E000
07E000
07E000
07E000
07E000
07E000
07E000
07E000
07E000
07E000
07E000
07E000
07E000
07E000
07E000
07E000
07E000
07E000
07E000
ENDCHAR
STARTCHAR 012E
ENCODING 302
SWIDTH 275 0
DWIDTH 11 0
BBX 11 36 -1 -9
BITMAP
0FC0
0FC0
0FC0
0FC0
0FC0
0FC0
0FC0
0FC0
0FC0
0FC0
0FC0
0FC0
0FC0
0FC0
0FC0
0FC0
0FC0
0FC0
0FC0
0FC0
0FC0
0FC0
0FC0
0FC0
0FC0
0FC0
0FC0
1F00
7C00
F800
F800
F800
FFE0
FFE0
FFE0
7FE0
ENDCHAR
STARTCHAR 012F
ENCODING 303
SWIDTH 275 0
DWIDTH 11 0
BBX 11 38 -1 -9
BITMAP
0FC0
0FC0
0FC0
0FC0
0FC0
0FC0
0000
0000
0FC0
0FC0
0FC0
0FC0
0FC0
0FC0
0FC0
0FC0
0FC0
0FC0
0FC0
0FC0
0FC0
0FC0
0FC0
0FC0
0FC0
0FC0
0FC0
0FC0
0FC0
1F00
7C00
F800
F800
F800
FFE0
FFE0
FFE0
7FE0
ENDCHAR
STARTCHAR 0130
ENCODING 304
SWIDTH 250 0
DWIDTH 10 0
BBX 6 35 2 0
BITMAP
FC
FC
FC
FC
FC
FC
00
00
FC
FC
FC
FC
FC
FC
FC
FC
FC
FC
FC
FC
FC
FC
FC
FC
FC
FC
FC
FC
FC
FC
FC
FC
FC
FC
FC
ENDCHAR
STARTCHAR 0131
ENCODING 305
SWIDTH 250 0
DWIDTH 10 0
BBX 6 21 2 0
BITMAP
FC
FC
FC
FC
FC
FC
FC
FC
FC
FC
FC
FC
FC
FC
FC
FC
FC
FC
FC
FC
FC
ENDCHAR
STARTCHAR 0132
ENCODING 306
SWIDTH 775 0
DWIDTH 31 0
BBX 27 27 2 0
BITMAP
FC0007E0
FC0007E0
FC0007E0
FC0007E0
FC0007E0
FC0007E0
FC0007E0
FC0007E0
FC0007E0
FC0007E0
FC0007E0
FC0007E0
FC0007E0
FC0007E0
FC0007E0
FC0007E0
FC0007E0
FC0007E0
FC0007E0
FC0007E0
FC000FE0
FC001FE0
FC3FFFC0
FC3FFFC0
FC3FFF80
FC3FFF00
FC3FFC00
ENDCHAR
STARTCHAR 0133
ENCODING 307
SWIDTH 550 0
DWIDTH 22 0
BBX 18 35 2 -6
BITMAP
FC0FC0
FC0FC0
FC0FC0
FC0FC0
FC0FC0
FC0FC0
000000
000FC0
FC0FC0
FC0FC0
FC0FC0
FC0FC0
FC0FC0
FC0FC0
FC0FC0
FC0FC0
FC0FC0
FC0FC0
FC0FC0
FC0FC0
FC0FC0
FC0FC0
FC0FC0
FC0FC0
FC0FC0
FC0FC0
FC0FC0
FC0FC0
FC0FC0
001FC0
01FF80
01FF80
01FF00
01FE00
01F800
ENDCHAR
STARTCHAR 0136
ENCODING 310
SWIDTH 800 0
DWIDTH 32 0
BBX 29 36 2 -9
BITMAP
FC000FF0
FC001FE0
FC003FC0
FC007F80
FC00FF00
FC01FE00
FC07F800
FC0FF000
FC1FE000
FC3FC000
FC7F8000
FCFE0000
FFFC0000
FFFC0000
FDFE0000
FCFF0000
FC7F8000
FC3FE000
FC1FF000
FC07F800
FC03FC00
FC01FE00
FC00FF00
FC007F80
FC003FE0
FC001FF0
FC0007F8
00000000
000FC000
000F8000
000F8000
000F8000
000F0000
000F0000
000F0000
001F0000
ENDCHAR
STARTCHAR 0137
ENCODING 311
SWIDTH 725 0
DWIDTH 29 0
BBX 26 38 2 -9
BITMAP
FC000000
FC000000
FC000000
FC000000
FC000000
FC000000
FC000000
FC003FC0
FC007F00
FC00FE00
FC03FC00
FC07F800
FC0FE000
FC1FC000
FC7F8000
FCFF0000
FDFC0000
FFF80000
FFFC0000
FDFE0000
FCFF0000
FC7F8000
FC1FE000
FC0FF000
FC07F800
FC03FC00
FC00FF00
FC007F80
FC003FC0
00000000
003F0000
003E0000
003E0000
003E0000
003C0000
003C0000
003C0000
007C0000
ENDCHAR
STARTCHAR 0139
ENCODING 313
SWIDTH 750 0
DWIDTH 30 0
BBX 27 39 2 0
BITMAP
07E00000
0FC00000
0FC00000
1F800000
1F000000
3E000000
7C000000
7C000000
00000000
00000000
00000000
00000000
FC000000
FC000000
FC000000
FC000000
FC000000
FC000000
FC000000
FC000000
FC000000
FC000000
FC000000
FC000000
FC000000
FC000000
FC000000
FC000000
FC000000
FC000000
FC000000
FC000000
FE000000
FF000000
7FFFFFE0
7FFFFFE0
3FFFFFE0
1FFFFFE0
07FFFFE0
ENDCHAR
STARTCHAR 013A
ENCODING 314
SWIDTH 250 0
DWIDTH 10 0
BBX 10 39 2 0
BITMAP
0FC0
1F80
1F80
3F00
3E00
7C00
F800
F800
0000
0000
FC00
FC00
FC00
FC00
FC00
FC00
FC00
FC00
FC00
FC00
FC00
FC00
FC00
FC00
FC00
FC00
FC00
FC00
FC00
FC00
FC00
FC00
FC00
FC00
FC00
FC00
FC00
FC00
FC00
ENDCHAR
STARTCHAR 013B
ENCODING 315
SWIDTH 750 0
DWIDTH 30 0
BBX 27 36 2 -9
BITMAP
FC000000
FC000000
FC000000
FC000000
FC000000
FC000000
FC000000
FC000000
FC000000
FC000000
FC000000
FC000000
FC000000
FC000000
FC000000
FC000000
FC000000
FC000000
FC000000
FC000000
FE000000
FF000000
7FFFFFE0
7FFFFFE0
3FFFFFE0
1FFFFFE0
07FFFFE0
00000000
000FC000
000F8000
000F8000
000F8000
000F0000
000F0000
000F0000
001F0000
ENDCHAR
STARTCHAR 013C
ENCODING 316
SWIDTH 250 0
DWIDTH 10 0
BBX 7 38 2 -9
BITMAP
FC
FC
FC
FC
FC
FC
FC
FC
FC
FC
FC
FC
FC
FC
FC
FC
FC
FC
FC
FC
FC
FC
FC
FC
FC
FC
FC
FC
FC
00
7E
7C
7C
7C
78
78
78
F8
ENDCHAR
STARTCHAR 013D
ENCODING 317
SWIDTH 750 0
DWIDTH 30 0
BBX 27 29 2 0
BITMAP
0003F000
0003F000
FC03F000
FC03E000
FC03E000
FC03E000
FC03E000
FC03C000
FC03C000
FC03C000
FC000000
FC000000
FC000000
FC000000
FC000000
FC000000
FC000000
FC000000
FC000000
FC000000
FC000000
FC000000
FE000000
FF000000
7FFFFFE0
7FFFFFE0
3FFFFFE0
1FFFFFE0
07FFFFE0
ENDCHAR
STARTCHAR 013E
ENCODING 318
SWIDTH 425 0
DWIDTH 17 0
BBX 15 29 2 0
BITMAP
FC7E
FC7E
FC7E
FC7C
FC7C
FC7C
FC7C
FC78
FC78
FC78
FC00
FC00
FC00
FC00
FC00
FC00
FC00
FC00
FC00
FC00
FC00
FC00
FC00
FC00
FC00
FC00
FC00
FC00
FC00
ENDCHAR
STARTCHAR 013F
ENCODING 319
SWIDTH 750 0
DWIDTH 30 0
BBX 27 27 2 0
BITMAP
FC000000
FC000000
FC000000
FC000000
FC000000
FC000000
FC000000
FC000000
FC07E000
FC07E000
FC07E000
FC07E000
FC07E000
FC07E000
FC000000
FC000000
FC000000
FC000000
FC000000
FC000000
FE000000
FF000000
7FFFFFE0
7FFFFFE0
3FFFFFE0
1FFFFFE0
07FFFFE0
ENDCHAR
STARTCHAR 0140
ENCODING 320
SWIDTH 425 0
DWIDTH 17 0
BBX 14 29 2 0
BITMAP
FC00
FC00
FC00
FC00
FC00
FC00
FC00
FC00
FC00
FC00
FC00
FCFC
FCFC
FCFC
FCFC
FCFC
FCFC
FC00
FC00
FC00
FC00
FC00
FC00
FC00
FC00
FC00
FC00
FC00
FC00
ENDCHAR
STARTCHAR 0141
ENCODING 321
SWIDTH 775 0
DWIDTH 31 0
BBX 30 27 0 0
BITMAP
1F800000
1F800000
1F800000
1F800800
1F83F800
1FFFF800
7FFFF800
FFFFF800
FFFFC000
FFF00000
FF800000
1F800000
1F800000
1F800000
1F800000
1F800000
1F800000
1F800000
1F800000
1F800000
1FC00000
1FE00000
0FFFFFFC
0FFFFFFC
07FFFFFC
03FFFFFC
00FFFFFC
ENDCHAR
STARTCHAR 0142
ENCODING 322
SWIDTH 325 0
DWIDTH 13 0
BBX 12 29 0 0
BITMAP
1F80
1F80
1F80
1F80
1F80
1F80
1F80
1FF0
FFF0
FFF0
FFF0
FFE0
FF80
1F80
1F80
1F80
1F80
1F80
1F80
1F80
1F80
1F80
1F80
1F80
1F80
1F80
1F80
1F80
1F80
ENDCHAR
STARTCHAR 0143
ENCODING 323
SWIDTH 900 0
DWIDTH 36 0
BBX 32 40 2 -1
BITMAP
00007E00
0000FC00
0000FC00
0001F800
0001F000
0003E000
0007C000
0007C000
00000000
00000000
00000000
78000000
FE00003F
FF00003F
FF80003F
FFC0003F
FFE0003F
FFF0003F
FFF8003F
FFFC003F
FDFE003F
FCFF003F
FC7F803F
FC3FC03F
FC1FE03F
FC0FF03F
FC07F83F
FC03FC3F
FC01FE3F
FC00FF3F
FC007FBF
FC003FFF
FC001FFF
FC000FFF
FC0007FF
FC0003FF
FC0001FF
FC0000FF
FC00003F
0000001E
ENDCHAR
STARTCHAR 0144
ENCODING 324
SWIDTH 800 0
DWIDTH 32 0
BBX 28 33 2 0
BITMAP
0001F800
0003F000
0003F000
0007E000
0007C000
000F8000
001F0000
001F0000
00000000
00000000
00000000
07FFFE00
1FFFFF80
3FFFFFC0
7FFFFFE0
7FFFFFE0
FF000FF0
FE0007F0
FC0003F0
FC0003F0
FC0003F0
FC0003F0
FC0003F0
FC0003F0
FC0003F0
FC0003F0
FC0003F0
FC0003F0
FC0003F0
FC0003F0
FC0003F0
FC0003F0
FC0003F0
ENDCHAR
STARTCHAR 0145
ENCODING 325
SWIDTH 900 0
DWIDTH 36 0
BBX 32 37 2 -9
BITMAP
78000000
FE00003F
FF00003F
FF80003F
FFC0003F
FFE0003F
FFF0003F
FFF8003F
FFFC003F
FDFE003F
FCFF003F
FC7F803F
FC3FC03F
FC1FE03F
FC0FF03F
FC07F83F
FC03FC3F
FC01FE3F
FC00FF3F
FC007FBF
FC003FFF
FC001FFF
FC000FFF
FC0007FF
FC0003FF
FC0001FF
FC0000FF
FC00003F
0000001E
0003F000
0003E000
0003E000
0003E000
0003C000
0003C000
0003C000
0007C000
ENDCHAR
STARTCHAR 0146
ENCODING 326
SWIDTH 800 0
DWIDTH 32 0
BBX 28 31 2 -9
BITMAP
07FFFE00
1FFFFF80
3FFFFFC0
7FFFFFE0
7FFFFFE0
FF000FF0
FE0007F0
FC0003F0
FC0003F0
FC0003F0
FC0003F0
FC0003F0
FC0003F0
FC0003F0
FC0003F0
FC0003F0
FC0003F0
FC0003F0
FC0003F0
FC0003F0
FC0003F0
FC0003F0
00000000
000FC000
000F8000
000F8000
000F8000
000F0000
000F0000
000F0000
001F0000
ENDCHAR
STARTCHAR 0147
ENCODING 327
SWIDTH 900 0
DWIDTH 36 0
BBX 32 41 2 -1
BITMAP
01F807E0
01F80FC0
00FC1F80
007E1F00
003E3F00
003F7E00
001FFC00
000FFC00
0007F800
0007F000
0003E000
00000000
78000000
FE00003F
FF00003F
FF80003F
FFC0003F
FFE0003F
FFF0003F
FFF8003F
FFFC003F
FDFE003F
FCFF003F
FC7F803F
FC3FC03F
FC1FE03F
FC0FF03F
FC07F83F
FC03FC3F
FC01FE3F
FC00FF3F
FC007FBF
FC003FFF
FC001FFF
FC000FFF
FC0007FF
FC0003FF
FC0001FF
FC0000FF
FC00003F
0000001E
ENDCHAR
STARTCHAR 0148
ENCODING 328
SWIDTH 800 0
DWIDTH 32 0
BBX 28 34 2 0
BITMAP
07E01F80
07E03F00
03F07E00
01F87C00
00F8FC00
00FDF800
007FF000
003FF000
001FE000
001FC000
000F8000
00000000
07FFFE00
1FFFFF80
3FFFFFC0
7FFFFFE0
7FFFFFE0
FF000FF0
FE0007F0
FC0003F0
FC0003F0
FC0003F0
FC0003F0
FC0003F0
FC0003F0
FC0003F0
FC0003F0
FC0003F0
FC0003F0
FC0003F0
FC0003F0
FC0003F0
FC0003F0
FC0003F0
ENDCHAR
STARTCHAR 014A
ENCODING 330
SWIDTH 900 0
DWIDTH 36 0
BBX 32 37 2 -9
BITMAP
78000000
FE00003F
FF00003F
FF80003F
FFC0003F
FFE0003F
FFF0003F
FFF8003F
FFFC003F
FDFE003F
FCFF003F
FC7F803F
FC3FC03F
FC1FE03F
FC0FF03F
FC07F83F
FC03FC3F
FC01FE3F
FC00FF3F
FC007FBF
FC003FFF
FC001FFF
FC000FFF
FC0007FF
FC0003FF
FC0001FF
FC0000FF
FC00007F
0000003F
0000003F
0000003F
0000007F
00000FFE
00000FFE
00000FFC
00000FF8
00000FE0
ENDCHAR
STARTCHAR 014B
ENCODING 331
SWIDTH 800 0
DWIDTH 32 0
BBX 28 31 2 -9
BITMAP
07FFFE00
1FFFFF80
3FFFFFC0
7FFFFFE0
7FFFFFE0
FF000FF0
FE0007F0
FC0003F0
FC0003F0
FC0003F0
FC0003F0
FC0003F0
FC0003F0
FC0003F0
FC0003F0
FC0003F0
FC0003F0
FC0003F0
FC0003F0
FC0003F0
FC0003F0
FC0003F0
000003F0
000003F0
000003F0
000007F0
00007FE0
00007FE0
00007FC0
00007F80
00007E00
ENDCHAR
STARTCHAR 014C
ENCODING 332
SWIDTH 875 0
DWIDTH 35 0
BBX 31 36 2 0
BITMAP
07FFFFC0
07FFFFC0
07FFFFC0
07FFFFC0
00000000
00000000
00000000
00000000
00000000
07FFFFC0
1FFFFFF0
3FFFFFF8
7FFFFFFC
7FFFFFFC
FE0001FE
FC0000FE
FC00007E
FC00007E
FC00007E
FC00007E
FC00007E
FC00007E
FC00007E
FC00007E
FC00007E
FC00007E
FC00007E
FC00007E
FC00007E
FC0000FE
FE0001FE
7FFFFFFC
7FFFFFFC
3FFFFFF8
1FFFFFF0
07FFFFC0
ENDCHAR
STARTCHAR 014D
ENCODING 333
SWIDTH 800 0
DWIDTH 32 0
BBX 28 30 2 0
BITMAP
1FFFFF00
1FFFFF00
1FFFFF00
1FFFFF00
00000000
00000000
00000000
00000000
07FFFE00
1FFFFF80
3FFFFFC0
7FFFFFE0
7FFFFFE0
FF000FF0
FE0007F0
FC0003F0
FC0003F0
FC0003F0
FC0003F0
FC0003F0
FC0003F0
FC0003F0
FC0003F0
FE0007F0
FF000FF0
7FFFFFE0
7FFFFFE0
3FFFFFC0
1FFFFF80
07FFFE00
ENDCHAR
STARTCHAR 014E
ENCODING 334
SWIDTH 875 0
DWIDTH 35 0
BBX 31 40 2 0
BITMAP
01E00F00
01E00F00
01E00F00
01E00F00
01F01F00
01FFFF00
00FFFE00
00FFFE00
003FF800
00000000
00000000
00000000
00000000
07FFFFC0
1FFFFFF0
3FFFFFF8
7FFFFFFC
7FFFFFFC
FE0001FE
FC0000FE
FC00007E
FC00007E
FC00007E
FC00007E
FC00007E
FC00007E
FC00007E
FC00007E
FC00007E
FC00007E
FC00007E
FC00007E
FC00007E
FC0000FE
FE0001FE
7FFFFFFC
7FFFFFFC
3FFFFFF8
1FFFFFF0
07FFFFC0
ENDCHAR
STARTCHAR 014F
ENCODING 335
SWIDTH 800 0
DWIDTH 32 0
BBX 28 34 2 0
BITMAP
07803C00
07803C00
07803C00
07803C00
07C07C00
07FFFC00
03FFF800
03FFF800
00FFE000
00000000
00000000
00000000
07FFFE00
1FFFFF80
3FFFFFC0
7FFFFFE0
7FFFFFE0
FF000FF0
FE0007F0
FC0003F0
FC0003F0
FC0003F0
FC0003F0
FC0003F0
FC0003F0
FC0003F0
FC0003F0
FE0007F0
FF000FF0
7FFFFFE0
7FFFFFE0
3FFFFFC0
1FFFFF80
07FFFE00
ENDCHAR
STARTCHAR 0150
ENCODING 336
SWIDTH 875 0
DWIDTH 35 0
BBX 31 39 2 0
BITMAP
001F83F0
003F07E0
003F07E0
007E0FC0
007C1F80
00F81F00
01F03E00
01F03E00
00000000
00000000
00000000
00000000
07FFFFC0
1FFFFFF0
3FFFFFF8
7FFFFFFC
7FFFFFFC
FE0001FE
FC0000FE
FC00007E
FC00007E
FC00007E
FC00007E
FC00007E
FC00007E
FC00007E
FC00007E
FC00007E
FC00007E
FC00007E
FC00007E
FC00007E
FC0000FE
FE0001FE
7FFFFFFC
7FFFFFFC
3FFFFFF8
1FFFFFF0
07FFFFC0
ENDCHAR
STARTCHAR 0151
ENCODING 337
SWIDTH 800 0
DWIDTH 32 0
BBX 28 33 2 0
BITMAP
003F07E0
007E0FC0
007E0FC0
00FC1F80
00F83F00
01F03E00
03E07C00
03E07C00
00000000
00000000
00000000
07FFFE00
1FFFFF80
3FFFFFC0
7FFFFFE0
7FFFFFE0
FF000FF0
FE0007F0
FC0003F0
FC0003F0
FC0003F0
FC0003F0
FC0003F0
FC0003F0
FC0003F0
FC0003F0
FE0007F0
FF000FF0
7FFFFFE0
7FFFFFE0
3FFFFFC0
1FFFFF80
07FFFE00
ENDCHAR
STARTCHAR 0152
ENCODING 338
SWIDTH 1450 0
DWIDTH 58 0
BBX 54 27 2 0
BITMAP
07FFFF83FFC000
1FFFFFFFFFC000
3FFFFFFFFFC000
7FFFFFFFFFC000
7FFFFFFFFFC000
FF0001FF000000
FC0000FE000000
FC00007E000000
FC00007E000000
FC00007E000000
FC00007E000000
FC00007FFFFFFC
FC00007FFFFFFC
FC00007FFFFFFC
FC00007FFFFFFC
FC00007FFFFFFC
FC00007E000000
FC00007E000000
FC00007E000000
FC00007E000000
FC0000FE000000
FE0001FF000000
7FFFFFFFFFFFFC
7FFFFFFFFFFFFC
3FFFFFFFFFFFFC
1FFFFFFFFFFFFC
07FFFF83FFFFFC
ENDCHAR
STARTCHAR 0153
ENCODING 339
SWIDTH 1350 0
DWIDTH 54 0
BBX 50 22 2 0
BITMAP
0003FC1FF80000
07FFFFFFFFFC00
1FFFFFFFFFFF00
3FFFFFFFFFFF80
7FFFFFFFFFFFC0
7F000FF8000FC0
FE0007F0000FC0
FC0003F0000FC0
FC0003F0000FC0
FC0003FFFFFFC0
FC0003FFFFFFC0
FC0003FFFFFFC0
FC0003FFFFFFC0
FC0003F0000000
FC0003F0000000
FE0007F0000000
FF000FF0000000
7FFFFFF8000000
7FFFFFFFFC0000
3FFFFFFFFC0000
1FFFFFFFFC0000
07FFFC1FFC0000
ENDCHAR
STARTCHAR 0154
ENCODING 340
SWIDTH 900 0
DWIDTH 36 0
BBX 32 39 2 0
BITMAP
00007E00
0000FC00
0000FC00
0001F800
0001F000
0003E000
0007C000
0007C000
00000000
00000000
00000000
00000000
FFFFFFE0
FFFFFFF8
FFFFFFFE
FFFFFFFE
FFFFFFFF
FC00007F
FC00003F
FC00003F
FC00003F
FC00003F
FC00003F
FC00003F
FC00007F
FFFFFFFE
FFFFFFFE
FFFFFFF8
FFFFFFE0
FCFF8000
FC7FE000
FC1FF000
FC0FFC00
FC03FF00
FC01FF80
FC007FE0
FC003FF0
FC000FFC
FC0007FF
ENDCHAR
STARTCHAR 0155
ENCODING 341
SWIDTH 450 0
DWIDTH 18 0
BBX 15 33 2 0
BITMAP
007E
00FC
00FC
01F8
01F0
03E0
07C0
07C0
0000
0000
0000
03FC
1FFC
3FFC
7FFC
7FFC
FF00
FE00
FC00
FC00
FC00
FC00
FC00
FC00
FC00
FC00
FC00
FC00
FC00
FC00
FC00
FC00
FC00
ENDCHAR
STARTCHAR 0156
ENCODING 342
SWIDTH 900 0
DWIDTH 36 0
BBX 32 36 2 -9
BITMAP
FFFFFFE0
FFFFFFF8
FFFFFFFE
FFFFFFFE
FFFFFFFF
FC00007F
FC00003F
FC00003F
FC00003F
FC00003F
FC00003F
FC00003F
FC00007F
FFFFFFFE
FFFFFFFE
FFFFFFF8
FFFFFFE0
FCFF8000
FC7FE000
FC1FF000
FC0FFC00
FC03FF00
FC01FF80
FC007FE0
FC003FF0
FC000FFC
FC0007FF
00000000
0003F000
0003E000
0003E000
0003E000
0003C000
0003C000
0003C000
0007C000
ENDCHAR
STARTCHAR 0157
ENCODING 343
SWIDTH 450 0
DWIDTH 18 0
BBX 15 31 1 -9
BITMAP
01FE
0FFE
1FFE
3FFE
3FFE
7F80
7F00
7E00
7E00
7E00
7E00
7E00
7E00
7E00
7E00
7E00
7E00
7E00
7E00
7E00
7E00
7E00
0000
7E00
7C00
7C00
7C00
7800
7800
7800
F800
ENDCHAR
STARTCHAR 0158
ENCODING 344
SWIDTH 900 0
DWIDTH 36 0
BBX 32 40 2 0
BITMAP
03F00FC0
03F01F80
01F83F00
00FC3E00
007C7E00
007EFC00
003FF800
001FF800
000FF000
000FE000
0007C000
00000000
00000000
FFFFFFE0
FFFFFFF8
FFFFFFFE
FFFFFFFE
FFFFFFFF
FC00007F
FC00003F
FC00003F
FC00003F
FC00003F
FC00003F
FC00003F
FC00007F
FFFFFFFE
FFFFFFFE
FFFFFFF8
FFFFFFE0
FCFF8000
FC7FE000
FC1FF000
FC0FFC00
FC03FF00
FC01FF80
FC007FE0
FC003FF0
FC000FFC
FC0007FF
ENDCHAR
STARTCHAR 0159
ENCODING 345
SWIDTH 450 0
DWIDTH 18 0
BBX 20 34 1 0
BITMAP
FC03F0
FC07E0
7E0FC0
3F0F80
1F1F80
1FBF00
0FFE00
07FE00
03FC00
03F800
01F000
000000
01FE00
0FFE00
1FFE00
3FFE00
3FFE00
7F8000
7F0000
7E0000
7E0000
7E0000
7E0000
7E0000
7E0000
7E0000
7E0000
7E0000
7E0000
7E0000
7E0000
7E0000
7E0000
7E0000
ENDCHAR
STARTCHAR 015A
ENCODING 346
SWIDTH 800 0
DWIDTH 32 0
BBX 29 39 2 0
BITMAP
0001F800
0003F000
0003F000
0007E000
0007C000
000F8000
001F0000
001F0000
00000000
00000000
00000000
00000000
0FFF8000
3FFF8000
7FFF8000
7FFF8000
FFFF8000
FE000000
FC000000
FC000000
FC000000
FC000000
FE000000
FFFFFF80
FFFFFFE0
7FFFFFF0
3FFFFFF0
0FFFFFF8
000003F8
000001F8
000001F8
000001F8
000001F8
000003F8
FFFFFFF8
FFFFFFF0
FFFFFFF0
FFFFFFE0
FFFFFF80
ENDCHAR
STARTCHAR 015B
ENCODING 347
SWIDTH 750 0
DWIDTH 30 0
BBX 26 33 2 0
BITMAP
0003F000
0007E000
0007E000
000FC000
000F8000
001F0000
003E0000
003E0000
00000000
00000000
00000000
00000000
3FFC0000
7FFC0000
FFFC0000
FFFC0000
FC000000
FC000000
FC000000
FC000000
FFFFFE00
FFFFFF80
7FFFFF80
1FFFFFC0
00000FC0
00000FC0
00000FC0
00000FC0
FFFFFFC0
FFFFFFC0
FFFFFFC0
FFFFFF80
FFFFFE00
ENDCHAR
STARTCHAR 015E
ENCODING 350
SWIDTH 800 0
DWIDTH 32 0
BBX 29 36 2 -9
BITMAP
0FFF8000
3FFF8000
7FFF8000
7FFF8000
FFFF8000
FE000000
FC000000
FC000000
FC000000
FC000000
FE000000
FFFFFF80
FFFFFFE0
7FFFFFF0
3FFFFFF0
0FFFFFF8
000003F8
000001F8
000001F8
000001F8
000001F8
000003F8
FFFFFFF8
FFFFFFF0
FFFFFFF0
FFFFFFE0
FFFFFF80
00000000
000FC000
000F8000
000F8000
000F8000
000F0000
000F0000
000F0000
001F0000
ENDCHAR
STARTCHAR 015F
ENCODING 351
SWIDTH 750 0
DWIDTH 30 0
BBX 26 30 2 -9
BITMAP
3FFC0000
7FFC0000
FFFC0000
FFFC0000
FC000000
FC000000
FC000000
FC000000
FFFFFE00
FFFFFF80
7FFFFF80
1FFFFFC0
00000FC0
00000FC0
00000FC0
00000FC0
FFFFFFC0
FFFFFFC0
FFFFFFC0
FFFFFF80
FFFFFE00
00000000
003F0000
003E0000
003E0000
003E0000
003C0000
003C0000
003C0000
007C0000
ENDCHAR
STARTCHAR 0160
ENCODING 352
SWIDTH 800 0
DWIDTH 32 0
BBX 29 40 2 0
BITMAP
07E01F80
07E03F00
03F07E00
01F87C00
00F8FC00
00FDF800
007FF000
003FF000
001FE000
001FC000
000F8000
00000000
00000000
0FFF8000
3FFF8000
7FFF8000
7FFF8000
FFFF8000
FE000000
FC000000
FC000000
FC000000
FC000000
FE000000
FFFFFF80
FFFFFFE0
7FFFFFF0
3FFFFFF0
0FFFFFF8
000003F8
000001F8
000001F8
000001F8
000001F8
000003F8
FFFFFFF8
FFFFFFF0
FFFFFFF0
FFFFFFE0
FFFFFF80
ENDCHAR
STARTCHAR 0161
ENCODING 353
SWIDTH 750 0
DWIDTH 30 0
BBX 26 34 2 0
BITMAP
1F807E00
1F80FC00
0FC1F800
07E1F000
03E3F000
03F7E000
01FFC000
00FFC000
007F8000
007F0000
003E0000
00000000
00000000
3FFC0000
7FFC0000
FFFC0000
FFFC0000
FC000000
FC000000
FC000000
FC000000
FFFFFE00
FFFFFF80
7FFFFF80
1FFFFFC0
00000FC0
00000FC0
00000FC0
00000FC0
FFFFFFC0
FFFFFFC0
FFFFFFC0
FFFFFF80
FFFFFE00
ENDCHAR
STARTCHAR 0162
ENCODING 354
SWIDTH 775 0
DWIDTH 31 0
BBX 28 36 1 -9
BITMAP
FFFFFFF0
FFFFFFF0
FFFFFFF0
FFFFFFF0
FFFFFFF0
001F8000
001F8000
001F8000
001F8000
001F8000
001F8000
001F8000
001F8000
001F8000
001F8000
001F8000
001F8000
001F8000
001F8000
001F8000
001F8000
001F8000
001F8000
001F8000
001F8000
001F8000
001F8000
00000000
001F8000
001F0000
001F0000
001F0000
001E0000
001E0000
001E0000
003E0000
ENDCHAR
STARTCHAR 0163
ENCODING 355
SWIDTH 425 0
DWIDTH 17 0
BBX 16 37 1 -9
BITMAP
1F80
1F80
1F80
1F80
1F80
1F80
FFFF
FFFF
FFFF
FFFF
FFFF
1F80
1F80
1F80
1F80
1F80
1F80
1F80
1F80
1F80
1F80
1F80
1F80
1F80
1F80
1F80
1F80
1F80
0000
1F80
1F00
1F00
1F00
1E00
1E00
1E00
3E00
ENDCHAR
STARTCHAR 0164
ENCODING 356
SWIDTH 775 0
DWIDTH 31 0
BBX 28 40 1 0
BITMAP
07E01F80
07E03F00
03F07E00
01F87C00
00F8FC00
00FDF800
007FF000
003FF000
001FE000
001FC000
000F8000
00000000
00000000
FFFFFFF0
FFFFFFF0
FFFFFFF0
FFFFFFF0
FFFFFFF0
001F8000
001F8000
001F8000
001F8000
001F8000
001F8000
001F8000
001F8000
001F8000
001F8000
001F8000
001F8000
001F8000
001F8000
001F8000
001F8000
001F8000
001F8000
001F8000
001F8000
001F8000
001F8000
ENDCHAR
STARTCHAR 0165
ENCODING 357
SWIDTH 600 0
DWIDTH 24 0
BBX 23 29 1 0
BITMAP
00007E
1F807E
1F807E
1F807C
1F807C
1F807C
1F807C
FFFF78
FFFF78
FFFF78
FFFF00
FFFF00
1F8000
1F8000
1F8000
1F8000
1F8000
1F8000
1F8000
1F8000
1F8000
1F8000
1F8000
1F8000
1F8000
1F8000
1F8000
1F8000
1F8000
ENDCHAR
STARTCHAR 0166
ENCODING 358
SWIDTH 775 0
DWIDTH 31 0
BBX 28 27 1 0
BITMAP
FFFFFFF0
FFFFFFF0
FFFFFFF0
FFFFFFF0
FFFFFFF0
001F8000
001F8000
001F8000
001F8000
001F8000
001F8000
001F8000
03FFFC00
03FFFC00
03FFFC00
03FFFC00
03FFFC00
001F8000
001F8000
001F8000
001F8000
001F8000
001F8000
001F8000
001F8000
001F8000
001F8000
ENDCHAR
STARTCHAR 0167
ENCODING 359
SWIDTH 425 0
DWIDTH 17 0
BBX 16 28 1 0
BITMAP
1F80
1F80
1F80
1F80
1F80
1F80
FFFF
FFFF
FFFF
FFFF
FFFF
1F80
1F80
1F80
1F80
1F80
7FFE
7FFE
7FFE
7FFE
7FFE
1F80
1F80
1F80
1F80
1F80
1F80
1F80
ENDCHAR
STARTCHAR 0168
ENCODING 360
SWIDTH 875 0
DWIDTH 35 0
BBX 31 36 2 0
BITMAP
07FFFFC0
07FFFFC0
07FFFFC0
07FFFFC0
00000000
00000000
00000000
00000000
00000000
FC00007E
FC00007E
FC00007E
FC00007E
FC00007E
FC00007E
FC00007E
FC00007E
FC00007E
FC00007E
FC00007E
FC00007E
FC00007E
FC00007E
FC00007E
FC00007E
FC00007E
FC00007E
FC00007E
FC00007E
FE0000FE
FF0001FE
7FFFFFFC
7FFFFFFC
3FFFFFF8
1FFFFFF0
07FFFFC0
ENDCHAR
STARTCHAR 0169
ENCODING 361
SWIDTH 800 0
DWIDTH 32 0
BBX 28 30 2 0
BITMAP
1FFFFF00
1FFFFF00
1FFFFF00
1FFFFF00
00000000
00000000
00000000
00000000
FC0003F0
FC0003F0
FC0003F0
FC0003F0
FC0003F0
FC0003F0
FC0003F0
FC0003F0
FC0003F0
FC0003F0
FC0003F0
FC0003F0
FC0003F0
FC0003F0
FC0003F0
FE0007F0
FF000FF0
7FFFFFE0
7FFFFFE0
3FFFFFC0
1FFFFF80
07FFFE00
ENDCHAR
STARTCHAR 016A
ENCODING 362
SWIDTH 875 0
DWIDTH 35 0
BBX 31 36 2 0
BITMAP
07FFFFC0
07FFFFC0
07FFFFC0
07FFFFC0
00000000
00000000
00000000
00000000
00000000
FC00007E
FC00007E
FC00007E
FC00007E
FC00007E
FC00007E
FC00007E
FC00007E
FC00007E
FC00007E
FC00007E
FC00007E
FC00007E
FC00007E
FC00007E
FC00007E
FC00007E
FC00007E
FC00007E
FC00007E
FE0000FE
FF0001FE
7FFFFFFC
7FFFFFFC
3FFFFFF8
1FFFFFF0
07FFFFC0
ENDCHAR
STARTCHAR 016B
ENCODING 363
SWIDTH 800 0
DWIDTH 32 0
BBX 28 30 2 0
BITMAP
1FFFFF00
1FFFFF00
1FFFFF00
1FFFFF00
00000000
00000000
00000000
00000000
FC0003F0
FC0003F0
FC0003F0
FC0003F0
FC0003F0
FC0003F0
FC0003F0
FC0003F0
FC0003F0
FC0003F0
FC0003F0
FC0003F0
FC0003F0
FC0003F0
FC0003F0
FE0007F0
FF000FF0
7FFFFFE0
7FFFFFE0
3FFFFFC0
1FFFFF80
07FFFE00
ENDCHAR
STARTCHAR 016C
ENCODING 364
SWIDTH 875 0
DWIDTH 35 0
BBX 31 40 2 0
BITMAP
01E00F00
01E00F00
01E00F00
01E00F00
01F01F00
01FFFF00
00FFFE00
00FFFE00
003FF800
00000000
00000000
00000000
00000000
FC00007E
FC00007E
FC00007E
FC00007E
FC00007E
FC00007E
FC00007E
FC00007E
FC00007E
FC00007E
FC00007E
FC00007E
FC00007E
FC00007E
FC00007E
FC00007E
FC00007E
FC00007E
FC00007E
FC00007E
FE0000FE
FF0001FE
7FFFFFFC
7FFFFFFC
3FFFFFF8
1FFFFFF0
07FFFFC0
ENDCHAR
STARTCHAR 016D
ENCODING 365
SWIDTH 800 0
DWIDTH 32 0
BBX 28 34 2 0
BITMAP
07803C00
07803C00
07803C00
07803C00
07C07C00
07FFFC00
03FFF800
03FFF800
00FFE000
00000000
00000000
00000000
FC0003F0
FC0003F0
FC0003F0
FC0003F0
FC0003F0
FC0003F0
FC0003F0
FC0003F0
FC0003F0
FC0003F0
FC0003F0
FC0003F0
FC0003F0
FC0003F0
FC0003F0
FE0007F0
FF000FF0
7FFFFFE0
7FFFFFE0
3FFFFFC0
1FFFFF80
07FFFE00
ENDCHAR
STARTCHAR 016E
ENCODING 366
SWIDTH 875 0
DWIDTH 35 0
BBX 31 40 2 0
BITMAP
001FF800
003FFC00
007FFE00
00700E00
00700E00
00700E00
00700E00
00700E00
00700E00
003FFC00
001FF800
00000000
00000000
FC00007E
FC00007E
FC00007E
FC00007E
FC00007E
FC00007E
FC00007E
FC00007E
FC00007E
FC00007E
FC00007E
FC00007E
FC00007E
FC00007E
FC00007E
FC00007E
FC00007E
FC00007E
FC00007E
FC00007E
FE0000FE
FF0001FE
7FFFFFFC
7FFFFFFC
3FFFFFF8
1FFFFFF0
07FFFFC0
ENDCHAR
STARTCHAR 016F
ENCODING 367
SWIDTH 800 0
DWIDTH 32 0
BBX 28 34 2 0
BITMAP
007FE000
00FFF000
01FFF800
01C03800
01C03800
01C03800
01C03800
01C03800
01C03800
00FFF000
007FE000
00000000
FC0003F0
FC0003F0
FC0003F0
FC0003F0
FC0003F0
FC0003F0
FC0003F0
FC0003F0
FC0003F0
FC0003F0
FC0003F0
FC0003F0
FC0003F0
FC0003F0
FC0003F0
FE0007F0
FF000FF0
7FFFFFE0
7FFFFFE0
3FFFFFC0
1FFFFF80
07FFFE00
ENDCHAR
STARTCHAR 0170
ENCODING 368
SWIDTH 875 0
DWIDTH 35 0
BBX 31 39 2 0
BITMAP
001F83F0
003F07E0
003F07E0
007E0FC0
007C1F80
00F81F00
01F03E00
01F03E00
00000000
00000000
00000000
00000000
FC00007E
FC00007E
FC00007E
FC00007E
FC00007E
FC00007E
FC00007E
FC00007E
FC00007E
FC00007E
FC00007E
FC00007E
FC00007E
FC00007E
FC00007E
FC00007E
FC00007E
FC00007E
FC00007E
FC00007E
FE0000FE
FF0001FE
7FFFFFFC
7FFFFFFC
3FFFFFF8
1FFFFFF0
07FFFFC0
ENDCHAR
STARTCHAR 0171
ENCODING 369
SWIDTH 800 0
DWIDTH 32 0
BBX 28 33 2 0
BITMAP
003F07E0
007E0FC0
007E0FC0
00FC1F80
00F83F00
01F03E00
03E07C00
03E07C00
00000000
00000000
00000000
FC0003F0
FC0003F0
FC0003F0
FC0003F0
FC0003F0
FC0003F0
FC0003F0
FC0003F0
FC0003F0
FC0003F0
FC0003F0
FC0003F0
FC0003F0
FC0003F0
FC0003F0
FE0007F0
FF000FF0
7FFFFFE0
7FFFFFE0
3FFFFFC0
1FFFFF80
07FFFE00
ENDCHAR
STARTCHAR 0172
ENCODING 370
SWIDTH 875 0
DWIDTH 35 0
BBX 31 36 2 -9
BITMAP
FC00007E
FC00007E
FC00007E
FC00007E
FC00007E
FC00007E
FC00007E
FC00007E
FC00007E
FC00007E
FC00007E
FC00007E
FC00007E
FC00007E
FC00007E
FC00007E
FC00007E
FC00007E
FC00007E
FC00007E
FE0000FE
FF0001FE
7FFFFFFC
7FFFFFFC
3FFFFFF8
1FFFFFF0
07FFFFC0
0003E000
000F8000
001F0000
001F0000
001F0000
001FFC00
001FFC00
001FFC00
000FFC00
ENDCHAR
STARTCHAR 0173
ENCODING 371
SWIDTH 800 0
DWIDTH 32 0
BBX 28 31 2 -9
BITMAP
FC0003F0
FC0003F0
FC0003F0
FC0003F0
FC0003F0
FC0003F0
FC0003F0
FC0003F0
FC0003F0
FC0003F0
FC0003F0
FC0003F0
FC0003F0
FC0003F0
FC0003F0
FE0007F0
FF000FF0
7FFFFFE0
7FFFFFE0
3FFFFFC0
1FFFFF80
07FFFE00
000F8000
003E0000
007C0000
007C0000
007C0000
007FF000
007FF000
007FF000
003FF000
ENDCHAR
STARTCHAR 0174
ENCODING 372
SWIDTH 1350 0
DWIDTH 54 0
BBX 52 41 1 -1
BITMAP
000001F0000000
000003F8000000
000003FC000000
000007FC000000
00000FFE000000
00001FBF000000
00001F1F800000
00003F0F800000
00007E0FC00000
0000FC07E00000
0000FC03F00000
00000000000000
000000F0000000
FC0001F80007F0
FE0003FC0007F0
FE0003FC0007E0
7F0007FC000FE0
7F0007FE000FC0
3F000FFE001FC0
3F800FFF001F80
1F800FFF001F80
1FC01FBF803F00
1FC01F9F803F00
0FC03F1F807F00
0FE03F0FC07E00
07E07F0FC0FE00
07F07E07E0FC00
07F0FE07E0FC00
03F0FC07F1F800
03F8FC03F1F800
01F9F803F3F800
01FDF801FBF000
00FFF001FBF000
00FFF000FFE000
00FFE000FFE000
007FE0007FC000
007FC0007FC000
003FC0007FC000
003F80003F8000
001F80003F8000
000F00000E0000
ENDCHAR
STARTCHAR 0175
ENCODING 373
SWIDTH 1100 0
DWIDTH 44 0
BBX 42 35 1 -1
BITMAP
00003E000000
00007F000000
00007F800000
0000FF800000
0001FFC00000
0003F7E00000
0003E3F00000
0007E1F00000
000FC1F80000
001F80FC0000
001F807E0000
000000000000
00001E000000
FC003F000FC0
FC003F800FC0
7E007F800F80
7E007F801F80
3F00FFC01F80
3F00FFC03F00
3F01FFE03F00
1F81FBE07E00
1F83F3F07E00
0FC3F3F0FC00
0FC7E1F8FC00
07C7E1F8F800
07E7C0F9F800
07EFC0FDF800
03FF807FF000
03FF807FF000
01FF003FE000
01FF003FE000
00FE001FC000
00FE001FC000
00FC000F8000
007800070000
ENDCHAR
STARTCHAR 0176
ENCODING 374
SWIDTH 975 0
DWIDTH 39 0
BBX 37 40 1 0
BITMAP
0000F80000
0001FC0000
0001FE0000
0003FE0000
0007FF0000
000FDF8000
000F8FC000
001F87C000
003F07E000
007E03F000
007E01F800
0000000000
0000000000
FF000007F8
7F80000FE0
3FC0003FC0
1FE0007F80
0FF000FF00
07F801FE00
03FE03FC00
01FF07F800
007F8FF000
003FFFC000
001FFF8000
000FFF0000
0007FE0000
0003FC0000
0001F80000
0001F80000
0001F80000
0001F80000
0001F80000
0001F80000
0001F80000
0001F80000
0001F80000
0001F80000
0001F80000
0001F80000
0001F80000
ENDCHAR
STARTCHAR 0177
ENCODING 375
SWIDTH 825 0
DWIDTH 33 0
BBX 29 41 2 -7
BITMAP
000F8000
001FC000
001FE000
003FE000
007FF000
00FDF800
00F8FC00
01F87C00
03F07E00
07E03F00
07E01F80
00000000
FC0001F8
FC0001F8
FC0001F8
FC0001F8
FC0001F8
FC0001F8
FC0001F8
FC0001F8
FC0001F8
FC0001F8
FC0001F8
FC0001F8
FC0001F8
FC0001F8
FE0001F8
FFFFFFF8
7FFFFFF8
3FFFFFF8
1FFFFFF8
07FFFFF8
000001F8
000001F8
000001F8
000003F8
000FFFF8
000FFFF0
000FFFF0
000FFFE0
000FFF80
ENDCHAR
STARTCHAR 0178
ENCODING 376
SWIDTH 975 0
DWIDTH 39 0
BBX 37 35 1 0
BITMAP
003F07E000
003F07E000
003F07E000
003F07E000
003F07E000
003F07E000
0000000000
0000000000
FF000007F8
7F80000FE0
3FC0003FC0
1FE0007F80
0FF000FF00
07F801FE00
03FE03FC00
01FF07F800
007F8FF000
003FFFC000
001FFF8000
000FFF0000
0007FE0000
0003FC0000
0001F80000
0001F80000
0001F80000
0001F80000
0001F80000
0001F80000
0001F80000
0001F80000
0001F80000
0001F80000
0001F80000
0001F80000
0001F80000
ENDCHAR
STARTCHAR 0179
ENCODING 377
SWIDTH 850 0
DWIDTH 34 0
BBX 31 39 1 0
BITMAP
00007E00
0000FC00
0000FC00
0001F800
0001F000
0003E000
0007C000
0007C000
00000000
00000000
00000000
00000000
7FFFFFF8
7FFFFFFC
7FFFFFFC
7FFFFFFC
7FFFFFFC
000007F8
00001FF0
00003FE0
00007FC0
0000FF80
0001FE00
0003FC00
000FF800
001FF000
003FE000
007FC000
00FF8000
01FE0000
07FC0000
0FF80000
1FF00000
3FE00000
7FFFFFFE
7FFFFFFE
FFFFFFFE
7FFFFFFE
7FFFFFFE
ENDCHAR
STARTCHAR 017A
ENCODING 378
SWIDTH 700 0
DWIDTH 28 0
BBX 26 33 1 0
BITMAP
0003F000
0007E000
0007E000
000FC000
000F8000
001F0000
003E0000
003E0000
00000000
00000000
00000000
00000000
7FFFFF00
7FFFFF80
7FFFFF80
7FFFFF80
0000FF00
0001FE00
0003F800
0007F000
001FE000
003FC000
007F8000
00FF0000
01FC0000
07F80000
0FF00000
1FE00000
3FC00000
7FFFFFC0
FFFFFFC0
7FFFFFC0
7FFFFFC0
ENDCHAR
STARTCHAR 017B
ENCODING 379
SWIDTH 850 0
DWIDTH 34 0
BBX 31 35 1 0
BITMAP
000FC000
000FC000
000FC000
000FC000
000FC000
000FC000
00000000
00000000
7FFFFFF8
7FFFFFFC
7FFFFFFC
7FFFFFFC
7FFFFFFC
000007F8
00001FF0
00003FE0
00007FC0
0000FF80
0001FE00
0003FC00
000FF800
001FF000
003FE000
007FC000
00FF8000
01FE0000
07FC0000
0FF80000
1FF00000
3FE00000
7FFFFFFE
7FFFFFFE
FFFFFFFE
7FFFFFFE
7FFFFFFE
ENDCHAR
STARTCHAR 017C
ENCODING 380
SWIDTH 700 0
DWIDTH 28 0
BBX 26 29 1 0
BITMAP
007E0000
007E0000
007E0000
007E0000
007E0000
007E0000
00000000
00000000
7FFFFF00
7FFFFF80
7FFFFF80
7FFFFF80
0000FF00
0001FE00
0003F800
0007F000
001FE000
003FC000
007F8000
00FF0000
01FC0000
07F80000
0FF00000
1FE00000
3FC00000
7FFFFFC0
FFFFFFC0
7FFFFFC0
7FFFFFC0
ENDCHAR
STARTCHAR 017D
ENCODING 381
SWIDTH 850 0
DWIDTH 34 0
BBX 31 40 1 0
BITMAP
03F00FC0
03F01F80
01F83F00
00FC3E00
007C7E00
007EFC00
003FF800
001FF800
000FF000
000FE000
0007C000
00000000
00000000
7FFFFFF8
7FFFFFFC
7FFFFFFC
7FFFFFFC
7FFFFFFC
000007F8
00001FF0
00003FE0
00007FC0
0000FF80
0001FE00
0003FC00
000FF800
001FF000
003FE000
007FC000
00FF8000
01FE0000
07FC0000
0FF80000
1FF00000
3FE00000
7FFFFFFE
7FFFFFFE
FFFFFFFE
7FFFFFFE
7FFFFFFE
ENDCHAR
STARTCHAR 017E
ENCODING 382
SWIDTH 700 0
DWIDTH 28 0
BBX 26 34 1 0
BITMAP
1F807E00
1F80FC00
0FC1F800
07E1F000
03E3F000
03F7E000
01FFC000
00FFC000
007F8000
007F0000
003E0000
00000000
00000000
7FFFFF00
7FFFFF80
7FFFFF80
7FFFFF80
0000FF00
0001FE00
0003F800
0007F000
001FE000
003FC000
007F8000
00FF0000
01FC0000
07F80000
0FF00000
1FE00000
3FC00000
7FFFFFC0
FFFFFFC0
7FFFFFC0
7FFFFFC0
ENDCHAR
STARTCHAR 0192
ENCODING 402
SWIDTH 550 0
DWIDTH 22 0
BBX 20 31 1 -4
BITMAP
0003F0
000FF0
001FF0
003FF0
003F00
007E00
007C00
007C00
007800
00F800
1FFFE0
1FFFE0
1FFFE0
1FFFE0
00F000
01F000
01F000
01F000
01F000
01F000
01E000
03E000
03E000
03E000
03E000
07C000
0FC000
FF8000
FF8000
FF0000
F80000
ENDCHAR
STARTCHAR 0218
ENCODING 536
SWIDTH 800 0
DWIDTH 32 0
BBX 29 36 2 -9
BITMAP
0FFF8000
3FFF8000
7FFF8000
7FFF8000
FFFF8000
FE000000
FC000000
FC000000
FC000000
FC000000
FE000000
FFFFFF80
FFFFFFE0
7FFFFFF0
3FFFFFF0
0FFFFFF8
000003F8
000001F8
000001F8
000001F8
000001F8
000003F8
FFFFFFF8
FFFFFFF0
FFFFFFF0
FFFFFFE0
FFFFFF80
00000000
000FC000
000F8000
000F8000
000F8000
000F0000
000F0000
000F0000
001F0000
ENDCHAR
STARTCHAR 0219
ENCODING 537
SWIDTH 750 0
DWIDTH 30 0
BBX 26 30 2 -9
BITMAP
3FFC0000
7FFC0000
FFFC0000
FFFC0000
FC000000
FC000000
FC000000
FC000000
FFFFFE00
FFFFFF80
7FFFFF80
1FFFFFC0
00000FC0
00000FC0
00000FC0
00000FC0
FFFFFFC0
FFFFFFC0
FFFFFFC0
FFFFFF80
FFFFFE00
00000000
003F0000
003E0000
003E0000
003E0000
003C0000
003C0000
003C0000
007C0000
ENDCHAR
STARTCHAR 021A
ENCODING 538
SWIDTH 775 0
DWIDTH 31 0
BBX 28 36 1 -9
BITMAP
FFFFFFF0
FFFFFFF0
FFFFFFF0
FFFFFFF0
FFFFFFF0
001F8000
001F8000
001F8000
001F8000
001F8000
001F8000
001F8000
001F8000
001F8000
001F8000
001F8000
001F8000
001F8000
001F8000
001F8000
001F8000
001F8000
001F8000
001F8000
001F8000
001F8000
001F8000
00000000
001F8000
001F0000
001F0000
001F0000
001E0000
001E0000
001E0000
003E0000
ENDCHAR
STARTCHAR 021B
ENCODING 539
SWIDTH 425 0
DWIDTH 17 0
BBX 16 37 1 -9
BITMAP
1F80
1F80
1F80
1F80
1F80
1F80
FFFF
FFFF
FFFF
FFFF
FFFF
1F80
1F80
1F80
1F80
1F80
1F80
1F80
1F80
1F80
1F80
1F80
1F80
1F80
1F80
1F80
1F80
1F80
0000
1F80
1F00
1F00
1F00
1E00
1E00
1E00
3E00
ENDCHAR
STARTCHAR 02C6
ENCODING 710
SWIDTH 625 0
DWIDTH 25 0
BBX 20 11 3 23
BITMAP
01F000
03F800
03FC00
07FC00
0FFE00
1FBF00
1F1F80
3F0F80
7E0FC0
FC07E0
FC03F0
ENDCHAR
STARTCHAR 02C7
ENCODING 711
SWIDTH 625 0
DWIDTH 25 0
BBX 20 11 3 23
BITMAP
FC03F0
FC07E0
7E0FC0
3F0F80
1F1F80
1FBF00
0FFE00
07FE00
03FC00
03F800
01F000
ENDCHAR
STARTCHAR 02D8
ENCODING 728
SWIDTH 525 0
DWIDTH 21 0
BBX 17 9 2 25
BITMAP
F00780
F00780
F00780
F00780
F80F80
FFFF80
7FFF00
7FFF00
1FFC00
ENDCHAR
STARTCHAR 02D9
ENCODING 729
SWIDTH 250 0
DWIDTH 10 0
BBX 6 6 2 23
BITMAP
FC
FC
FC
FC
FC
FC
ENDCHAR
STARTCHAR 02DA
ENCODING 730
SWIDTH 450 0
DWIDTH 18 0
BBX 14 11 2 23
BITMAP
3FF0
7FF8
FFFC
E01C
E01C
E01C
E01C
E01C
E01C
7FF8
3FF0
ENDCHAR
STARTCHAR 02DB
ENCODING 731
SWIDTH 400 0
DWIDTH 16 0
BBX 11 9 2 -9
BITMAP
1F80
7C00
F800
F800
F800
FFE0
FFE0
FFE0
7FE0
ENDCHAR
STARTCHAR 02DC
ENCODING 732
SWIDTH 650 0
DWIDTH 26 0
BBX 21 4 2 26
BITMAP
FFFFF8
FFFFF8
FFFFF8
FFFFF8
ENDCHAR
STARTCHAR 02DD
ENCODING 733
SWIDTH 675 0
DWIDTH 27 0
BBX 21 8 3 25
BITMAP
0FC1F8
1F83F0
1F83F0
3F07E0
3E0FC0
7C0F80
F81F00
F81F00
ENDCHAR
STARTCHAR 0394
ENCODING 916
SWIDTH 1025 0
DWIDTH 41 0
BBX 40 28 1 0
BITMAP
00007C0000
0000FE0000
0001FF0000
0001FF8000
0003FF8000
0007FFC000
0007FFE000
000FEFE000
000FE7F000
001FC7F800
003F83F800
003F81FC00
007F01FC00
00FF00FE00
00FE00FF00
01FC007F00
01FC003F80
03F8003FC0
07F0001FC0
07F0000FE0
0FE0000FE0
1FC00007F0
1FC00007F8
3FFFFFFFF8
7FFFFFFFFC
7FFFFFFFFE
FFFFFFFFFE
FFFFFFFFFF
ENDCHAR
STARTCHAR 039B
ENCODING 923
SWIDTH 1025 0
DWIDTH 41 0
BBX 39 28 1 0
BITMAP
00007C0000
0000FE0000
0001FF0000
0001FF8000
0003FF8000
0007FFC000
0007FFC000
000FEFE000
001FCFF000
001FC7F000
003F83F800
003F83FC00
007F01FC00
00FE01FE00
00FE00FE00
01FC007F00
03FC007F80
03F8003F80
07F0001FC0
07F0001FC0
0FE0000FE0
1FE0000FF0
1FC00007F0
3F800003F8
7F800003FC
7F000001FC
FF000001FE
FE000000FE
ENDCHAR
STARTCHAR 03A9
ENCODING 937
SWIDTH 875 0
DWIDTH 35 0
BBX 31 27 2 0
BITMAP
07FFFFC0
3FFFFFF0
7FFFFFFC
7FFFFFFC
FFFFFFFE
FE0000FE
FC00007E
FC00007E
FC00007E
FC00007E
FC00007E
FC00007E
FC00007E
FC00007E
FC00007E
7C00007C
7E0000FC
3E0000F8
1F0001F0
1F8003E0
0F8003E0
07C007C0
FFC007FE
FFC007FE
FFC007FE
FFC007FE
FFC007FE
ENDCHAR
STARTCHAR 03BC
ENCODING 956
SWIDTH 825 0
DWIDTH 33 0
BBX 29 28 2 -6
BITMAP
FC0001F8
FC0001F8
FC0001F8
FC0001F8
FC0001F8
FC0001F8
FC0001F8
FC0001F8
FC0001F8
FC0001F8
FC0001F8
FC0001F8
FC0001F8
FC0001F8
FC0001F8
FC0003F8
FC0007F8
FFFFFFF0
FFFFFFF0
FFFFFFE0
FFFFFFC0
FFFFFE00
FC000000
FC000000
FC000000
FC000000
FC000000
FC000000
ENDCHAR
STARTCHAR 03C0
ENCODING 960
SWIDTH 825 0
DWIDTH 33 0
BBX 29 22 2 0
BITMAP
FFFFFFF8
FFFFFFF8
FFFFFFF8
FFFFFFF8
FFFFFFF8
FC0001F8
FC0001F8
FC0001F8
FC0001F8
FC0001F8
FC0001F8
FC0001F8
FC0001F8
FC0001F8
FC0001F8
FC0001F8
FC0001F8
FC0001F8
FC0001F8
FC0001F8
FC0001F8
FC0001F8
ENDCHAR
STARTCHAR 1E80
ENCODING 7808
SWIDTH 1350 0
DWIDTH 54 0
BBX 52 40 1 -1
BITMAP
00001F80000000
00000FC0000000
00000FC0000000
000007E0000000
000003E0000000
000001F0000000
000000F8000000
000000F8000000
00000000000000
00000000000000
00000000000000
000000F0000000
FC0001F80007F0
FE0003FC0007F0
FE0003FC0007E0
7F0007FC000FE0
7F0007FE000FC0
3F000FFE001FC0
3F800FFF001F80
1F800FFF001F80
1FC01FBF803F00
1FC01F9F803F00
0FC03F1F807F00
0FE03F0FC07E00
07E07F0FC0FE00
07F07E07E0FC00
07F0FE07E0FC00
03F0FC07F1F800
03F8FC03F1F800
01F9F803F3F800
01FDF801FBF000
00FFF001FBF000
00FFF000FFE000
00FFE000FFE000
007FE0007FC000
007FC0007FC000
003FC0007FC000
003F80003F8000
001F80003F8000
000F00000E0000
ENDCHAR
STARTCHAR 1E81
ENCODING 7809
SWIDTH 1100 0
DWIDTH 44 0
BBX 42 34 1 -1
BITMAP
0003F0000000
0001F8000000
0001F8000000
0000FC000000
00007C000000
00003E000000
00001F000000
00001F000000
000000000000
000000000000
000000000000
00001E000000
FC003F000FC0
FC003F800FC0
7E007F800F80
7E007F801F80
3F00FFC01F80
3F00FFC03F00
3F01FFE03F00
1F81FBE07E00
1F83F3F07E00
0FC3F3F0FC00
0FC7E1F8FC00
07C7E1F8F800
07E7C0F9F800
07EFC0FDF800
03FF807FF000
03FF807FF000
01FF003FE000
01FF003FE000
00FE001FC000
00FE001FC000
00FC000F8000
007800070000
ENDCHAR
STARTCHAR 1E82
ENCODING 7810
SWIDTH 1350 0
DWIDTH 54 0
BBX 52 40 1 -1
BITMAP
0000001F800000
0000003F000000
0000003F000000
0000007E000000
0000007C000000
000000F8000000
000001F0000000
000001F0000000
00000000000000
00000000000000
00000000000000
000000F0000000
FC0001F80007F0
FE0003FC0007F0
FE0003FC0007E0
7F0007FC000FE0
7F0007FE000FC0
3F000FFE001FC0
3F800FFF001F80
1F800FFF001F80
1FC01FBF803F00
1FC01F9F803F00
0FC03F1F807F00
0FE03F0FC07E00
07E07F0FC0FE00
07F07E07E0FC00
07F0FE07E0FC00
03F0FC07F1F800
03F8FC03F1F800
01F9F803F3F800
01FDF801FBF000
00FFF001FBF000
00FFF000FFE000
00FFE000FFE000
007FE0007FC000
007FC0007FC000
003FC0007FC000
003F80003F8000
001F80003F8000
000F00000E0000
ENDCHAR
STARTCHAR 1E83
ENCODING 7811
SWIDTH 1100 0
DWIDTH 44 0
BBX 42 34 1 -1
BITMAP
000003F00000
000007E00000
000007E00000
00000FC00000
00000F800000
00001F000000
00003E000000
00003E000000
000000000000
000000000000
000000000000
00001E000000
FC003F000FC0
FC003F800FC0
7E007F800F80
7E007F801F80
3F00FFC01F80
3F00FFC03F00
3F01FFE03F00
1F81FBE07E00
1F83F3F07E00
0FC3F3F0FC00
0FC7E1F8FC00
07C7E1F8F800
07E7C0F9F800
07EFC0FDF800
03FF807FF000
03FF807FF000
01FF003FE000
01FF003FE000
00FE001FC000
00FE001FC000
00FC000F8000
007800070000
ENDCHAR
STARTCHAR 1E84
ENCODING 7812
SWIDTH 1350 0
DWIDTH 54 0
BBX 52 36 1 -1
BITMAP
00007E0FC00000
00007E0FC00000
00007E0FC00000
00007E0FC00000
00007E0FC00000
00007E0FC00000
00000000000000
000000F0000000
FC0001F80007F0
FE0003FC0007F0
FE0003FC0007E0
7F0007FC000FE0
7F0007FE000FC0
3F000FFE001FC0
3F800FFF001F80
1F800FFF001F80
1FC01FBF803F00
1FC01F9F803F00
0FC03F1F807F00
0FE03F0FC07E00
07E07F0FC0FE00
07F07E07E0FC00
07F0FE07E0FC00
03F0FC07F1F800
03F8FC03F1F800
01F9F803F3F800
01FDF801FBF000
00FFF001FBF000
00FFF000FFE000
00FFE000FFE000
007FE0007FC000
007FC0007FC000
003FC0007FC000
003F80003F8000
001F80003F8000
000F00000E0000
ENDCHAR
STARTCHAR 1E85
ENCODING 7813
SWIDTH 1100 0
DWIDTH 44 0
BBX 42 30 1 -1
BITMAP
0007E0FC0000
0007E0FC0000
0007E0FC0000
0007E0FC0000
0007E0FC0000
0007E0FC0000
000000000000
00001E000000
FC003F000FC0
FC003F800FC0
7E007F800F80
7E007F801F80
3F00FFC01F80
3F00FFC03F00
3F01FFE03F00
1F81FBE07E00
1F83F3F07E00
0FC3F3F0FC00
0FC7E1F8FC00
07C7E1F8F800
07E7C0F9F800
07EFC0FDF800
03FF807FF000
03FF807FF000
01FF003FE000
01FF003FE000
00FE001FC000
00FE001FC000
00FC000F8000
007800070000
ENDCHAR
STARTCHAR 1EF2
ENCODING 7922
SWIDTH 975 0
DWIDTH 39 0
BBX 37 39 1 0
BITMAP
001F800000
000FC00000
000FC00000
0007E00000
0003E00000
0001F00000
0000F80000
0000F80000
0000000000
0000000000
0000000000
0000000000
FF000007F8
7F80000FE0
3FC0003FC0
1FE0007F80
0FF000FF00
07F801FE00
03FE03FC00
01FF07F800
007F8FF000
003FFFC000
001FFF8000
000FFF0000
0007FE0000
0003FC0000
0001F80000
0001F80000
0001F80000
0001F80000
0001F80000
0001F80000
0001F80000
0001F80000
0001F80000
0001F80000
0001F80000
0001F80000
0001F80000
ENDCHAR
STARTCHAR 1EF3
ENCODING 7923
SWIDTH 825 0
DWIDTH 33 0
BBX 29 40 2 -7
BITMAP
00FC0000
007E0000
007E0000
003F0000
001F0000
000F8000
0007C000
0007C000
00000000
00000000
00000000
FC0001F8
FC0001F8
FC0001F8
FC0001F8
FC0001F8
FC0001F8
FC0001F8
FC0001F8
FC0001F8
FC0001F8
FC0001F8
FC0001F8
FC0001F8
FC0001F8
FE0001F8
FFFFFFF8
7FFFFFF8
3FFFFFF8
1FFFFFF8
07FFFFF8
000001F8
000001F8
000001F8
000003F8
000FFFF8
000FFFF0
000FFFF0
000FFFE0
000FFF80
ENDCHAR
STARTCHAR 2013
ENCODING 8211
SWIDTH 700 0
DWIDTH 28 0
BBX 26 5 1 10
BITMAP
FFFFFFC0
FFFFFFC0
FFFFFFC0
FFFFFFC0
FFFFFFC0
ENDCHAR
STARTCHAR 2014
ENCODING 8212
SWIDTH 950 0
DWIDTH 38 0
BBX 36 5 1 10
BITMAP
FFFFFFFFF0
FFFFFFFFF0
FFFFFFFFF0
FFFFFFFFF0
FFFFFFFFF0
ENDCHAR
STARTCHAR 2018
ENCODING 8216
SWIDTH 225 0
DWIDTH 9 0
BBX 6 10 2 19
BITMAP
F8
F8
F8
FC
7C
7C
7C
7C
3C
3C
ENDCHAR
STARTCHAR 2019
ENCODING 8217
SWIDTH 225 0
DWIDTH 9 0
BBX 6 10 2 19
BITMAP
7C
FC
FC
F8
F8
F8
F8
F0
F0
F0
ENDCHAR
STARTCHAR 201A
ENCODING 8218
SWIDTH 225 0
DWIDTH 9 0
BBX 6 10 2 -3
BITMAP
7C
FC
FC
F8
F8
F8
F8
F0
F0
F0
ENDCHAR
STARTCHAR 201C
ENCODING 8220
SWIDTH 450 0
DWIDTH 18 0
BBX 15 10 2 19
BITMAP
F87C
F87C
F87C
FC7E
7C3E
7C3E
7C3E
7C3E
3C1E
3C1E
ENDCHAR
STARTCHAR 201D
ENCODING 8221
SWIDTH 450 0
DWIDTH 18 0
BBX 15 10 2 19
BITMAP
7C3E
FC7E
FC7E
F87C
F87C
F87C
F87C
F078
F078
F078
ENDCHAR
STARTCHAR 201E
ENCODING 8222
SWIDTH 450 0
DWIDTH 18 0
BBX 15 10 2 -3
BITMAP
7C3E
FC7E
FC7E
F87C
F87C
F87C
F87C
F078
F078
F078
ENDCHAR
STARTCHAR 2020
ENCODING 8224
SWIDTH 425 0
DWIDTH 17 0
BBX 16 27 1 0
BITMAP
03C0
03C0
03C0
03C0
03C0
03C0
FFFF
FFFF
FFFF
FFFF
03C0
03C0
03C0
03C0
03C0
03C0
03C0
03C0
03C0
03C0
03C0
03C0
03C0
03C0
03C0
03C0
03C0
ENDCHAR
STARTCHAR 2021
ENCODING 8225
SWIDTH 425 0
DWIDTH 17 0
BBX 16 27 1 0
BITMAP
03C0
03C0
03C0
03C0
03C0
03C0
FFFF
FFFF
FFFF
FFFF
03C0
03C0
03C0
03C0
03C0
03C0
03C0
FFFF
FFFF
FFFF
FFFF
03C0
03C0
03C0
03C0
03C0
03C0
ENDCHAR
STARTCHAR 2022
ENCODING 8226
SWIDTH 375 0
DWIDTH 15 0
BBX 11 11 2 8
BITMAP
3F80
7FE0
FFE0
FFE0
FFE0
FFE0
FFE0
FFE0
FFE0
7FE0
3F80
ENDCHAR
STARTCHAR 2026
ENCODING 8230
SWIDTH 1350 0
DWIDTH 54 0
BBX 49 6 2 0
BITMAP
FC0003F0001F80
FC0003F0001F80
FC0003F0001F80
FC0003F0001F80
FC0003F0001F80
FC0003F0001F80
ENDCHAR
STARTCHAR 2030
ENCODING 8240
SWIDTH 1450 0
DWIDTH 58 0
BBX 54 29 2 -1
BITMAP
3FFC0000000000
7FFE007C000000
FFFF0078000000
FFFF00F0000000
F00F01F0000000
F00F03E0000000
F00F03C0000000
F00F07C0000000
F00F0F80000000
F00F0F00000000
F00F1F00000000
FFFF3E00000000
FFFF7C00000000
7FFE7800000000
3FFCF9FFE0FFF0
0001F3FFF1FFF8
0001E7FFFBFFFC
0003E7FFFBFFFC
0007C7807BC03C
000F87807BC03C
000F07807BC03C
001F07807BC03C
003E07807BC03C
003C07807BC03C
007C07807BC03C
00F807FFFBFFFC
01F007FFFBFFFC
01E003FFF1FFF8
000001FFE0FFF0
ENDCHAR
STARTCHAR 2039
ENCODING 8249
SWIDTH 300 0
DWIDTH 12 0
BBX 9 16 1 5
BITMAP
0180
0380
0F80
1F80
3F80
7F00
FC00
F800
F800
FC00
7E00
3F80
1F80
0F80
0380
0180
ENDCHAR
STARTCHAR 203A
ENCODING 8250
SWIDTH 300 0
DWIDTH 12 0
BBX 9 16 1 5
BITMAP
C000
E000
F800
FC00
FE00
7F00
1F80
0F80
0F80
1F80
3F00
FE00
FC00
F800
E000
C000
ENDCHAR
STARTCHAR 2044
ENCODING 8260
SWIDTH 325 0
DWIDTH 13 0
BBX 23 27 -5 0
BITMAP
00003E
00003C
000078
0000F8
0001F0
0001E0
0003E0
0007C0
000780
000F80
001F00
003E00
003C00
007C00
00F800
00F000
01F000
03E000
07C000
078000
0F8000
1F0000
1E0000
3E0000
7C0000
F80000
F00000
ENDCHAR
STARTCHAR 2070
ENCODING 8304
SWIDTH 500 0
DWIDTH 20 0
BBX 16 15 2 13
BITMAP
3FFC
7FFE
FFFF
FFFF
F00F
F00F
F00F
F00F
F00F
F00F
F00F
FFFF
FFFF
7FFE
3FFC
ENDCHAR
STARTCHAR 2074
ENCODING 8308
SWIDTH 525 0
DWIDTH 21 0
BBX 17 13 2 14
BITMAP
F00780
F00780
F00780
F00780
F00780
F00780
FFFF80
FFFF80
FFFF80
FFFF80
000780
000780
000780
ENDCHAR
STARTCHAR 2075
ENCODING 8309
SWIDTH 500 0
DWIDTH 20 0
BBX 17 15 2 13
BITMAP
FFC000
FFC000
FFC000
FFC000
E00000
E00000
FFFE00
FFFF00
FFFF80
000780
000780
FFFF80
FFFF80
FFFF00
FFFE00
ENDCHAR
STARTCHAR 2076
ENCODING 8310
SWIDTH 500 0
DWIDTH 20 0
BBX 17 15 2 13
BITMAP
3FC000
7FC000
FFC000
FFC000
F00000
F00000
FFFF00
FFFF80
FFFF80
F00380
F00380
FFFF80
FFFF80
7FFF80
3FFF00
ENDCHAR
STARTCHAR 2077
ENCODING 8311
SWIDTH 475 0
DWIDTH 19 0
BBX 17 14 1 14
BITMAP
FFFF80
FFFF80
FFFF80
FFFF00
000F00
001E00
003C00
007800
00F000
01F000
03E000
07C000
0F8000
0F0000
ENDCHAR
STARTCHAR 2078
ENCODING 8312
SWIDTH 500 0
DWIDTH 20 0
BBX 16 15 2 13
BITMAP
3FFC
FFFE
FFFF
FFFF
F00F
F00F
FFFF
7FFC
FFFF
F00F
F00F
FFFF
FFFF
FFFF
3FFC
ENDCHAR
STARTCHAR 2079
ENCODING 8313
SWIDTH 525 0
DWIDTH 21 0
BBX 17 15 2 13
BITMAP
7FFE00
FFFF00
FFFF80
FFFF80
E00780
E00780
FFFF80
FFFF80
7FFF80
000780
000780
01FF80
01FF80
01FF00
01FE00
ENDCHAR
STARTCHAR 2080
ENCODING 8320
SWIDTH 500 0
DWIDTH 20 0
BBX 16 15 2 -1
BITMAP
3FFC
7FFE
FFFF
FFFF
F00F
F00F
F00F
F00F
F00F
F00F
F00F
FFFF
FFFF
7FFE
3FFC
ENDCHAR
STARTCHAR 2081
ENCODING 8321
SWIDTH 200 0
DWIDTH 8 0
BBX 4 13 2 0
BITMAP
F0
F0
F0
F0
F0
F0
F0
F0
F0
F0
F0
F0
F0
ENDCHAR
STARTCHAR 2082
ENCODING 8322
SWIDTH 500 0
DWIDTH 20 0
BBX 16 15 2 -1
BITMAP
01FC
01FF
01FF
01FF
0007
0007
7FFF
FFFF
FFFE
E000
E000
FFFF
FFFF
FFFF
FFFF
ENDCHAR
STARTCHAR 2083
ENCODING 8323
SWIDTH 475 0
DWIDTH 19 0
BBX 17 15 1 -1
BITMAP
00FE00
00FF00
00FF80
00FF80
000780
000780
FFFF80
FFFF00
FFFF80
000780
000780
FFFF80
FFFF80
FFFF80
FFFE00
ENDCHAR
STARTCHAR 2084
ENCODING 8324
SWIDTH 525 0
DWIDTH 21 0
BBX 17 13 2 0
BITMAP
F00780
F00780
F00780
F00780
F00780
F00780
FFFF80
FFFF80
FFFF80
FFFF80
000780
000780
000780
ENDCHAR
STARTCHAR 2085
ENCODING 8325
SWIDTH 500 0
DWIDTH 20 0
BBX 17 15 2 -1
BITMAP
FFC000
FFC000
FFC000
FFC000
E00000
E00000
FFFE00
FFFF00
FFFF80
000780
000780
FFFF80
FFFF80
FFFF00
FFFE00
ENDCHAR
STARTCHAR 2086
ENCODING 8326
SWIDTH 500 0
DWIDTH 20 0
BBX 17 15 2 -1
BITMAP
3FC000
7FC000
FFC000
FFC000
F00000
F00000
FFFF00
FFFF80
FFFF80
F00380
F00380
FFFF80
FFFF80
7FFF80
3FFF00
ENDCHAR
STARTCHAR 2087
ENCODING 8327
SWIDTH 475 0
DWIDTH 19 0
BBX 17 14 1 0
BITMAP
FFFF80
FFFF80
FFFF80
FFFF00
000F00
001E00
003C00
007800
00F000
01F000
03E000
07C000
0F8000
0F0000
ENDCHAR
STARTCHAR 2088
ENCODING 8328
SWIDTH 500 0
DWIDTH 20 0
BBX 16 15 2 -1
BITMAP
3FFC
FFFE
FFFF
FFFF
F00F
F00F
FFFF
7FFC
FFFF
F00F
F00F
FFFF
FFFF
FFFF
3FFC
ENDCHAR
STARTCHAR 2089
ENCODING 8329
SWIDTH 525 0
DWIDTH 21 0
BBX 17 15 2 -1
BITMAP
7FFE00
FFFF00
FFFF80
FFFF80
E00780
E00780
FFFF80
FFFF80
7FFF80
000780
000780
01FF80
01FF80
01FF00
01FE00
ENDCHAR
STARTCHAR 20AC
ENCODING 8364
SWIDTH 825 0
DWIDTH 33 0
BBX 32 27 0 0
BITMAP
007FFFFF
01FFFFFE
03FFFFFE
07FFFFFE
07FFFFFC
0FE00000
0FC00000
0FC00000
0FC00000
7FFFFFF0
7FFFFFF0
7FFFFFE0
FFFFFFE0
0FC00000
7FFFFFC0
7FFFFFC0
7FFFFF80
FFFFFF80
0FC00000
0FC00000
0FC00000
0FE00000
07FFFFFF
07FFFFFF
03FFFFFF
01FFFFFF
007FFFFF
ENDCHAR
STARTCHAR 2117
ENCODING 8471
SWIDTH 875 0
DWIDTH 35 0
BBX 31 27 2 0
BITMAP
07FFFF80
1FFFFFF0
3FFFFFF8
7C00007C
7000001C
F000001E
E000000E
E0FFF80E
E0FFFC0E
E0E00E0E
E0E00E0E
E0E00E0E
E0E00E0E
E0E00E0E
E0FFFE0E
E0FFFC0E
E0E0000E
E0E0000E
E0E0000E
E0E0000E
E000000E
F000001E
7000001C
7C00007C
3FFFFFF8
1FFFFFF0
07FFFF80
ENDCHAR
STARTCHAR 2122
ENCODING 8482
SWIDTH 1250 0
DWIDTH 50 0
BBX 46 18 2 10
BITMAP
FFFF1C000038
FFFF3E00003C
FFFF3F00007C
FFFF3F0000FC
03C03F8001FC
03C03FC001FC
03C03FE003FC
03C03DF007BC
03C03CF00FBC
03C03CF81F3C
03C03C7C1E3C
03C03C3E3C3C
03C03C1F783C
03C03C1FF83C
03C03C0FF03C
03C03C07E03C
03C03C03C03C
03C03C03803C
ENDCHAR
STARTCHAR 2153
ENCODING 8531
SWIDTH 875 0
DWIDTH 35 0
BBX 30 28 3 -1
BITMAP
78003E00
78003C00
78007800
7800F800
7801F000
7801E000
7803E000
7807C000
78078000
780F8000
781F0000
783E0000
783C0000
007C07F0
00F807F8
00F007FC
01F007FC
03E0003C
07C0003C
0787FFFC
0F87FFF8
1F07FFFC
1E00003C
3E00003C
7C07FFFC
F807FFFC
F007FFFC
0007FFF0
ENDCHAR
STARTCHAR 2154
ENCODING 8532
SWIDTH 1050 0
DWIDTH 42 0
BBX 37 29 3 -1
BITMAP
01FC000000
01FF003E00
01FF003C00
01FF007800
000700F800
000701F000
7FFF01E000
FFFF03E000
FFFE07C000
E000078000
E0000F8000
FFFF1F0000
FFFF3E0000
FFFF3C0000
FFFF7C0FE0
0000F80FF0
0000F00FF8
0001F00FF8
0003E00078
0007C00078
00078FFFF8
000F8FFFF0
001F0FFFF8
001E000078
003E000078
007C0FFFF8
00F80FFFF8
00F00FFFF8
00000FFFE0
ENDCHAR
STARTCHAR 215B
ENCODING 8539
SWIDTH 900 0
DWIDTH 36 0
BBX 31 28 3 -1
BITMAP
78003E00
78003C00
78007800
7800F800
7801F000
7801E000
7803E000
7807C000
78078000
780F8000
781F0000
783E0000
783C0000
007C7FF8
00F9FFFC
00F1FFFE
01F1FFFE
03E1E01E
07C1E01E
0781FFFE
0F80FFF8
1F01FFFE
1E01E01E
3E01E01E
7C01FFFE
F801FFFE
F001FFFE
00007FF8
ENDCHAR
STARTCHAR 215C
ENCODING 8540
SWIDTH 1075 0
DWIDTH 43 0
BBX 39 29 2 -1
BITMAP
00FE000000
00FF003E00
00FF803C00
00FF807800
000780F800
000781F000
FFFF81E000
FFFF03E000
FFFF87C000
0007878000
00078F8000
FFFF9F0000
FFFFBE0000
FFFFBC0000
FFFE7C7FF8
0000F9FFFC
0000F1FFFE
0001F1FFFE
0003E1E01E
0007C1E01E
000781FFFE
000F80FFF8
001F01FFFE
001E01E01E
003E01E01E
007C01FFFE
00F801FFFE
00F001FFFE
0000007FF8
ENDCHAR
STARTCHAR 215D
ENCODING 8541
SWIDTH 1075 0
DWIDTH 43 0
BBX 39 29 2 -1
BITMAP
FFC0000000
FFC0003E00
FFC0003C00
FFC0007800
E00000F800
E00001F000
FFFE01E000
FFFF03E000
FFFF87C000
0007878000
00078F8000
FFFF9F0000
FFFFBE0000
FFFF3C0000
FFFE7C7FF8
0000F9FFFC
0000F1FFFE
0001F1FFFE
0003E1E01E
0007C1E01E
000781FFFE
000F80FFF8
001F01FFFE
001E01E01E
003E01E01E
007C01FFFE
00F801FFFE
00F001FFFE
0000007FF8
ENDCHAR
STARTCHAR 215E
ENCODING 8542
SWIDTH 950 0
DWIDTH 38 0
BBX 35 29 2 -1
BITMAP
FFFF800000
FFFF87C000
FFFF878000
FFFF0F0000
000F1F0000
001E3E0000
003C3C0000
00787C0000
00F0F80000
01F0F00000
03E1F00000
07C3E00000
0F87C00000
0F07800000
000F87FF80
001F1FFFC0
001E1FFFE0
003E1FFFE0
007C1E01E0
00F81E01E0
00F01FFFE0
01F00FFF80
03E01FFFE0
03C01E01E0
07C01E01E0
0F801FFFE0
1F001FFFE0
1E001FFFE0
000007FF80
ENDCHAR
STARTCHAR 2202
ENCODING 8706
SWIDTH 675 0
DWIDTH 27 0
BBX 25 29 1 -1
BITMAP
003F8000
003FF000
003FF800
003FFC00
0000FE00
00003F00
00001F00
00000F00
00000F80
03FC0780
0FFF8780
1FFFC780
3FFFE780
7F03F780
7E00FF80
FC007F80
F8003F80
F8001F00
F8001F00
F8001F00
F8001F00
F8003E00
7C007E00
7E00FC00
7F01FC00
3FFFF800
1FFFE000
0FFFC000
01FE0000
ENDCHAR
STARTCHAR 220F
ENCODING 8719
SWIDTH 625 0
DWIDTH 25 0
BBX 21 37 2 -9
BITMAP
FFFFF8
FFFFF8
FFFFF8
FFFFF8
F800F8
F800F8
F800F8
F800F8
F800F8
F800F8
F800F8
F800F8
F800F8
F800F8
F800F8
F800F8
F800F8
F800F8
F800F8
F800F8
F800F8
F800F8
F800F8
F800F8
F800F8
F800F8
F800F8
F800F8
F800F8
F800F8
F800F8
F800F8
F800F8
F800F8
F800F8
F800F8
F800F8
ENDCHAR
STARTCHAR 2211
ENCODING 8721
SWIDTH 650 0
DWIDTH 26 0
BBX 22 38 2 -9
BITMAP
FFFFFC
FFFFFC
FFFFFC
FFFFFC
FFFFFC
7E0000
3F0000
1F0000
1F8000
0FC000
07C000
07E000
03F000
01F000
01F800
00FC00
007E00
003E00
003F00
003F00
003E00
007E00
00FC00
01F800
01F000
03F000
07E000
07C000
0FC000
1F8000
1F0000
3F0000
7E0000
FFFFFC
FFFFFC
FFFFFC
FFFFFC
FFFFFC
ENDCHAR
STARTCHAR 2212
ENCODING 8722
SWIDTH 600 0
DWIDTH 24 0
BBX 19 4 2 12
BITMAP
FFFFE0
FFFFE0
FFFFE0
FFFFE0
ENDCHAR
STARTCHAR 221A
ENCODING 8730
SWIDTH 575 0
DWIDTH 23 0
BBX 21 27 1 0
BITMAP
000078
000078
0000F8
0000F0
0000F0
0001F0
0001F0
0001E0
0001E0
0003E0
0003C0
0003C0
FE07C0
FE0780
FE0780
FF0F80
0F0F00
0F0F00
0F9F00
079E00
079E00
07DE00
03FE00
03FC00
01FC00
01FC00
01F800
ENDCHAR
STARTCHAR 221E
ENCODING 8734
SWIDTH 800 0
DWIDTH 32 0
BBX 28 17 2 5
BITMAP
0FC03F00
1FF0FF80
3FF9FFC0
7FFFFFE0
7C3FC3E0
F80F01F0
F00F00F0
F00600F0
F00600F0
F00600F0
F00700F0
F80F01F0
7C3FC3E0
7FFFFFE0
3FF9FFC0
1FF0FF80
0FC03F00
ENDCHAR
STARTCHAR 222B
ENCODING 8747
SWIDTH 400 0
DWIDTH 16 0
BBX 14 44 1 -9
BITMAP
003C
00FC
01FC
03FC
07E0
07C0
0780
0780
0780
0780
0780
0780
0780
0780
0780
0780
0780
0780
0780
0780
0780
0780
0780
0780
0780
0780
0780
0780
0780
0780
0780
0780
0780
0780
0780
0780
0780
0780
0F80
1F80
FF00
FF00
FC00
F000
ENDCHAR
STARTCHAR 2248
ENCODING 8776
SWIDTH 600 0
DWIDTH 24 0
BBX 19 14 2 7
BITMAP
1F0000
FFC060
FFFBE0
FFFFE0
E07FE0
000F00
000000
000000
1F0000
FFC060
FFFBE0
FFFFE0
E07FE0
000F00
ENDCHAR
STARTCHAR 2260
ENCODING 8800
SWIDTH 600 0
DWIDTH 24 0
BBX 23 27 0 0
BITMAP
00003E
00003E
00007C
0000F8
0000F0
0001F0
3FFFF8
3FFFF8
3FFFF8
3FFFF8
001F00
001F00
003E00
007C00
007800
00F800
3FFFF8
3FFFF8
3FFFF8
3FFFF8
078000
0F8000
1F0000
3E0000
3E0000
7C0000
F80000
ENDCHAR
STARTCHAR 2264
ENCODING 8804
SWIDTH 600 0
DWIDTH 24 0
BBX 19 29 2 -4
BITMAP
000020
0000E0
0001E0
0007E0
001FE0
007F80
01FF00
03FC00
0FF000
3FC000
7F0000
FC0000
FC0000
7F0000
3FC000
0FF000
03FC00
01FF00
007F80
001FE0
0007E0
0001E0
000060
000020
000000
FFFFE0
FFFFE0
FFFFE0
FFFFE0
ENDCHAR
STARTCHAR 2265
ENCODING 8805
SWIDTH 600 0
DWIDTH 24 0
BBX 19 29 2 -4
BITMAP
800000
E00000
F80000
FE0000
FF8000
3FC000
0FF000
03FC00
00FF00
003FC0
000FE0
0007E0
0007E0
001FE0
003FC0
00FF00
03FC00
0FF000
3FC000
FF8000
FE0000
F80000
E00000
800000
000000
FFFFE0
FFFFE0
FFFFE0
FFFFE0
ENDCHAR
STARTCHAR 25CA
ENCODING 9674
SWIDTH 550 0
DWIDTH 22 0
BBX 18 29 2 -1
BITMAP
00E000
01F000
03F000
03F800
07F800
07FC00
0FBC00
0F3E00
1F1E00
1E1F00
3E0F00
3C0F00
7C0780
780780
F803C0
780780
7C0780
3C0F80
3E0F00
1E1F00
1F1E00
0F3E00
0FBC00
07FC00
07F800
03F800
03F000
01F000
00E000
ENDCHAR
STARTCHAR FB01
ENCODING 64257
SWIDTH 700 0
DWIDTH 28 0
BBX 23 29 2 0
BITMAP
1FFC7E
7FFC7E
7FFC7E
FFFC7E
FC007E
FC007E
FC0000
FFFC00
FFFC7E
FFFC7E
FFFC7E
FFFC7E
FC007E
FC007E
FC007E
FC007E
FC007E
FC007E
FC007E
FC007E
FC007E
FC007E
FC007E
FC007E
FC007E
FC007E
FC007E
FC007E
FC007E
ENDCHAR
STARTCHAR FB02
ENCODING 64258
SWIDTH 700 0
DWIDTH 28 0
BBX 23 29 2 0
BITMAP
1FFC7E
7FFC7E
7FFC7E
FFFC7E
FC007E
FC007E
FC007E
FFFC7E
FFFC7E
FFFC7E
FFFC7E
FFFC7E
FC007E
FC007E
FC007E
FC007E
FC007E
FC007E
FC007E
FC007E
FC007E
FC007E
FC007E
FC007E
FC007E
FC007E
FC007E
FC007E
FC007E
ENDCHAR
ENDFONT
